<svg width="256" height="191" viewBox="0 0 256 191" fill="none" xmlns="http://www.w3.org/2000/svg">
<path d="M142.711 186.646C142.719 186.646 142.719 186.646 142.711 186.646C142.719 186.646 142.719 186.646 142.711 186.646ZM153.346 2.94053C152.888 4.02213 152.541 5.27089 152.123 6.39182C151.16 8.95816 150.174 10.2463 148.754 9.89227C144.597 8.88933 140.747 13.1174 136.565 13.845C133.725 14.3465 130.301 15.2118 127.477 14.2187C126.009 13.6975 125.883 12.8421 125.063 9.88244C123.745 5.11356 121.418 6.57864 119.09 8.04372C117.71 8.909 116.321 9.78411 115.154 9.35147C112.732 8.44686 110.838 5.0349 108.495 8.18138C106.862 10.3741 105.844 9.95127 104.132 9.56779C103.107 9.33181 103.351 8.12238 102.31 10.0988C102.097 10.5117 102.01 11.5442 101.781 11.9965C101.308 12.9503 100.969 13.6287 100.353 14.0908C98.6572 15.3691 96.5823 13.5402 94.8861 12.6749C93.2451 11.8392 90.8389 12.38 89.3952 10.3347C88.8745 9.58746 88.6615 8.46653 88.2512 7.41442C87.3124 5.02507 87.2177 4.4056 86.4288 6.53931C86.7838 5.5757 86.058 8.43703 85.8213 9.01716C85.4663 9.9611 84.8509 10.7182 84.0857 11.1509C82.3974 12.0358 81.8057 9.09582 80.2751 8.46653C79.1943 8.01422 78.003 8.09288 76.8196 8.17154C75.9597 8.23054 75.1077 8.2797 74.2951 8.13221C72.4332 7.7979 70.737 4.07129 68.8593 5.02507C66.8476 6.04767 65.2066 9.88244 63.0923 10.4429C62.043 10.7182 61.0253 10.2266 60.0154 9.74478C58.9819 9.24331 57.9563 8.75167 56.9071 9.05649C55.9446 9.34164 55.203 10.2364 54.2405 9.63662C53.491 9.16465 52.9072 7.58158 52.2682 7.2866C52.0157 7.1686 51.6843 7.33576 51.3372 7.51275C51.0216 7.67007 50.6903 7.83723 50.4142 7.75857C49.5621 7.51275 48.8205 6.00834 48 5.70353C47.3295 5.45771 46.7693 5.61503 46.2486 5.77236C45.4676 5.99851 44.7497 6.23449 43.795 5.17256C42.7063 3.97296 40.5052 1.34762 39.2114 1.17063C37.7755 0.983813 37.0181 7.44392 35.3851 8.64351C34.8013 9.07615 34.3042 8.97783 33.7125 8.96799C32.0873 8.9385 30.7935 9.56779 29.2866 11.1312C26.1151 14.4153 22.1626 14.9463 18.7544 13.9335C16.6007 13.2944 17.2081 11.0624 15.8354 7.66024C14.6204 4.63176 12.656 7.03095 11.1491 8.66318C11.1334 8.68285 11.1255 8.70251 11.1018 8.72218L10.9598 8.8795V8.85983C10.802 9.02699 10.6521 9.18431 10.5101 9.32197C10.2655 9.59729 9.9342 9.68578 9.61862 9.57762C8.47468 9.75461 7.6463 8.84017 6.66014 8.00439C6.32879 8.59435 5.87121 9.10565 5.32685 9.43997C5.24007 11.3377 4.90083 13.2059 4.31702 14.966C3.3703 17.7978 2.58926 20.6984 1.95812 23.6581C1.30331 26.8734 1.81611 28.5941 1.46109 31.6521C1.26386 33.3335 0.774726 34.2381 0.39604 35.4771C0.443375 35.831 0.467043 36.185 0.467043 36.539C0.490711 37.4141 0.39604 38.2892 0.190918 39.1348C0.601161 43.4612 1.56366 45.8113 3.0074 49.0954C4.59314 52.704 3.38608 54.0019 3.45709 59.0658C3.51231 62.5269 4.20657 65.8209 4.35647 69.2918C4.49058 72.1827 4.38013 74.8473 4.69571 77.6988C5.29529 83.0872 5.38207 87.5611 5.51619 92.9297C6.54969 94.5915 6.51813 97.1873 5.65031 99.2128C5.72131 103.166 5.94221 108.642 5.5083 111.887C5.05861 115.211 3.93044 114.994 3.03106 116.941C0.877286 121.572 3.18096 129.173 3.57543 134.975C4.12768 142.969 2.60504 149.153 2.32892 156.862C2.17902 161.1 3.64643 164.345 4.22235 168.042C4.92449 172.604 4.6957 177.776 6.82581 179.93C7.37018 180.48 8.0171 180.461 8.67191 180.451C9.50817 180.431 10.3444 180.412 10.9677 181.582C12.0012 183.529 11.2359 185.947 11.8592 188.179C12.869 191.827 16.4192 186.262 17.8235 185.436C19.7327 184.305 20.8766 183.578 22.636 181.218C23.4486 180.126 24.34 179.232 25.2789 179.772C26.5806 180.52 27.1407 183.607 27.7877 186.419C28.3005 186.252 28.8133 186.233 29.2551 186.095C30.7462 185.613 32.2372 182.113 33.7993 183.794C34.9038 184.984 34.9433 188.514 36.1267 189.458C36.6079 189.841 37.3022 189.576 37.9649 189.31C38.3988 189.133 38.8248 188.956 39.1561 188.966C40.1107 189.035 41.0575 188.848 41.949 188.425C42.7537 188.061 43.4321 187.462 44.2763 188.101C45.081 188.71 45.5701 189.792 46.3827 189.93C46.9271 190.018 47.503 189.969 48.0868 189.92C48.5444 189.881 49.002 189.841 49.4359 189.871C50.6114 189.949 51.353 188.956 52.4496 188.553C52.9861 188.356 53.4594 188.484 53.917 188.612C54.6113 188.809 55.274 188.996 56.0866 188.061C57.6408 186.272 58.4376 182.83 60.3626 183.843C60.8202 184.02 61.2146 184.374 61.4907 184.866C61.5696 185.023 61.6327 185.18 61.6959 185.338C62.8319 184.207 64.1494 184.099 64.9068 186.223C65.5616 187.019 65.9087 188.415 66.7924 189.517C68.3229 191.405 70.7291 190.175 72.3464 189.625C74.6974 188.828 76.8512 187.314 78.6184 185.22C80.354 183.234 82.1055 180.677 83.991 179.812C84.9219 179.389 85.6162 179.576 86.5393 180.018C87.1862 180.048 87.3755 180.451 87.0915 181.218C87.4702 180.815 87.8489 180.431 88.2276 180.077C89.2847 179.487 90.4681 179.753 91.6357 180.018C92.4247 180.195 93.2136 180.382 93.9552 180.294C97.7736 179.851 101.963 177.088 105.781 178.278C107.643 178.73 109.245 180.185 110.168 182.25C110.941 183.951 111.17 186.085 112.148 187.206C112.195 187.019 112.258 186.783 112.345 186.488C114.152 179.979 117.339 178.111 119.209 184.6C119.998 187.354 119.769 189.989 121.449 189.802C122.152 189.723 123.004 188.514 123.69 187.934C125.97 185.997 128.289 185.859 130.546 184.138C133.473 181.906 135.524 176.528 137.804 180.598C138.261 180.244 138.837 180.205 139.327 180.49C140.289 181.051 140.683 182.486 140.991 183.588C141.18 184.276 141.662 187.118 141.307 184.895C141.299 184.846 141.559 185.544 141.63 185.77C141.678 185.918 141.717 186.065 141.749 186.223C142.127 186.508 142.49 186.744 142.711 186.636C142.238 186.852 143.894 183.293 143.91 183.253C144.825 181.454 145.709 179.949 146.955 180.461C148.557 181.12 148.383 183.175 149.141 186.193C150.119 190.057 151.46 189.546 152.912 189.123C154.143 186.459 155.563 186.478 157.101 187.835C156.565 187.354 157.014 187.619 157.456 188.258C158.434 187.167 159.176 185.426 160.628 186.282C161.267 186.655 161.866 187.56 161.827 189.477C161.819 189.959 165.148 189.595 168.32 189.232C170.899 188.937 173.377 188.642 173.834 188.799C175.278 189.32 175.152 189.084 176.28 187.383C177.219 185.987 178.308 184.758 179.515 183.725C181.298 182.181 182.229 183.234 183.546 185.515C184.035 185.259 184.587 185.289 185.053 185.593C185.968 184.256 186.836 183.273 188.074 184.748C189.321 186.233 189.96 188.671 191.364 189.487C193.234 190.579 194.938 189.802 196.8 189.241C198.544 188.72 199.877 189.025 201.628 187.953C203.869 186.577 205.833 184.266 207.979 182.368C209.865 180.707 212.192 178.809 214.196 179.664C214.898 179.959 216.042 180.303 216.657 181.159C216.752 181.287 216.839 181.415 216.91 181.562C216.926 181.542 216.941 181.523 216.957 181.503C217.289 181.159 217.549 180.451 217.888 180.117C218.843 179.173 221.565 178.327 222.503 180.716C225.438 180.431 228.373 179.163 231.308 179.084C234.251 179.006 237.17 177.963 240.112 178.209C242.519 178.288 244.751 179.782 246.132 182.24C246.858 183.47 247.725 185.043 248.428 186.498C248.775 185.869 249.217 185.2 249.335 184.895C251.031 180.244 251.078 172.142 252.001 166.38C252.412 163.804 253.082 162.555 253.745 160.579C255.615 154.964 254.897 153.145 253.272 148.839C252.293 146.243 251.433 143.362 252.577 140.058C253.13 138.465 254.163 138.436 254.692 137.02C255.047 136.076 255.654 129.537 255.473 128.337C255.425 128.042 255.402 127.738 255.394 127.433C255.062 123.578 254.163 120.717 253.958 116.695C253.753 112.576 253.777 108.682 253.28 104.65C252.822 100.914 251.418 96.3319 251.465 92.2218C251.497 90.442 251.844 88.682 252.475 87.0891C252.096 86.096 252.001 84.6506 252.443 82.684C252.711 81.9269 253.027 81.1993 253.382 80.5012C254.25 78.6428 254.4 79.2032 254.518 77.0499C254.881 70.3046 252.98 70.9339 252.23 66.3027C251.93 64.523 252.096 62.6744 252.711 61.0225C253.982 57.4729 255.867 58.2202 255.788 51.7699C255.757 49.0856 255.496 46.6175 255.402 44.0217C254.991 43.5989 254.668 42.8418 254.55 41.4554C254.518 40.7572 254.565 40.0493 254.692 39.361C254.565 39.833 254.581 39.3512 254.629 38.8792C254.692 38.299 254.794 37.7091 254.739 38.8693C254.731 39.0463 254.707 39.2037 254.692 39.361C254.707 39.302 254.723 39.2528 254.739 39.184C254.976 38.1024 255.268 37.0405 255.607 36.008C255.268 32.3011 253.532 28.3582 253.327 24.0022C253.272 22.8322 253.745 18.7417 253.532 17.8765C253.208 16.5687 251.686 17.3357 251.102 15.8312C251.039 15.6739 250.984 15.5166 250.944 15.3494C249.217 12.5078 246.794 5.81169 245.059 7.13911C244.096 7.87656 243.323 9.59729 242.274 10.1184C241.162 10.6396 239.931 10.6691 238.803 10.1971C238.235 10.0004 237.706 9.67595 237.233 9.23348C236.475 8.41736 236.815 7.63074 236.365 8.3092C235.797 9.17448 235.529 12.5078 234.842 13.727C233.469 16.1656 231.947 15.1036 230.479 13.9434C228.515 12.3898 226.669 13.1961 224.712 11.6917C223.237 10.5609 223.048 11.2 221.628 11.7212C220.855 11.9768 220.026 11.6228 219.537 10.8362C218.669 9.67595 217.573 4.18928 216.523 4.84808C216.121 5.10373 215.072 10.2561 214.456 11.2099C213.494 12.7929 211.711 13.1567 210.385 12.0456C209.596 11.9768 208.942 11.259 208.334 9.48913C208.224 9.14498 208.169 8.79101 208.153 8.41736C207.569 8.18138 206.796 8.20104 206.102 8.23054C205.533 8.25021 205.021 8.26987 204.681 8.15188C203.561 7.7684 202.693 7.31609 201.542 7.7979C200.579 8.20104 199.845 8.89917 198.867 8.50586C197.668 8.02405 196.729 6.02801 195.522 5.38888C193.408 4.27778 191.664 6.36232 189.771 8.31903C189.692 8.40753 189.637 8.45669 189.589 8.50586C189.542 8.56485 189.495 8.61402 189.431 8.68284C189.147 9.00733 188.903 9.53829 188.619 9.87261C188.153 10.4331 187.522 10.7379 186.867 10.7182C184.745 10.846 182.631 10.5216 180.595 9.75461C179.688 9.40063 178.907 8.64351 178.023 9.26298C177.156 9.87261 176.698 11.4852 175.696 11.6032C174.891 11.7015 174.41 11.1115 173.7 10.1774C172.462 8.53535 171.838 8.01422 170.442 8.04372C169.464 8.04372 168.509 7.66024 167.72 6.94245C166.765 6.15583 166.126 4.9759 164.99 5.78219C164.691 5.99851 164.47 6.86379 164.154 7.07028C162.56 8.10271 162.071 8.00439 160.675 6.06734C158.845 3.54032 157.188 4.04179 155.358 1.74093C154.861 1.10181 154.64 0.708496 154.45 0.708496C154.214 0.708496 154.024 1.34762 153.346 2.94053Z" fill="url(#paint0_linear)"/>
<path d="M79.5978 54.3273L90.2093 43.7057C91.2664 42.6496 92.6995 42.0564 94.1937 42.0564C95.6879 42.0564 97.121 42.6496 98.1781 43.7057L170.53 116.057V116.117C170.662 116.26 170.77 116.423 170.851 116.6L170.911 116.73C170.911 116.73 170.911 116.73 170.911 116.791L178.88 140.687C178.987 141.016 179.002 141.368 178.921 141.705C178.841 142.042 178.669 142.35 178.425 142.595C178.181 142.841 177.874 143.014 177.537 143.095C177.201 143.177 176.848 143.164 176.519 143.058L152.653 135.009H152.592L152.462 134.949C152.289 134.867 152.13 134.758 151.989 134.627H151.919L79.5676 62.2759C79.0438 61.754 78.6282 61.1339 78.3446 60.451C78.061 59.7681 77.915 59.036 77.915 58.2966C77.915 57.5572 78.061 56.825 78.3446 56.1421C78.6282 55.4593 79.0438 54.8391 79.5676 54.3172L79.5978 54.3273ZM174.127 138.255L168.309 120.81L156.672 132.447L174.127 138.255ZM153.205 130.618L166.48 117.343L107.463 58.2966L102.157 63.6626L137.328 98.8335C137.655 99.1854 137.835 99.649 137.831 100.129C137.826 100.61 137.638 101.07 137.305 101.416C136.972 101.762 136.519 101.967 136.039 101.99C135.56 102.012 135.09 101.85 134.726 101.537L134.675 101.486L99.5045 66.3155L94.1987 71.6213L153.205 130.618ZM82.2507 59.6431L91.5458 68.9383L98.168 62.296L104.82 55.6236L95.5252 46.3385C95.3514 46.1635 95.1448 46.0246 94.9171 45.9298C94.6895 45.835 94.4453 45.7862 94.1987 45.7862C93.9521 45.7862 93.708 45.835 93.4803 45.9298C93.2527 46.0246 93.046 46.1635 92.8723 46.3385L82.2507 56.9701C81.899 57.324 81.7017 57.8027 81.7017 58.3016C81.7017 58.8005 81.899 59.2791 82.2507 59.6331V59.6431Z" fill="white"/>
<path d="M75.3668 150.223H184.236C184.493 150.204 184.752 150.238 184.996 150.324C185.24 150.41 185.463 150.545 185.652 150.72C185.842 150.896 185.993 151.109 186.096 151.346C186.199 151.583 186.252 151.839 186.252 152.097C186.252 152.355 186.199 152.611 186.096 152.848C185.993 153.084 185.842 153.297 185.652 153.473C185.463 153.649 185.24 153.784 184.996 153.87C184.752 153.955 184.493 153.99 184.236 153.971H75.3668C74.8935 153.936 74.4508 153.724 74.1277 153.376C73.8046 153.029 73.625 152.572 73.625 152.097C73.625 151.622 73.8046 151.165 74.1277 150.818C74.4508 150.47 74.8935 150.257 75.3668 150.223Z" fill="white"/>
<path d="M75.3669 138.959H131.64C132.139 138.959 132.617 139.157 132.969 139.51C133.321 139.862 133.519 140.34 133.519 140.838C133.519 141.337 133.321 141.815 132.969 142.167C132.617 142.52 132.139 142.717 131.64 142.717H75.3669C74.8685 142.717 74.3906 142.52 74.0382 142.167C73.6858 141.815 73.4878 141.337 73.4878 140.838C73.4878 140.34 73.6858 139.862 74.0382 139.51C74.3906 139.157 74.8685 138.959 75.3669 138.959Z" fill="white"/>
<path d="M75.3669 125.814H124.174C124.672 125.814 125.15 126.012 125.503 126.365C125.855 126.717 126.053 127.195 126.053 127.694C126.053 128.192 125.855 128.67 125.503 129.022C125.15 129.375 124.672 129.573 124.174 129.573H75.3669C74.8685 129.573 74.3906 129.375 74.0382 129.022C73.6858 128.67 73.4878 128.192 73.4878 127.694C73.4878 127.195 73.6858 126.717 74.0382 126.365C74.3906 126.012 74.8685 125.814 75.3669 125.814Z" fill="white"/>
<defs>
<linearGradient id="paint0_linear" x1="127.991" y1="0.708496" x2="127.991" y2="190.529" gradientUnits="userSpaceOnUse">
<stop stop-color="#E73239"/>
<stop offset="1" stop-color="#E74A51"/>
</linearGradient>
</defs>
</svg>
