<svg width="257" height="191" viewBox="0 0 257 191" fill="none" xmlns="http://www.w3.org/2000/svg">
<path d="M143.171 186.525C143.179 186.525 143.179 186.525 143.171 186.525C143.179 186.525 143.179 186.525 143.171 186.525ZM153.806 2.82017C153.349 3.90177 153.002 5.15052 152.583 6.27146C151.621 8.8378 150.635 10.1259 149.215 9.77191C145.057 8.76897 141.207 12.997 137.026 13.7247C134.186 14.2261 130.762 15.0914 127.937 14.0983C126.47 13.5772 126.344 12.7217 125.523 9.76208C124.206 4.9932 121.878 6.45828 119.551 7.92336C118.17 8.78864 116.782 9.66375 115.614 9.23111C113.192 8.3265 111.299 4.91454 108.956 8.06101C107.323 10.2537 106.305 9.83091 104.593 9.44743C103.567 9.21144 103.812 8.00202 102.77 9.9784C102.557 10.3914 102.471 11.4238 102.242 11.8761C101.768 12.8299 101.429 13.5083 100.814 13.9705C99.1177 15.2487 97.0428 13.4199 95.3466 12.5546C93.7056 11.7188 91.2994 12.2596 89.8556 10.2144C89.3349 9.4671 89.1219 8.34616 88.7117 7.29406C87.7729 4.90471 87.6782 4.28524 86.8893 6.41895C87.2443 5.45534 86.5184 8.31667 86.2818 8.8968C85.9268 9.84074 85.3114 10.5979 84.5461 11.0305C82.8578 11.9154 82.2661 8.97546 80.7356 8.34616C79.6548 7.89386 78.4635 7.97252 77.2801 8.05118C76.4202 8.11018 75.5681 8.15934 74.7555 8.01185C72.8936 7.67754 71.1974 3.95093 69.3198 4.90471C67.308 5.92731 65.667 9.76208 63.5527 10.3225C62.5034 10.5979 61.4857 10.1062 60.4759 9.62442C59.4424 9.12295 58.4168 8.63131 57.3675 8.93613C56.405 9.22128 55.6634 10.1161 54.7009 9.51626C53.9514 9.04429 53.3676 7.46122 52.7286 7.16624C52.4761 7.04824 52.1448 7.2154 51.7977 7.39239C51.4821 7.54971 51.1507 7.71687 50.8746 7.63821C50.0226 7.39239 49.281 5.88798 48.4605 5.58316C47.7899 5.33735 47.2298 5.49467 46.7091 5.65199C45.928 5.87815 45.2101 6.11413 44.2555 5.0522C43.1668 3.8526 40.9657 1.22726 39.6718 1.05027C38.236 0.863451 37.4786 7.32356 35.8455 8.52315C35.2617 8.95579 34.7647 8.85747 34.173 8.84763C32.5478 8.81813 31.2539 9.44743 29.7471 11.0108C26.5756 14.295 22.6231 14.8259 19.2149 13.8132C17.0611 13.174 17.6686 10.942 16.2958 7.53988C15.0809 4.5114 13.1165 6.91058 11.6096 8.54282C11.5938 8.56248 11.5859 8.58215 11.5623 8.60181L11.4203 8.75914V8.73947C11.2625 8.90663 11.1126 9.06395 10.9706 9.20161C10.726 9.47693 10.3946 9.56542 10.0791 9.45726C8.93513 9.63425 8.10675 8.71981 7.12059 7.88403C6.78924 8.47399 6.33166 8.98529 5.7873 9.3196C5.70052 11.2173 5.36128 13.0855 4.77747 14.8456C3.83075 17.6774 3.04971 20.5781 2.41857 23.5377C1.76376 26.753 2.27656 28.4738 1.92154 31.5318C1.72431 33.2132 1.23517 34.1178 0.856489 35.3567C0.903825 35.7107 0.927492 36.0646 0.927492 36.4186C0.95116 37.2937 0.856489 38.1689 0.651367 39.0145C1.06161 43.3409 2.0241 45.6909 3.46785 48.975C5.05359 52.5836 3.84653 53.8816 3.91754 58.9454C3.97276 62.4065 4.66702 65.7005 4.81692 69.1715C4.95103 72.0623 4.84058 74.727 5.15615 77.5785C5.75574 82.9668 5.84252 87.4407 5.97664 92.8094C7.01014 94.4711 6.97858 97.0669 6.11076 99.0925C6.18176 103.045 6.40266 108.522 5.96875 111.767C5.51906 115.09 4.39089 114.874 3.49151 116.821C1.33774 121.452 3.64141 129.053 4.03587 134.854C4.58813 142.848 3.06549 149.033 2.78937 156.742C2.63947 160.98 4.10688 164.225 4.6828 167.922C5.38494 172.484 5.15615 177.656 7.28626 179.809C7.83063 180.36 8.47755 180.34 9.13236 180.331C9.96862 180.311 10.8049 180.291 11.4281 181.461C12.4616 183.408 11.6964 185.827 12.3196 188.059C13.3295 191.707 16.8796 186.142 18.2839 185.316C20.1931 184.185 21.3371 183.457 23.0964 181.098C23.909 180.006 24.8005 179.111 25.7393 179.652C27.0411 180.399 27.6012 183.487 28.2481 186.299C28.7609 186.132 29.2737 186.112 29.7155 185.975C31.2066 185.493 32.6977 181.992 34.2598 183.674C35.3643 184.863 35.4037 188.393 36.5871 189.337C37.0684 189.721 37.7626 189.455 38.4253 189.19C38.8592 189.013 39.2852 188.836 39.6166 188.846C40.5712 188.915 41.5179 188.728 42.4094 188.305C43.2141 187.941 43.8926 187.341 44.7367 187.98C45.5415 188.59 46.0306 189.672 46.8432 189.809C47.3875 189.898 47.9635 189.849 48.5473 189.799C49.0049 189.76 49.4624 189.721 49.8963 189.75C51.0718 189.829 51.8134 188.836 52.9101 188.433C53.4465 188.236 53.9199 188.364 54.3775 188.492C55.0717 188.688 55.7344 188.875 56.547 187.941C58.1012 186.152 58.898 182.71 60.823 183.723C61.2806 183.9 61.6751 184.254 61.9512 184.745C62.0301 184.903 62.0932 185.06 62.1563 185.217C63.2924 184.087 64.6099 183.979 65.3672 186.102C66.0221 186.899 66.3692 188.295 67.2528 189.396C68.7833 191.284 71.1896 190.055 72.8069 189.505C75.1579 188.708 77.3116 187.194 79.0788 185.099C80.8145 183.113 82.5659 180.557 84.4515 179.691C85.3824 179.269 86.0767 179.455 86.9997 179.898C87.6466 179.927 87.836 180.331 87.5519 181.098C87.9306 180.694 88.3093 180.311 88.688 179.957C89.7452 179.367 90.9286 179.632 92.0962 179.898C92.8851 180.075 93.674 180.262 94.4156 180.173C98.2341 179.731 102.423 176.968 106.242 178.158C108.104 178.61 109.705 180.065 110.628 182.13C111.401 183.831 111.63 185.965 112.608 187.086C112.656 186.899 112.719 186.663 112.806 186.368C114.612 179.859 117.8 177.99 119.669 184.48C120.458 187.233 120.229 189.868 121.91 189.681C122.612 189.603 123.464 188.393 124.15 187.813C126.43 185.876 128.75 185.739 131.006 184.018C133.933 181.786 135.984 176.407 138.264 180.478C138.722 180.124 139.298 180.085 139.787 180.37C140.749 180.93 141.144 182.366 141.452 183.467C141.641 184.155 142.122 186.997 141.767 184.775C141.759 184.726 142.02 185.424 142.091 185.65C142.138 185.798 142.177 185.945 142.209 186.102C142.588 186.388 142.951 186.624 143.171 186.515C142.698 186.732 144.355 183.172 144.371 183.133C145.286 181.333 146.169 179.829 147.416 180.34C149.017 180.999 148.844 183.054 149.601 186.073C150.58 189.937 151.921 189.426 153.372 189.003C154.603 186.338 156.023 186.358 157.562 187.715C157.025 187.233 157.475 187.499 157.917 188.138C158.895 187.046 159.636 185.306 161.088 186.161C161.727 186.535 162.327 187.44 162.287 189.357C162.279 189.839 165.609 189.475 168.78 189.111C171.36 188.816 173.837 188.521 174.295 188.679C175.738 189.2 175.612 188.964 176.74 187.263C177.679 185.866 178.768 184.637 179.975 183.605C181.758 182.061 182.689 183.113 184.006 185.394C184.496 185.139 185.048 185.168 185.513 185.473C186.428 184.136 187.296 183.153 188.535 184.627C189.781 186.112 190.42 188.551 191.825 189.367C193.695 190.458 195.399 189.681 197.26 189.121C199.004 188.6 200.337 188.905 202.089 187.833C204.329 186.456 206.294 184.146 208.44 182.248C210.325 180.586 212.652 178.688 214.656 179.544C215.359 179.839 216.502 180.183 217.118 181.039C217.213 181.166 217.299 181.294 217.37 181.442C217.386 181.422 217.402 181.402 217.418 181.383C217.749 181.039 218.009 180.331 218.349 179.996C219.303 179.052 222.025 178.207 222.964 180.596C225.899 180.311 228.833 179.042 231.768 178.964C234.711 178.885 237.63 177.843 240.573 178.089C242.979 178.167 245.212 179.662 246.592 182.12C247.318 183.349 248.186 184.922 248.888 186.378C249.235 185.748 249.677 185.08 249.795 184.775C251.492 180.124 251.539 172.022 252.462 166.26C252.872 163.684 253.543 162.435 254.205 160.459C256.075 154.844 255.357 153.025 253.732 148.718C252.754 146.122 251.894 143.241 253.038 139.938C253.59 138.345 254.624 138.315 255.152 136.899C255.507 135.955 256.115 129.417 255.933 128.217C255.886 127.922 255.862 127.617 255.854 127.312C255.523 123.458 254.624 120.597 254.418 116.575C254.213 112.455 254.237 108.561 253.74 104.53C253.282 100.794 251.878 96.2115 251.925 92.1014C251.957 90.3217 252.304 88.5616 252.935 86.9687C252.557 85.9756 252.462 84.5302 252.904 82.5637C253.172 81.8065 253.488 81.0789 253.843 80.3808C254.71 78.5224 254.86 79.0829 254.979 76.9295C255.341 70.1842 253.44 70.8135 252.691 66.1823C252.391 64.4026 252.557 62.554 253.172 60.9021C254.442 57.3525 256.328 58.0998 256.249 51.6495C256.217 48.9652 255.957 46.4972 255.862 43.9013C255.452 43.4785 255.128 42.7214 255.01 41.335C254.979 40.6369 255.026 39.9289 255.152 39.2406C255.026 39.7126 255.042 39.2308 255.089 38.7588C255.152 38.1787 255.255 37.5887 255.199 38.749C255.192 38.926 255.168 39.0833 255.152 39.2406C255.168 39.1816 255.184 39.1325 255.199 39.0636C255.436 37.982 255.728 36.9201 256.067 35.8877C255.728 32.1807 253.992 28.2378 253.787 23.8819C253.732 22.7118 254.205 18.6214 253.992 17.7561C253.669 16.4483 252.146 17.2153 251.562 15.7109C251.499 15.5536 251.444 15.3962 251.405 15.2291C249.677 12.3874 247.255 5.69132 245.519 7.01874C244.557 7.7562 243.784 9.47693 242.734 9.99806C241.622 10.5192 240.391 10.5487 239.263 10.0767C238.695 9.88007 238.166 9.55559 237.693 9.11312C236.936 8.297 237.275 7.51038 236.825 8.18884C236.257 9.05412 235.989 12.3874 235.303 13.6067C233.93 16.0452 232.407 14.9833 230.94 13.823C228.975 12.2694 227.129 13.0757 225.173 11.5713C223.697 10.4405 223.508 11.0797 222.088 11.6008C221.315 11.8565 220.487 11.5025 219.997 10.7159C219.13 9.55559 218.033 4.06892 216.984 4.72772C216.581 4.98337 215.532 10.1357 214.917 11.0895C213.954 12.6726 212.171 13.0364 210.846 11.9253C210.057 11.8565 209.402 11.1387 208.795 9.36877C208.684 9.02462 208.629 8.67064 208.613 8.297C208.029 8.06101 207.256 8.08068 206.562 8.11018C205.994 8.12984 205.481 8.14951 205.142 8.03152C204.022 7.64804 203.154 7.19573 202.002 7.67754C201.039 8.08068 200.306 8.7788 199.327 8.38549C198.128 7.90369 197.189 5.90765 195.982 5.26852C193.868 4.15742 192.125 6.24196 190.231 8.19867C190.152 8.28717 190.097 8.33633 190.05 8.38549C190.002 8.44449 189.955 8.49365 189.892 8.56248C189.608 8.88696 189.363 9.41793 189.079 9.75224C188.614 10.3127 187.983 10.6175 187.328 10.5979C185.206 10.7257 183.091 10.4012 181.056 9.63425C180.149 9.28027 179.368 8.52315 178.484 9.14262C177.616 9.75224 177.159 11.3648 176.157 11.4828C175.352 11.5811 174.871 10.9912 174.161 10.0571C172.922 8.41499 172.299 7.89386 170.902 7.92336C169.924 7.92336 168.969 7.53988 168.181 6.82209C167.226 6.03547 166.587 4.85554 165.451 5.66183C165.151 5.87815 164.93 6.74343 164.615 6.94991C163.021 7.98235 162.532 7.88403 161.135 5.94698C159.305 3.41996 157.648 3.92143 155.818 1.62057C155.321 0.981444 155.1 0.588135 154.911 0.588135C154.674 0.588135 154.485 1.22726 153.806 2.82017Z" fill="url(#paint0_linear)"/>
<path d="M204.82 51.0629C204.823 50.704 204.755 50.3479 204.621 50.0153C204.486 49.6826 204.286 49.3799 204.034 49.1245C203.782 48.8691 203.482 48.666 203.151 48.5269C202.82 48.3878 202.464 48.3154 202.106 48.314H196.664V42.8047C196.666 42.4432 196.596 42.0851 196.458 41.7509C196.321 41.4167 196.118 41.1131 195.863 40.8575C195.607 40.6019 195.303 40.3995 194.969 40.2619C194.635 40.1243 194.277 40.0542 193.915 40.0557H177.558C176.834 40.0617 176.142 40.3543 175.633 40.8695C175.124 41.3847 174.84 42.0805 174.843 42.8047V48.314H170.867C170.507 48.3139 170.151 48.3852 169.819 48.5236C169.486 48.6621 169.185 48.8649 168.931 49.1205C168.678 49.376 168.478 49.6793 168.342 50.0127C168.206 50.3461 168.138 50.703 168.141 51.0629L168.22 58.2421H147.774C144.468 58.2421 140.958 60.0709 140.958 64.7169C140.958 65.6484 140.958 68.704 142.946 69.4538H133.529C128.167 69.4538 125.1 70.4193 125.1 76.1899C125.1 80.1089 127.929 82.483 132.438 82.483H156.111C155.33 83.2608 154.759 84.225 154.454 85.2846C154.149 86.3441 154.119 87.464 154.367 88.5384C154.614 89.6128 155.132 90.6064 155.871 91.4251C156.609 92.2438 157.544 92.8608 158.588 93.2176C159.458 93.5335 160.377 93.6949 161.303 93.6947H166.744V126.716C166.741 127.075 166.809 127.431 166.944 127.764C167.079 128.097 167.278 128.399 167.53 128.655C167.782 128.91 168.083 129.113 168.414 129.252C168.745 129.392 169.1 129.464 169.459 129.465H174.9V134.975C174.891 135.693 175.164 136.386 175.661 136.905C176.159 137.423 176.84 137.726 177.558 137.746H183.499V143.244C183.499 146.277 180.557 148.742 177.558 148.742H155.861C154.411 148.733 153.024 148.149 152.004 147.119C150.984 146.088 150.414 144.694 150.42 143.244V103.327C150.42 101.817 149.205 101.056 147.705 101.056H136.835V99.1699C136.836 98.8104 136.767 98.4541 136.63 98.1214C136.494 97.7887 136.294 97.4861 136.041 97.2308C135.788 96.9755 135.487 96.7726 135.155 96.6337C134.823 96.4947 134.468 96.4224 134.108 96.4209H127.702C127.702 94.8988 126.85 93.0131 125.35 93.0131H60.7153C56.1715 93.0131 53.2749 96.012 53.2749 100.567V106.076C53.2749 110.62 56.217 113.21 60.7153 113.221H125.305C126.804 113.221 127.656 111.722 127.656 110.2H134.063C134.788 110.194 135.481 109.902 135.992 109.387C136.503 108.872 136.789 108.176 136.789 107.451V105.554H146.126V143.21C146.126 149.287 149.807 152.82 155.816 152.82H177.558C183.147 152.82 187.781 149.287 187.781 143.21V137.746H193.87C194.594 137.74 195.286 137.448 195.795 136.933C196.304 136.417 196.588 135.721 196.585 134.997V129.488H202.026C202.385 129.487 202.74 129.414 203.071 129.275C203.402 129.136 203.702 128.933 203.954 128.678C204.207 128.422 204.406 128.119 204.541 127.787C204.676 127.454 204.744 127.098 204.741 126.739L204.82 51.0629ZM179.307 48.3594V43.9406H192.325V48.314L179.307 48.3594ZM171.038 124.91V92.3088C171.038 90.7867 170.901 89.5485 169.402 89.5485H161.246C160.517 89.5485 159.818 89.2589 159.302 88.7434C158.786 88.2278 158.497 87.5286 158.497 86.7995C158.497 86.0705 158.786 85.3713 159.302 84.8557C159.818 84.3402 160.517 84.0506 161.246 84.0506C161.975 84.0506 162.674 83.7609 163.19 83.2454C163.705 82.7299 163.995 82.0307 163.995 81.3016C163.995 80.5725 163.705 79.8733 163.19 79.3578C162.674 78.8422 161.975 78.5526 161.246 78.5526H131.393C131.053 78.5441 130.718 78.4644 130.41 78.3187C130.102 78.1731 129.828 77.9646 129.606 77.7069C129.383 77.4491 129.217 77.1476 129.118 76.8218C129.019 76.496 128.989 76.153 129.031 75.815C129.031 74.2929 129.769 72.8389 131.302 72.8389H146.729C147.082 72.8619 147.437 72.8139 147.772 72.6977C148.107 72.5816 148.415 72.3996 148.679 72.1625C148.942 71.9254 149.156 71.638 149.307 71.3172C149.457 70.9963 149.543 70.6486 149.557 70.2944C149.52 69.5832 149.222 68.9105 148.722 68.4038C148.222 67.8971 147.553 67.5917 146.842 67.5454C145.365 67.3068 145.013 66.3186 145.013 64.7964C145.012 64.4369 145.081 64.0806 145.217 63.7479C145.353 63.4152 145.554 63.1126 145.807 62.8573C146.06 62.602 146.361 62.3991 146.693 62.2602C147.024 62.1212 147.38 62.0489 147.74 62.0474H169.481C170.188 62.0329 170.861 61.7458 171.361 61.2462C171.861 60.7466 172.148 60.0731 172.162 59.3666V52.3579H200.447V124.865L171.038 124.91ZM178.728 134.18V129.511H192.904V134.18H178.728ZM133.29 100.624V106.133H127.804V100.624H133.29ZM123.249 108.882H60.7721C60.048 108.876 59.3558 108.584 58.847 108.068C58.3382 107.553 58.0542 106.857 58.0572 106.133V100.624C58.0542 99.8998 58.3382 99.204 58.847 98.6888C59.3558 98.1736 60.048 97.8809 60.7721 97.8749H123.249V108.882Z" fill="white"/>
<path d="M173.377 81.0182C173.377 79.8141 172.866 78.8372 171.367 78.8372H168.652C168.353 78.8156 168.053 78.8558 167.77 78.9553C167.487 79.0549 167.228 79.2116 167.009 79.4157C166.79 79.6198 166.615 79.8669 166.495 80.1417C166.375 80.4164 166.313 80.7129 166.313 81.0125C166.313 81.3122 166.375 81.6087 166.495 81.8834C166.615 82.1581 166.79 82.4053 167.009 82.6094C167.228 82.8135 167.487 82.9702 167.77 83.0697C168.053 83.1693 168.353 83.2095 168.652 83.1879H171.367C172.866 83.2219 173.377 82.211 173.377 81.0182Z" fill="white"/>
<path d="M171.469 70.3178C171.469 69.1819 170.969 68.1482 169.458 68.1482H156.066C155.49 68.1482 154.938 68.3768 154.531 68.7837C154.125 69.1906 153.896 69.7424 153.896 70.3178C153.896 70.8933 154.125 71.4451 154.531 71.852C154.938 72.2589 155.49 72.4875 156.066 72.4875H169.458C170.969 72.4875 171.469 71.5219 171.469 70.3178Z" fill="white"/>
<defs>
<linearGradient id="paint0_linear" x1="128.451" y1="0.588135" x2="128.451" y2="190.409" gradientUnits="userSpaceOnUse">
<stop stop-color="#FBB048"/>
<stop offset="1" stop-color="#C58429"/>
</linearGradient>
</defs>
</svg>
