<svg width="257" height="191" viewBox="0 0 257 191" fill="none" xmlns="http://www.w3.org/2000/svg">
<path d="M143.028 186.525C143.036 186.525 143.036 186.525 143.028 186.525C143.036 186.525 143.036 186.525 143.028 186.525ZM153.663 2.82017C153.206 3.90177 152.858 5.15052 152.44 6.27146C151.478 8.8378 150.492 10.1259 149.072 9.77191C144.914 8.76897 141.064 12.997 136.883 13.7247C134.042 14.2261 130.619 15.0914 127.794 14.0983C126.327 13.5772 126.201 12.7217 125.38 9.76208C124.063 4.9932 121.735 6.45828 119.408 7.92336C118.027 8.78864 116.639 9.66375 115.471 9.23111C113.049 8.3265 111.156 4.91454 108.813 8.06101C107.179 10.2537 106.162 9.83091 104.45 9.44743C103.424 9.21144 103.669 8.00202 102.627 9.9784C102.414 10.3914 102.328 11.4238 102.099 11.8761C101.625 12.8299 101.286 13.5083 100.671 13.9705C98.9746 15.2487 96.8997 13.4199 95.2035 12.5546C93.5625 11.7188 91.1563 12.2596 89.7126 10.2144C89.1919 9.4671 88.9789 8.34616 88.5686 7.29406C87.6298 4.90471 87.5351 4.28524 86.7462 6.41895C87.1012 5.45534 86.3754 8.31667 86.1387 8.8968C85.7837 9.84074 85.1683 10.5979 84.4031 11.0305C82.7148 11.9154 82.1231 8.97546 80.5925 8.34616C79.5117 7.89386 78.3204 7.97252 77.137 8.05118C76.2771 8.11018 75.425 8.15934 74.6124 8.01185C72.7506 7.67754 71.0544 3.95093 69.1767 4.90471C67.165 5.92731 65.524 9.76208 63.4096 10.3225C62.3604 10.5979 61.3427 10.1062 60.3328 9.62442C59.2993 9.12295 58.2737 8.63131 57.2244 8.93613C56.2619 9.22128 55.5204 10.1161 54.5579 9.51626C53.8084 9.04429 53.2246 7.46122 52.5855 7.16624C52.3331 7.04824 52.0017 7.2154 51.6546 7.39239C51.339 7.54971 51.0077 7.71687 50.7316 7.63821C49.8795 7.39239 49.1379 5.88798 48.3174 5.58316C47.6468 5.33735 47.0867 5.49467 46.566 5.65199C45.785 5.87815 45.067 6.11413 44.1124 5.0522C43.0237 3.8526 40.8226 1.22726 39.5288 1.05027C38.0929 0.863451 37.3355 7.32356 35.7024 8.52315C35.1186 8.95579 34.6216 8.85747 34.0299 8.84763C32.4047 8.81813 31.1109 9.44743 29.604 11.0108C26.4325 14.295 22.48 14.8259 19.0718 13.8132C16.918 13.174 17.5255 10.942 16.1528 7.53988C14.9378 4.5114 12.9734 6.91058 11.4665 8.54282C11.4508 8.56248 11.4429 8.58215 11.4192 8.60181L11.2772 8.75914V8.73947C11.1194 8.90663 10.9695 9.06395 10.8275 9.20161C10.5829 9.47693 10.2516 9.56542 9.93601 9.45726C8.79206 9.63425 7.96368 8.71981 6.97752 7.88403C6.64617 8.47399 6.18859 8.98529 5.64423 9.3196C5.55745 11.2173 5.21821 13.0855 4.6344 14.8456C3.68769 17.6774 2.90665 20.5781 2.2755 23.5377C1.62069 26.753 2.1335 28.4738 1.77848 31.5318C1.58124 33.2132 1.09211 34.1178 0.713422 35.3567C0.760758 35.7107 0.784426 36.0646 0.784426 36.4186C0.808094 37.2937 0.713422 38.1689 0.508301 39.0145C0.918544 43.3409 1.88104 45.6909 3.32478 48.975C4.91053 52.5836 3.70347 53.8816 3.77447 58.9454C3.82969 62.4065 4.52395 65.7005 4.67385 69.1715C4.80797 72.0623 4.69752 74.727 5.01309 77.5785C5.61267 82.9668 5.69946 87.4407 5.83357 92.8094C6.86707 94.4711 6.83552 97.0669 5.96769 99.0925C6.0387 103.045 6.2596 108.522 5.82569 111.767C5.376 115.09 4.24783 114.874 3.34845 116.821C1.19467 121.452 3.49834 129.053 3.89281 134.854C4.44506 142.848 2.92243 149.033 2.6463 156.742C2.4964 160.98 3.96381 164.225 4.53973 167.922C5.24188 172.484 5.01309 177.656 7.1432 179.809C7.68756 180.36 8.33448 180.34 8.98929 180.331C9.82556 180.311 10.6618 180.291 11.2851 181.461C12.3186 183.408 11.5533 185.827 12.1766 188.059C13.1864 191.707 16.7366 186.142 18.1409 185.316C20.0501 184.185 21.194 183.457 22.9533 181.098C23.7659 180.006 24.6574 179.111 25.5963 179.652C26.898 180.399 27.4581 183.487 28.1051 186.299C28.6179 186.132 29.1307 186.112 29.5725 185.975C31.0635 185.493 32.5546 181.992 34.1167 183.674C35.2212 184.863 35.2606 188.393 36.444 189.337C36.9253 189.721 37.6195 189.455 38.2822 189.19C38.7162 189.013 39.1422 188.836 39.4735 188.846C40.4281 188.915 41.3748 188.728 42.2663 188.305C43.071 187.941 43.7495 187.341 44.5937 187.98C45.3984 188.59 45.8875 189.672 46.7001 189.809C47.2445 189.898 47.8204 189.849 48.4042 189.799C48.8618 189.76 49.3194 189.721 49.7533 189.75C50.9288 189.829 51.6704 188.836 52.767 188.433C53.3035 188.236 53.7768 188.364 54.2344 188.492C54.9287 188.688 55.5914 188.875 56.404 187.941C57.9581 186.152 58.755 182.71 60.68 183.723C61.1375 183.9 61.532 184.254 61.8081 184.745C61.887 184.903 61.9501 185.06 62.0132 185.217C63.1493 184.087 64.4668 183.979 65.2242 186.102C65.879 186.899 66.2261 188.295 67.1097 189.396C68.6403 191.284 71.0465 190.055 72.6638 189.505C75.0148 188.708 77.1686 187.194 78.9358 185.099C80.6714 183.113 82.4228 180.557 84.3084 179.691C85.2393 179.269 85.9336 179.455 86.8566 179.898C87.5036 179.927 87.6929 180.331 87.4089 181.098C87.7876 180.694 88.1663 180.311 88.5449 179.957C89.6021 179.367 90.7855 179.632 91.9531 179.898C92.7421 180.075 93.531 180.262 94.2726 180.173C98.091 179.731 102.28 176.968 106.099 178.158C107.96 178.61 109.562 180.065 110.485 182.13C111.258 183.831 111.487 185.965 112.465 187.086C112.513 186.899 112.576 186.663 112.663 186.368C114.469 179.859 117.656 177.99 119.526 184.48C120.315 187.233 120.086 189.868 121.767 189.681C122.469 189.603 123.321 188.393 124.007 187.813C126.287 185.876 128.607 185.739 130.863 184.018C133.79 181.786 135.841 176.407 138.121 180.478C138.579 180.124 139.155 180.085 139.644 180.37C140.606 180.93 141.001 182.366 141.309 183.467C141.498 184.155 141.979 186.997 141.624 184.775C141.616 184.726 141.877 185.424 141.948 185.65C141.995 185.798 142.034 185.945 142.066 186.102C142.445 186.388 142.808 186.624 143.028 186.515C142.555 186.732 144.212 183.172 144.228 183.133C145.143 181.333 146.026 179.829 147.273 180.34C148.874 180.999 148.701 183.054 149.458 186.073C150.436 189.937 151.778 189.426 153.229 189.003C154.46 186.338 155.88 186.358 157.418 187.715C156.882 187.233 157.332 187.499 157.773 188.138C158.752 187.046 159.493 185.306 160.945 186.161C161.584 186.535 162.184 187.44 162.144 189.357C162.136 189.839 165.466 189.475 168.637 189.111C171.217 188.816 173.694 188.521 174.152 188.679C175.595 189.2 175.469 188.964 176.597 187.263C177.536 185.866 178.625 184.637 179.832 183.605C181.615 182.061 182.546 183.113 183.863 185.394C184.353 185.139 184.905 185.168 185.37 185.473C186.285 184.136 187.153 183.153 188.392 184.627C189.638 186.112 190.277 188.551 191.682 189.367C193.551 190.458 195.256 189.681 197.117 189.121C198.861 188.6 200.194 188.905 201.946 187.833C204.186 186.456 206.151 184.146 208.297 182.248C210.182 180.586 212.509 178.688 214.513 179.544C215.215 179.839 216.359 180.183 216.975 181.039C217.069 181.166 217.156 181.294 217.227 181.442C217.243 181.422 217.259 181.402 217.275 181.383C217.606 181.039 217.866 180.331 218.206 179.996C219.16 179.052 221.882 178.207 222.821 180.596C225.756 180.311 228.69 179.042 231.625 178.964C234.568 178.885 237.487 177.843 240.43 178.089C242.836 178.167 245.069 179.662 246.449 182.12C247.175 183.349 248.043 184.922 248.745 186.378C249.092 185.748 249.534 185.08 249.652 184.775C251.348 180.124 251.396 172.022 252.319 166.26C252.729 163.684 253.4 162.435 254.062 160.459C255.932 154.844 255.214 153.025 253.589 148.718C252.611 146.122 251.751 143.241 252.895 139.938C253.447 138.345 254.48 138.315 255.009 136.899C255.364 135.955 255.972 129.417 255.79 128.217C255.743 127.922 255.719 127.617 255.711 127.312C255.38 123.458 254.48 120.597 254.275 116.575C254.07 112.455 254.094 108.561 253.597 104.53C253.139 100.794 251.735 96.2115 251.782 92.1014C251.814 90.3217 252.161 88.5616 252.792 86.9687C252.413 85.9756 252.319 84.5302 252.761 82.5637C253.029 81.8065 253.344 81.0789 253.699 80.3808C254.567 78.5224 254.717 79.0829 254.835 76.9295C255.198 70.1842 253.297 70.8135 252.548 66.1823C252.248 64.4026 252.413 62.554 253.029 60.9021C254.299 57.3525 256.185 58.0998 256.106 51.6495C256.074 48.9652 255.814 46.4972 255.719 43.9013C255.309 43.4785 254.985 42.7214 254.867 41.335C254.835 40.6369 254.883 39.9289 255.009 39.2406C254.883 39.7126 254.899 39.2308 254.946 38.7588C255.009 38.1787 255.112 37.5887 255.056 38.749C255.049 38.926 255.025 39.0833 255.009 39.2406C255.025 39.1816 255.041 39.1325 255.056 39.0636C255.293 37.982 255.585 36.9201 255.924 35.8877C255.585 32.1807 253.849 28.2378 253.644 23.8819C253.589 22.7118 254.062 18.6214 253.849 17.7561C253.526 16.4483 252.003 17.2153 251.419 15.7109C251.356 15.5536 251.301 15.3962 251.262 15.2291C249.534 12.3874 247.112 5.69132 245.376 7.01874C244.414 7.7562 243.641 9.47693 242.591 9.99806C241.479 10.5192 240.248 10.5487 239.12 10.0767C238.552 9.88007 238.023 9.55559 237.55 9.11312C236.793 8.297 237.132 7.51038 236.682 8.18884C236.114 9.05412 235.846 12.3874 235.16 13.6067C233.787 16.0452 232.264 14.9833 230.797 13.823C228.832 12.2694 226.986 13.0757 225.03 11.5713C223.554 10.4405 223.365 11.0797 221.945 11.6008C221.172 11.8565 220.343 11.5025 219.854 10.7159C218.987 9.55559 217.89 4.06892 216.841 4.72772C216.438 4.98337 215.389 10.1357 214.774 11.0895C213.811 12.6726 212.028 13.0364 210.703 11.9253C209.914 11.8565 209.259 11.1387 208.652 9.36877C208.541 9.02462 208.486 8.67064 208.47 8.297C207.886 8.06101 207.113 8.08068 206.419 8.11018C205.851 8.12984 205.338 8.14951 204.999 8.03152C203.879 7.64804 203.011 7.19573 201.859 7.67754C200.896 8.08068 200.163 8.7788 199.184 8.38549C197.985 7.90369 197.046 5.90765 195.839 5.26852C193.725 4.15742 191.981 6.24196 190.088 8.19867C190.009 8.28717 189.954 8.33633 189.907 8.38549C189.859 8.44449 189.812 8.49365 189.749 8.56248C189.465 8.88696 189.22 9.41793 188.936 9.75224C188.471 10.3127 187.84 10.6175 187.185 10.5979C185.063 10.7257 182.948 10.4012 180.913 9.63425C180.006 9.28027 179.224 8.52315 178.341 9.14262C177.473 9.75224 177.015 11.3648 176.014 11.4828C175.209 11.5811 174.728 10.9912 174.018 10.0571C172.779 8.41499 172.156 7.89386 170.759 7.92336C169.781 7.92336 168.826 7.53988 168.037 6.82209C167.083 6.03547 166.444 4.85554 165.308 5.66183C165.008 5.87815 164.787 6.74343 164.472 6.94991C162.878 7.98235 162.389 7.88403 160.992 5.94698C159.162 3.41996 157.505 3.92143 155.675 1.62057C155.178 0.981444 154.957 0.588135 154.768 0.588135C154.531 0.588135 154.342 1.22726 153.663 2.82017Z" fill="url(#paint0_linear)"/>
<path d="M70.5094 148.62V140.239H74.7312V136.017H70.5094V127.669H78.858V123.447H70.5094V115.098H74.7312V110.929H70.5094V102.581H78.858V98.3589H70.5094V90.0103H74.7312V85.7884H70.5094V77.4398H78.858V73.218H70.5094V65.1121H74.7312V60.8903H70.5094V52.6367H78.858V48.4149H70.5094V40.0557H66.2876V150.709C66.2876 151.269 66.51 151.806 66.9059 152.202C67.3017 152.598 67.8387 152.82 68.3985 152.82H191.602V148.598L70.5094 148.62Z" fill="white"/>
<path d="M88.8745 143.111C90.1382 143.922 91.5967 144.379 93.0975 144.434C94.5984 144.488 96.0863 144.139 97.4056 143.421C98.725 142.704 99.8274 141.645 100.597 140.356C101.367 139.066 101.777 137.594 101.783 136.092C101.764 134.716 101.401 133.366 100.727 132.166L117.446 119.627C119.16 120.988 121.343 121.615 123.518 121.372C125.694 121.129 127.684 120.035 129.056 118.329C129.314 117.997 129.544 117.644 129.742 117.273L143.462 121.221C143.462 121.284 143.462 121.358 143.462 121.432C143.539 123.596 144.453 125.646 146.012 127.15C147.57 128.653 149.651 129.494 151.816 129.494C153.982 129.494 156.063 128.653 157.621 127.15C159.18 125.646 160.093 123.596 160.17 121.432C160.152 119.638 159.556 117.899 158.471 116.471L177.058 93.251C178.847 94.2293 180.932 94.5215 182.921 94.0729C184.911 93.6242 186.668 92.4654 187.865 90.8137C189.061 89.162 189.614 87.1308 189.42 85.1006C189.226 83.0704 188.298 81.1806 186.811 79.7855C185.323 78.3903 183.378 77.5854 181.339 77.5217C179.301 77.458 177.309 78.1398 175.738 79.4393C174.166 80.7389 173.122 82.567 172.801 84.5811C172.481 86.5952 172.906 88.657 173.997 90.3802L155.368 113.906C155.027 113.746 154.674 113.612 154.313 113.505C152.537 112.989 150.64 113.079 148.92 113.759C147.201 114.439 145.756 115.672 144.813 117.263L131.093 113.336C131.093 113.262 131.093 113.199 131.093 113.125C131.098 111.314 130.515 109.55 129.432 108.097C128.349 106.645 126.825 105.584 125.087 105.072C123.577 104.621 121.969 104.609 120.453 105.037C118.936 105.465 117.572 106.316 116.521 107.49C115.469 108.664 114.774 110.113 114.515 111.668C114.256 113.223 114.446 114.819 115.06 116.27L98.0041 129.073C97.0824 128.479 96.0527 128.073 94.9739 127.877C93.8951 127.681 92.7882 127.699 91.7165 127.931C90.6447 128.163 89.6292 128.603 88.7277 129.228C87.8263 129.852 87.0567 130.648 86.4627 131.569C85.8688 132.491 85.4623 133.521 85.2663 134.599C85.0703 135.678 85.0887 136.785 85.3205 137.857C85.5523 138.929 85.9929 139.944 86.6172 140.846C87.2415 141.747 88.0372 142.517 88.9589 143.111H88.8745ZM181.121 81.8099C181.956 81.8099 182.772 82.0575 183.467 82.5214C184.161 82.9853 184.702 83.6447 185.021 84.4161C185.341 85.1876 185.425 86.0364 185.262 86.8554C185.099 87.6743 184.697 88.4266 184.106 89.017C183.516 89.6074 182.764 90.0095 181.945 90.1724C181.126 90.3353 180.277 90.2517 179.505 89.9322C178.734 89.6126 178.075 89.0715 177.611 88.3772C177.147 87.683 176.899 86.8667 176.899 86.0317C176.899 84.912 177.344 83.8382 178.136 83.0465C178.928 82.2547 180.001 81.8099 181.121 81.8099ZM147.98 120.355C148.276 119.352 148.943 118.499 149.844 117.969C150.745 117.438 151.814 117.27 152.835 117.497C153.856 117.725 154.752 118.331 155.343 119.194C155.934 120.058 156.175 121.113 156.017 122.147C155.859 123.181 155.315 124.116 154.494 124.764C153.673 125.412 152.637 125.724 151.595 125.638C150.553 125.551 149.582 125.072 148.88 124.297C148.177 123.522 147.795 122.509 147.811 121.463C147.809 121.087 147.866 120.713 147.98 120.355ZM118.754 111.911C119.11 111.034 119.75 110.302 120.572 109.833C121.394 109.363 122.349 109.184 123.286 109.322C124.222 109.461 125.084 109.911 125.734 110.598C126.384 111.286 126.785 112.172 126.871 113.115C126.872 113.494 126.815 113.871 126.702 114.233C126.281 115.157 125.541 115.898 124.618 116.32C123.695 116.743 122.651 116.819 121.677 116.534C120.703 116.25 119.863 115.624 119.313 114.771C118.763 113.918 118.538 112.895 118.68 111.89L118.754 111.911ZM93.529 131.965C94.3662 131.965 95.1845 132.214 95.8799 132.68C96.5753 133.147 97.1163 133.809 97.4342 134.584C97.7522 135.358 97.8326 136.21 97.6654 137.03C97.4982 137.85 97.0908 138.603 96.4951 139.191C95.8994 139.779 95.1422 140.177 94.3198 140.334C93.4974 140.491 92.6469 140.4 91.8765 140.072C91.106 139.744 90.4504 139.195 89.9929 138.494C89.5354 137.793 89.2967 136.971 89.3072 136.134C89.3211 135.024 89.772 133.963 90.5622 133.183C91.3525 132.403 92.4184 131.965 93.529 131.965Z" fill="white"/>
<path d="M93.4766 113.125C95.0892 113.131 96.6688 112.668 98.0231 111.792C99.3774 110.917 100.448 109.667 101.104 108.194C101.761 106.721 101.975 105.089 101.721 103.496C101.466 101.904 100.755 100.42 99.6721 99.2245L120.148 66.7587C121.422 67.199 122.786 67.3108 124.114 67.0839C125.442 66.8569 126.692 66.2986 127.747 65.4605L144.297 78.4742C143.733 79.7435 143.497 81.1335 143.608 82.5177C143.719 83.9019 144.174 85.2364 144.933 86.3996C145.691 87.5629 146.728 88.518 147.95 89.1782C149.172 89.8383 150.539 90.1824 151.928 90.1792C154.139 90.1792 156.26 89.3007 157.823 87.7371C159.387 86.1734 160.266 84.0525 160.266 81.8411C160.266 81.0806 160.16 80.3238 159.949 79.593L175 70.78C175.78 71.6323 176.729 72.3128 177.787 72.778C178.844 73.2432 179.987 73.483 181.142 73.482C182.795 73.4778 184.41 72.9837 185.782 72.0622C187.154 71.1407 188.222 69.8331 188.851 68.3046C189.48 66.7762 189.642 65.0956 189.317 63.4752C188.991 61.8548 188.192 60.3673 187.021 59.2008C185.85 58.0343 184.36 57.241 182.738 56.9214C181.116 56.6018 179.436 56.77 177.91 57.405C176.384 58.0399 175.081 59.1129 174.164 60.4885C173.248 61.8641 172.76 63.4805 172.762 65.1333C172.763 65.7917 172.844 66.4474 173.005 67.0859L157.828 75.9728C157.05 75.1839 156.123 74.5574 155.101 74.1298C154.079 73.7022 152.983 73.482 151.875 73.482C150.062 73.4892 148.302 74.098 146.872 75.2129L130.344 62.1886C130.953 60.8082 131.178 59.2884 130.992 57.7907C130.807 56.2931 130.22 54.8736 129.292 53.6833C128.365 52.4929 127.132 51.5763 125.725 51.0308C124.318 50.4853 122.789 50.3314 121.302 50.5854C119.814 50.8395 118.423 51.4919 117.277 52.4734C116.131 53.4549 115.272 54.7288 114.792 56.1595C114.312 57.5902 114.229 59.1242 114.551 60.5984C114.873 62.0727 115.589 63.4319 116.623 64.5317L96.1891 96.9658C95.319 96.6513 94.4017 96.4871 93.4766 96.4803C92.3802 96.4803 91.2946 96.6962 90.2817 97.1158C89.2688 97.5353 88.3484 98.1503 87.5732 98.9255C86.7979 99.7008 86.183 100.621 85.7634 101.634C85.3439 102.647 85.1279 103.733 85.1279 104.829C85.1279 105.925 85.3439 107.011 85.7634 108.024C86.183 109.037 86.7979 109.957 87.5732 110.732C88.3484 111.508 89.2688 112.122 90.2817 112.542C91.2946 112.962 92.3802 113.178 93.4766 113.178V113.125ZM181.164 60.9326C181.76 60.8532 182.366 60.9021 182.942 61.0761C183.518 61.2501 184.05 61.545 184.502 61.9413C184.955 62.3375 185.317 62.8259 185.566 63.3737C185.814 63.9215 185.943 64.516 185.943 65.1175C185.943 65.719 185.814 66.3135 185.566 66.8613C185.317 67.4091 184.955 67.8974 184.502 68.2937C184.05 68.6899 183.518 68.9849 182.942 69.1589C182.366 69.3328 181.76 69.3818 181.164 69.3024C180.427 69.3025 179.704 69.1071 179.068 68.7363C178.432 68.3654 177.906 67.8323 177.543 67.1915C177.184 66.5455 176.992 65.8198 176.984 65.0805C176.984 63.9609 177.429 62.887 178.221 62.0953C179.012 61.3035 180.086 60.8587 181.206 60.8587L181.164 60.9326ZM151.938 77.651C152.773 77.651 153.589 77.8986 154.284 78.3625C154.978 78.8264 155.519 79.4858 155.839 80.2572C156.158 81.0286 156.242 81.8775 156.079 82.6964C155.916 83.5154 155.514 84.2676 154.923 84.8581C154.333 85.4485 153.581 85.8506 152.762 86.0135C151.943 86.1764 151.094 86.0928 150.322 85.7732C149.551 85.4537 148.892 84.9126 148.428 84.2183C147.964 83.524 147.716 82.7078 147.716 81.8728C147.716 80.7531 148.161 79.6793 148.953 78.8875C149.745 78.0958 150.818 77.651 151.938 77.651ZM122.702 54.6738C123.539 54.6738 124.358 54.9228 125.053 55.3891C125.748 55.8554 126.289 56.5179 126.607 57.2924C126.925 58.0669 127.006 58.9185 126.838 59.7388C126.671 60.5592 126.264 61.3113 125.668 61.8996C125.072 62.4879 124.315 62.8857 123.493 63.0426C122.67 63.1995 121.82 63.1083 121.05 62.7807C120.279 62.453 119.623 61.9037 119.166 61.2025C118.708 60.5014 118.47 59.68 118.48 58.8428C118.494 57.7323 118.945 56.672 119.735 55.8916C120.526 55.1112 121.591 54.6737 122.702 54.6738ZM93.4766 100.607C94.3116 100.607 95.1278 100.855 95.8221 101.319C96.5163 101.783 97.0575 102.442 97.377 103.213C97.6965 103.985 97.7802 104.834 97.6173 105.653C97.4544 106.471 97.0523 107.224 96.4618 107.814C95.8714 108.405 95.1192 108.807 94.3002 108.97C93.4813 109.132 92.6324 109.049 91.861 108.729C91.0895 108.41 90.4302 107.869 89.9663 107.174C89.5024 106.48 89.2548 105.664 89.2548 104.829C89.2548 103.709 89.6995 102.635 90.4913 101.844C91.283 101.052 92.3569 100.607 93.4766 100.607Z" fill="white"/>
<defs>
<linearGradient id="paint0_linear" x1="128.251" y1="346.69" x2="128.251" y2="20.5693" gradientUnits="userSpaceOnUse">
<stop offset="0.310183" stop-color="#03D932"/>
<stop offset="1" stop-color="#198B2C"/>
</linearGradient>
</defs>
</svg>
