<svg width="256" height="191" viewBox="0 0 256 191" fill="none" xmlns="http://www.w3.org/2000/svg">
<path d="M142.85 186.525C142.858 186.525 142.858 186.525 142.85 186.525C142.858 186.525 142.858 186.525 142.85 186.525ZM153.484 2.82017C153.027 3.90177 152.68 5.15052 152.262 6.27146C151.299 8.8378 150.313 10.1259 148.893 9.77191C144.735 8.76897 140.885 12.997 136.704 13.7247C133.864 14.2261 130.44 15.0914 127.615 14.0983C126.148 13.5772 126.022 12.7217 125.201 9.76208C123.884 4.9932 121.556 6.45828 119.229 7.92336C117.849 8.78864 116.46 9.66375 115.292 9.23111C112.87 8.3265 110.977 4.91454 108.634 8.06101C107.001 10.2537 105.983 9.83091 104.271 9.44743C103.245 9.21144 103.49 8.00202 102.449 9.9784C102.236 10.3914 102.149 11.4238 101.92 11.8761C101.447 12.8299 101.107 13.5083 100.492 13.9705C98.7959 15.2487 96.721 13.4199 95.0248 12.5546C93.3838 11.7188 90.9776 12.2596 89.5338 10.2144C89.0132 9.4671 88.8001 8.34616 88.3899 7.29406C87.4511 4.90471 87.3564 4.28524 86.5675 6.41895C86.9225 5.45534 86.1967 8.31667 85.96 8.8968C85.605 9.84074 84.9896 10.5979 84.2243 11.0305C82.536 11.9154 81.9443 8.97546 80.4138 8.34616C79.333 7.89386 78.1417 7.97252 76.9583 8.05118C76.0984 8.11018 75.2463 8.15934 74.4337 8.01185C72.5719 7.67754 70.8757 3.95093 68.998 4.90471C66.9862 5.92731 65.3453 9.76208 63.2309 10.3225C62.1817 10.5979 61.1639 10.1062 60.1541 9.62442C59.1206 9.12295 58.095 8.63131 57.0457 8.93613C56.0832 9.22128 55.3416 10.1161 54.3792 9.51626C53.6297 9.04429 53.0459 7.46122 52.4068 7.16624C52.1544 7.04824 51.823 7.2154 51.4759 7.39239C51.1603 7.54971 50.829 7.71687 50.5528 7.63821C49.7008 7.39239 48.9592 5.88798 48.1387 5.58316C47.4681 5.33735 46.908 5.49467 46.3873 5.65199C45.6063 5.87815 44.8883 6.11413 43.9337 5.0522C42.845 3.8526 40.6439 1.22726 39.35 1.05027C37.9142 0.863451 37.1568 7.32356 35.5237 8.52315C34.9399 8.95579 34.4429 8.85747 33.8512 8.84763C32.226 8.81813 30.9322 9.44743 29.4253 11.0108C26.2538 14.295 22.3013 14.8259 18.8931 13.8132C16.7393 13.174 17.3468 10.942 15.9741 7.53988C14.7591 4.5114 12.7947 6.91058 11.2878 8.54282C11.272 8.56248 11.2642 8.58215 11.2405 8.60181L11.0985 8.75914V8.73947C10.9407 8.90663 10.7908 9.06395 10.6488 9.20161C10.4042 9.47693 10.0729 9.56542 9.7573 9.45726C8.61335 9.63425 7.78497 8.71981 6.79881 7.88403C6.46746 8.47399 6.00988 8.98529 5.46552 9.3196C5.37874 11.2173 5.0395 13.0855 4.45569 14.8456C3.50898 17.6774 2.72794 20.5781 2.09679 23.5377C1.44198 26.753 1.95478 28.4738 1.59977 31.5318C1.40253 33.2132 0.913398 34.1178 0.534711 35.3567C0.582047 35.7107 0.605715 36.0646 0.605715 36.4186C0.629383 37.2937 0.534711 38.1689 0.32959 39.0145C0.739833 43.3409 1.70233 45.6909 3.14607 48.975C4.73182 52.5836 3.52475 53.8816 3.59576 58.9454C3.65098 62.4065 4.34524 65.7005 4.49514 69.1715C4.62926 72.0623 4.51881 74.727 4.83438 77.5785C5.43396 82.9668 5.52075 87.4407 5.65486 92.8094C6.68836 94.4711 6.6568 97.0669 5.78898 99.0925C5.85999 103.045 6.08089 108.522 5.64697 111.767C5.19728 115.09 4.06912 114.874 3.16974 116.821C1.01596 121.452 3.31963 129.053 3.7141 134.854C4.26635 142.848 2.74371 149.033 2.46759 156.742C2.31769 160.98 3.7851 164.225 4.36102 167.922C5.06317 172.484 4.83438 177.656 6.96449 179.809C7.50885 180.36 8.15577 180.34 8.81058 180.331C9.64685 180.311 10.4831 180.291 11.1064 181.461C12.1399 183.408 11.3746 185.827 11.9979 188.059C13.0077 191.707 16.5579 186.142 17.9622 185.316C19.8714 184.185 21.0153 183.457 22.7746 181.098C23.5872 180.006 24.4787 179.111 25.4175 179.652C26.7193 180.399 27.2794 183.487 27.9263 186.299C28.4391 186.132 28.952 186.112 29.3938 185.975C30.8848 185.493 32.3759 181.992 33.938 183.674C35.0425 184.863 35.0819 188.393 36.2653 189.337C36.7466 189.721 37.4408 189.455 38.1035 189.19C38.5374 189.013 38.9635 188.836 39.2948 188.846C40.2494 188.915 41.1961 188.728 42.0876 188.305C42.8923 187.941 43.5708 187.341 44.415 187.98C45.2197 188.59 45.7088 189.672 46.5214 189.809C47.0658 189.898 47.6417 189.849 48.2255 189.799C48.6831 189.76 49.1407 189.721 49.5746 189.75C50.7501 189.829 51.4917 188.836 52.5883 188.433C53.1248 188.236 53.5981 188.364 54.0557 188.492C54.7499 188.688 55.4126 188.875 56.2252 187.941C57.7794 186.152 58.5763 182.71 60.5012 183.723C60.9588 183.9 61.3533 184.254 61.6294 184.745C61.7083 184.903 61.7714 185.06 61.8345 185.217C62.9706 184.087 64.2881 183.979 65.0455 186.102C65.7003 186.899 66.0474 188.295 66.931 189.396C68.4615 191.284 70.8678 190.055 72.4851 189.505C74.8361 188.708 76.9899 187.194 78.7571 185.099C80.4927 183.113 82.2441 180.557 84.1297 179.691C85.0606 179.269 85.7549 179.455 86.6779 179.898C87.3248 179.927 87.5142 180.331 87.2302 181.098C87.6089 180.694 87.9875 180.311 88.3662 179.957C89.4234 179.367 90.6068 179.632 91.7744 179.898C92.5633 180.075 93.3523 180.262 94.0939 180.173C97.9123 179.731 102.101 176.968 105.92 178.158C107.782 178.61 109.383 180.065 110.306 182.13C111.08 183.831 111.308 185.965 112.287 187.086C112.334 186.899 112.397 186.663 112.484 186.368C114.29 179.859 117.478 177.99 119.347 184.48C120.136 187.233 119.908 189.868 121.588 189.681C122.29 189.603 123.142 188.393 123.829 187.813C126.109 185.876 128.428 185.739 130.684 184.018C133.611 181.786 135.663 176.407 137.943 180.478C138.4 180.124 138.976 180.085 139.465 180.37C140.428 180.93 140.822 182.366 141.13 183.467C141.319 184.155 141.8 186.997 141.445 184.775C141.438 184.726 141.698 185.424 141.769 185.65C141.816 185.798 141.856 185.945 141.887 186.102C142.266 186.388 142.629 186.624 142.85 186.515C142.376 186.732 144.033 183.172 144.049 183.133C144.964 181.333 145.848 179.829 147.094 180.34C148.696 180.999 148.522 183.054 149.279 186.073C150.258 189.937 151.599 189.426 153.051 189.003C154.281 186.338 155.701 186.358 157.24 187.715C156.703 187.233 157.153 187.499 157.595 188.138C158.573 187.046 159.315 185.306 160.766 186.161C161.405 186.535 162.005 187.44 161.965 189.357C161.958 189.839 165.287 189.475 168.458 189.111C171.038 188.816 173.515 188.521 173.973 188.679C175.417 189.2 175.29 188.964 176.419 187.263C177.357 185.866 178.446 184.637 179.653 183.605C181.436 182.061 182.367 183.113 183.685 185.394C184.174 185.139 184.726 185.168 185.192 185.473C186.107 184.136 186.975 183.153 188.213 184.627C189.46 186.112 190.099 188.551 191.503 189.367C193.373 190.458 195.077 189.681 196.939 189.121C198.682 188.6 200.016 188.905 201.767 187.833C204.008 186.456 205.972 184.146 208.118 182.248C210.003 180.586 212.331 178.688 214.335 179.544C215.037 179.839 216.181 180.183 216.796 181.039C216.891 181.166 216.978 181.294 217.049 181.442C217.064 181.422 217.08 181.402 217.096 181.383C217.427 181.039 217.688 180.331 218.027 179.996C218.981 179.052 221.703 178.207 222.642 180.596C225.577 180.311 228.512 179.042 231.446 178.964C234.389 178.885 237.308 177.843 240.251 178.089C242.657 178.167 244.89 179.662 246.27 182.12C246.996 183.349 247.864 184.922 248.566 186.378C248.913 185.748 249.355 185.08 249.474 184.775C251.17 180.124 251.217 172.022 252.14 166.26C252.55 163.684 253.221 162.435 253.884 160.459C255.753 154.844 255.035 153.025 253.41 148.718C252.432 146.122 251.572 143.241 252.716 139.938C253.268 138.345 254.302 138.315 254.83 136.899C255.185 135.955 255.793 129.417 255.611 128.217C255.564 127.922 255.54 127.617 255.533 127.312C255.201 123.458 254.302 120.597 254.097 116.575C253.892 112.455 253.915 108.561 253.418 104.53C252.961 100.794 251.556 96.2115 251.604 92.1014C251.635 90.3217 251.982 88.5616 252.613 86.9687C252.235 85.9756 252.14 84.5302 252.582 82.5637C252.85 81.8065 253.166 81.0789 253.521 80.3808C254.389 78.5224 254.538 79.0829 254.657 76.9295C255.02 70.1842 253.118 70.8135 252.369 66.1823C252.069 64.4026 252.235 62.554 252.85 60.9021C254.12 57.3525 256.006 58.0998 255.927 51.6495C255.895 48.9652 255.635 46.4972 255.54 43.9013C255.13 43.4785 254.807 42.7214 254.688 41.335C254.657 40.6369 254.704 39.9289 254.83 39.2406C254.704 39.7126 254.72 39.2308 254.767 38.7588C254.83 38.1787 254.933 37.5887 254.878 38.749C254.87 38.926 254.846 39.0833 254.83 39.2406C254.846 39.1816 254.862 39.1325 254.878 39.0636C255.114 37.982 255.406 36.9201 255.745 35.8877C255.406 32.1807 253.671 28.2378 253.466 23.8819C253.41 22.7118 253.884 18.6214 253.671 17.7561C253.347 16.4483 251.825 17.2153 251.241 15.7109C251.178 15.5536 251.122 15.3962 251.083 15.2291C249.355 12.3874 246.933 5.69132 245.198 7.01874C244.235 7.7562 243.462 9.47693 242.413 9.99806C241.3 10.5192 240.069 10.5487 238.941 10.0767C238.373 9.88007 237.845 9.55559 237.371 9.11312C236.614 8.297 236.953 7.51038 236.504 8.18884C235.936 9.05412 235.667 12.3874 234.981 13.6067C233.608 16.0452 232.086 14.9833 230.618 13.823C228.654 12.2694 226.808 13.0757 224.851 11.5713C223.376 10.4405 223.186 11.0797 221.766 11.6008C220.993 11.8565 220.165 11.5025 219.676 10.7159C218.808 9.55559 217.711 4.06892 216.662 4.72772C216.26 4.98337 215.21 10.1357 214.595 11.0895C213.632 12.6726 211.849 13.0364 210.524 11.9253C209.735 11.8565 209.08 11.1387 208.473 9.36877C208.362 9.02462 208.307 8.67064 208.291 8.297C207.708 8.06101 206.934 8.08068 206.24 8.11018C205.672 8.12984 205.159 8.14951 204.82 8.03152C203.7 7.64804 202.832 7.19573 201.68 7.67754C200.718 8.08068 199.984 8.7788 199.006 8.38549C197.807 7.90369 196.868 5.90765 195.661 5.26852C193.546 4.15742 191.803 6.24196 189.909 8.19867C189.83 8.28717 189.775 8.33633 189.728 8.38549C189.681 8.44449 189.633 8.49365 189.57 8.56248C189.286 8.88696 189.042 9.41793 188.758 9.75224C188.292 10.3127 187.661 10.6175 187.006 10.5979C184.884 10.7257 182.77 10.4012 180.734 9.63425C179.827 9.28027 179.046 8.52315 178.162 9.14262C177.294 9.75224 176.837 11.3648 175.835 11.4828C175.03 11.5811 174.549 10.9912 173.839 10.0571C172.6 8.41499 171.977 7.89386 170.581 7.92336C169.602 7.92336 168.648 7.53988 167.859 6.82209C166.904 6.03547 166.265 4.85554 165.129 5.66183C164.829 5.87815 164.608 6.74343 164.293 6.94991C162.699 7.98235 162.21 7.88403 160.814 5.94698C158.983 3.41996 157.327 3.92143 155.496 1.62057C154.999 0.981444 154.778 0.588135 154.589 0.588135C154.352 0.588135 154.163 1.22726 153.484 2.82017Z" fill="url(#paint0_linear)"/>
<path d="M72.5492 120.809L44.1181 96.125L85.0859 60.4171C87.7101 58.1252 88.9134 55.8333 86.3121 53.4039C83.7108 50.9745 81.648 52.5788 78.829 54.8936L36.0506 92.435C35.4603 92.9085 34.9839 93.5086 34.6565 94.1909C34.3291 94.8732 34.1592 95.6203 34.1592 96.3771C34.1592 97.1338 34.3291 97.881 34.6565 98.5633C34.9839 99.2456 35.4603 99.8456 36.0506 100.319L78.7832 137.815C80.1927 138.961 81.8887 140.737 83.7222 140.737C84.3833 140.736 85.0356 140.586 85.6308 140.298C86.2259 140.011 86.7486 139.593 87.1601 139.075C88.7988 136.394 87.6185 134.812 84.9942 132.509" fill="white"/>
<path d="M182.125 72.0486L210.556 96.7324L169.634 132.44C167.01 134.732 165.807 137.081 168.408 139.465C171.01 141.848 173.061 140.279 175.891 137.964L218.624 100.457C219.142 100.041 219.572 99.5282 219.892 98.9463C220.211 98.3645 220.413 97.7254 220.485 97.0657C220.557 96.4059 220.499 95.7383 220.313 95.1011C220.128 94.4639 219.818 93.8695 219.403 93.3518C219.173 93.0678 218.911 92.8103 218.624 92.584L175.891 55.0885C174.482 53.9425 172.786 52.1778 170.941 52.1778C170.28 52.1749 169.628 52.3219 169.032 52.6077C168.437 52.8935 167.914 53.3107 167.503 53.8279C165.864 56.5209 167.045 58.0909 169.669 60.3942" fill="white"/>
<path d="M151.723 40.5238C151.089 40.2307 150.401 40.072 149.702 40.0577C149.003 40.0434 148.309 40.1738 147.664 40.4407C147.018 40.7077 146.434 41.1053 145.95 41.6087C145.465 42.1121 145.09 42.7103 144.847 43.3658L100.763 145.722C99.5251 148.61 100.339 150.902 103.708 152.334C103.943 152.455 104.188 152.555 104.441 152.632C105.677 152.978 106.997 152.847 108.141 152.265C109.285 151.684 110.169 150.694 110.618 149.492L154.519 47.3652C155.86 43.8585 155.001 41.7729 151.723 40.4894" fill="white"/>
<defs>
<linearGradient id="paint0_linear" x1="128.129" y1="0.588135" x2="128.129" y2="190.409" gradientUnits="userSpaceOnUse">
<stop stop-color="#1451C6"/>
<stop offset="1" stop-color="#4583FC"/>
</linearGradient>
</defs>
</svg>
