<svg width="1289" height="554" viewBox="0 0 1289 554" fill="none" xmlns="http://www.w3.org/2000/svg">
<path d="M151.306 405.846L214.497 369.484V296.756L151.306 260.392L87.7715 296.756V369.484L151.306 405.846Z" fill="#5BCBF0"/>
<path d="M214.153 442.208L277.688 406.188L278.033 333.119L214.499 296.755L150.963 332.775L150.617 405.845L214.153 442.208Z" fill="#77C696"/>
<path d="M341.22 442.895L404.755 406.532L405.1 333.805L341.566 297.097L278.03 333.461L277.686 406.188L341.22 442.895Z" fill="#FCD63C"/>
<path d="M277.685 478.916L341.22 442.896V369.826L278.03 333.118L214.494 369.482L214.15 442.21L277.685 478.916Z" fill="#ED1D69"/>
<path d="M341.224 369.824L404.759 333.803L405.105 260.734L341.569 224.027L278.033 260.391V333.46L341.224 369.824Z" fill="#B23566"/>
<path d="M214.841 224.37L278.377 188.006V115.279L214.841 78.9155L151.307 115.279V188.006L214.841 224.37Z" fill="#FCD63C"/>
<path d="M278.38 260.733L341.571 224.371V151.644L278.38 115.28L214.846 151.644V224.371L278.38 260.733Z" fill="#77C696"/>
<path d="M341.568 297.097L405.104 260.734V188.007L341.568 151.643L278.377 188.007V260.734L341.568 297.097Z" fill="#5BCBF0"/>
<path d="M151.306 333.117L214.497 296.753V224.027L151.306 187.663L87.7715 224.027V296.753L151.306 333.117Z" fill="#B23566"/>
<path d="M151.654 260.733L214.844 224.371V151.644L151.654 115.28L88.1191 151.644V224.371L151.654 260.733Z" fill="#ED1D69"/>
<path d="M566.777 262.956V185.004H515.705V406.018H566.777V382.722C576.035 397.356 593.657 408.407 618.148 408.407C659.065 408.407 691.62 374.956 691.62 322.391C691.62 269.826 659.364 236.972 618.148 236.972C594.254 236.972 576.035 248.023 566.777 262.956ZM639.652 322.391C639.652 348.972 622.329 363.906 602.915 363.906C583.801 363.906 566.478 349.271 566.478 322.69C566.478 296.108 583.801 281.474 602.915 281.474C622.329 281.474 639.652 295.81 639.652 322.391ZM769.485 328.663C769.485 299.991 783.522 291.628 807.715 291.628H821.752V237.57C799.352 237.57 781.133 249.516 769.485 267.138V239.362H718.413V406.018H769.485V328.663ZM846.163 406.018H897.235V239.362H846.163V406.018ZM871.848 222.039C889.768 222.039 902.014 209.794 902.014 194.562C902.014 179.031 889.768 166.786 871.848 166.786C853.63 166.786 841.384 179.031 841.384 194.562C841.384 209.794 853.63 222.039 871.848 222.039ZM934.246 406.018H985.318V336.13L1036.09 406.018H1099.41L1029.52 322.988L1098.81 239.362H1035.79L985.318 307.159V185.004H934.246V406.018ZM1118.87 406.018H1169.94V185.004H1118.87V406.018Z" fill="black"/>
</svg>
