<svg id="Layer_1" data-name="Layer 1" xmlns="http://www.w3.org/2000/svg" viewBox="0 0 568.52 120.37"><defs><style>.cls-1{fill:#f15a29;}.cls-2{fill:#f7941e;}</style></defs><title>camphub-long-color</title><path d="M13.92,91.38Q3.08,80.58,3.07,64.3,3.12,48.39,14,37.53T40.8,26.67q16.17,0,27.76,10.08l-10.08,11a27.85,27.85,0,0,0-17.68-6q-10.17,0-16.4,6.34T18.18,64.2q.06,10.53,6.3,16.73T40.9,87.12a27.1,27.1,0,0,0,17.58-6l10.08,11Q57,102.24,40.8,102.23,24.78,102.19,13.92,91.38Z"/><path d="M187.94,102.23V26.67h5L225.72,64l32.8-37.28h5v75.56H248.44l-.05-43.82L225.72,83.6,203.05,58.41v43.82Z"/><path d="M278.62,102.23V26.67h32.94Q338,26.67,338,48.43,338,71,311.61,71H293.73v31.23ZM293.73,56.9h21.16q9.12-.15,9.37-8.31Q324,41.13,315,40.83H293.73Z"/><path class="cls-1" d="M84,62.33c-.16.47-.33.93-.48,1.4,0,0-2.34,6.63-5.75,21.89a88.1,88.1,0,0,0-1.67,12.62c-.3,5.93-.57,14,6.59,16.08.61.17,1.22.31,1.83.47l2.35.55c2.79.59,12.17,1.81,15,2.14l0-13.92,12.77-25.39Z"/><path class="cls-2" d="M136.37,35.06a12.74,12.74,0,0,0-1.65-2.38c-3.71-5-9.36-7.73-17.55-8.71-8-1-14,4.29-18.59,10.08A80.54,80.54,0,0,0,89,49.77l31.4,17Z"/><path class="cls-1" d="M141,52.51l-9.66,20.25,12.08,6.55-.26-6A190.74,190.74,0,0,0,141,52.51Z"/><path class="cls-2" d="M101.87,117.48c8.62.69,25.31,1.14,33.56-1.79,5.73-2,7.32-3.72,8-10.08a109,109,0,0,0,.5-12.37L126,84l-11.8,24.73Z"/><path d="M177.35,99c-3.3-18.49-7.82-39.74-12.47-57.94A113.77,113.77,0,0,0,159.4,24c-2.29-5.29-5.7-6.67-10.94-4.52a22.42,22.42,0,0,0-5,3.1c-.79.61-1.39,2-2.7,1.21s-.84-2-.84-3a29,29,0,0,0-.88-6.64c-2.12-9-14-12.66-20.58-6.35-3,2.89-4.45,6.38-5.65,10.42-.21.73-.8,3.12.24,2.79a21.89,21.89,0,0,1,7.94-.42c.85-6,2.62-7.92,7.5-7.62,2.76.17,5.21,4.43,4.08,7-.45,1-1.25.74-2,.74a41.21,41.21,0,0,0-7.4.31,21.8,21.8,0,0,1,4.21,1.15,23.38,23.38,0,0,1,11.32,8.33,27.71,27.71,0,0,1,5.21,11.62c.2,1.07.4,2.15.59,3.22a183,183,0,0,1,2.88,24.27c.17,4,.38,8.06.54,12.09.17,4.55.26,9.1.13,13.65A109.34,109.34,0,0,1,147,108c-.26,1.8.22,2,1.64,1.43a8.82,8.82,0,0,0,5.93-7.61c.11-1,.17-2,.2-3l12,6.2c2.52,1.93,5.16,1.37,7.68-.28C176.46,103.43,177.86,101.82,177.35,99ZM154.53,78.92a280.19,280.19,0,0,0-4.66-38.32c-.3-1.48-.64-3-1-4.4l.53-1.13,13.18,54.58h0l-6.93-3.76C154.63,85.07,154.6,80,154.53,78.92Z"/><path d="M411.44,26.94v75.29H396V68.37H362.83v33.86H347.42V26.94h15.41V53.82H396V26.94Z"/><path d="M489.61,26.89V67.74c0,19.37-12.37,34.49-32.06,34.49-19.12,0-32-14.85-32-34.49V26.89H441V67c0,10.08,4.94,20.69,16.59,20.69,11,0,16.55-9.82,16.55-20.69V26.89Z"/><path d="M552.22,61.6c6.5,3.72,11.55,9.81,11.55,18.06,0,13.65-9.69,22.57-22.42,22.57H503.77V27h30.67c12.42,0,22.37,8.83,22.37,22.53A19.24,19.24,0,0,1,552.22,61.6ZM519.18,41V57.5H534.6c4-.42,8.14-3.31,8.14-8.24,0-5.1-4.38-8.25-9.23-8.25Zm20.21,47c4.48,0,9.28-2.94,9.28-8.67,0-5.3-4.38-8.61-9.23-8.61H519.18V88Z"/></svg>