<svg width="165" height="75" viewBox="0 0 165 75" fill="none" xmlns="http://www.w3.org/2000/svg">
<path d="M3.29002 48.0574C1.171 46.0151 0.112305 43.4579 0.112305 40.3826C0.122153 37.3741 1.18413 34.8455 3.29659 32.7937C5.41069 30.7419 8.03033 29.7168 11.1572 29.7168C14.3135 29.7168 17.0218 30.6688 19.2836 32.5728L16.3341 35.6989C14.8289 34.5562 13.1038 33.9857 11.1572 33.9857C9.17109 33.9952 7.57239 34.5944 6.35776 35.7848C5.14314 36.9752 4.53747 38.4977 4.53747 40.354C4.54732 42.3438 5.1612 43.9236 6.38074 45.0949C7.60029 46.2663 9.20228 46.8511 11.1884 46.8511C13.1744 46.8511 14.8897 46.2837 16.3357 45.1521L19.2853 48.2799C17.0333 50.1839 14.325 51.1359 11.1588 51.1359C8.03033 51.1248 5.4074 50.0997 3.29002 48.0574Z" fill="black"/>
<path d="M54.2319 51.1343V29.7168H55.7059L65.2916 40.2825L74.892 29.7168H76.366V51.1343H71.9424L71.9277 38.7123L65.2916 45.8514L58.6555 38.7123V51.1343H54.2319Z" fill="black"/>
<path d="M80.7759 51.1343V29.7168H90.4206C95.5811 29.7168 98.163 31.7718 98.163 35.8849C98.163 40.149 95.5877 42.2819 90.4354 42.2819H85.201V51.1343H80.7759ZM85.1994 38.2832H91.3923C93.1716 38.2546 94.0858 37.4694 94.1351 35.9278C94.0858 34.5181 93.1864 33.7854 91.4367 33.7298H85.1994V38.2832Z" fill="black"/>
<path d="M23.7992 39.8223C23.7516 39.9558 23.7024 40.0877 23.6564 40.2212C23.6564 40.2212 22.9736 42.0982 21.9756 46.4242C21.7327 47.6051 21.5489 48.7987 21.4865 50.0002C21.3979 51.6801 21.3174 53.9782 23.4151 54.5583C23.5924 54.606 23.7729 54.6473 23.9519 54.6902L24.638 54.846C25.4554 55.0129 28.203 55.3593 29.0369 55.4531L29.0516 51.5068L32.7907 44.3105L23.7992 39.8223Z" fill="#F05A29"/>
<path d="M39.1361 32.0931C39.0081 31.869 38.8489 31.6338 38.6519 31.4192C37.5637 30.0095 35.9124 29.2292 33.5144 28.951C31.1672 28.6777 29.4142 30.1669 28.0699 31.8086C26.9521 33.177 26.0395 34.6837 25.2681 36.265L34.4598 41.0918L39.1361 32.0931Z" fill="#F6931E"/>
<path d="M40.5019 37.04L37.6738 42.779L41.2094 44.6353L41.1338 42.9411C41.0288 40.9609 40.8286 38.9917 40.5019 37.04Z" fill="#F05A29"/>
<path d="M29.0356 55.454C31.5584 55.6495 36.4448 55.7782 38.8593 54.9486C40.5368 54.3717 41.003 53.8949 41.195 52.0894C41.3197 50.9213 41.3526 49.7515 41.3427 48.5834L36.1018 45.9658L32.6467 52.9778L29.0356 55.454Z" fill="#F6931E"/>
<path d="M51.1316 50.2159C50.1631 44.9728 48.8402 38.9493 47.4795 33.792C47.0462 32.1487 46.5702 30.5133 45.8759 28.9557C45.2062 27.4554 44.2082 27.0645 42.6735 27.6763C42.1368 27.8893 41.6608 28.2072 41.1996 28.5536C40.9665 28.7285 40.7925 29.1115 40.4068 28.8969C40.0604 28.7046 40.1622 28.3391 40.1622 28.0371C40.1606 27.3966 40.0555 26.7704 39.9061 26.1554C39.2841 23.6109 35.8158 22.5683 33.8806 24.3547C32.991 25.1748 32.5774 26.1649 32.2278 27.3076C32.1637 27.5158 31.993 28.1913 32.2951 28.1007C33.2848 27.8019 34.6209 27.9815 34.6209 27.9815C34.8704 26.273 35.3874 25.7358 36.8154 25.8216C37.623 25.8693 38.3403 27.0772 38.0104 27.8178C37.879 28.1118 37.6443 28.0276 37.4244 28.026C36.927 28.0244 36.3394 27.9688 35.2577 28.1134C36.1195 28.2723 36.1687 28.3454 36.4921 28.4392C37.6476 28.7746 38.8639 29.6105 39.806 30.8025C40.5233 31.7116 41.0814 32.8289 41.3292 34.0956C41.3883 34.4007 41.4474 34.7043 41.5032 35.0094C41.9234 37.2853 42.2402 39.5739 42.3452 41.8879C42.3961 43.0306 42.4585 44.1733 42.5028 45.3161C42.5521 46.6066 42.5783 47.8955 42.5422 49.1844C42.5077 50.3764 42.4191 51.57 42.2418 52.7604C42.1663 53.2721 42.3058 53.3278 42.7195 53.1672C43.7076 52.781 44.3198 52.1072 44.4561 51.009C44.4905 50.7324 44.5069 50.4527 44.5151 50.1698L48.0359 51.9276C48.7729 52.4743 49.5476 52.317 50.2863 51.8465C50.8722 51.473 51.2793 51.0185 51.1316 50.2159ZM44.4511 44.5246C44.2131 40.8771 43.8373 37.2472 43.0871 33.6649C43.0002 33.2453 42.9017 32.8273 42.7818 32.4172L42.9394 32.0978L46.795 47.5681L46.7917 47.5665L44.763 46.5001C44.4807 46.2681 44.4725 44.844 44.4511 44.5246Z" fill="black"/>
<path d="M119.658 29.7939V51.1352H115.131V41.5357H105.429V51.1352H100.917V29.7939H105.429V37.4147H115.131V29.7939H119.658Z" fill="black"/>
<path d="M142.542 29.7778V41.3559C142.542 46.847 138.921 51.1334 133.157 51.1334C127.558 51.1334 123.786 46.9217 123.786 41.3559V29.7778H128.313V41.1477C128.313 44.0053 129.762 47.0123 133.172 47.0123C136.385 47.0123 138.015 44.2294 138.015 41.1477V29.7778H142.542Z" fill="black"/>
<path d="M160.872 39.6157C162.772 40.6726 164.251 42.3986 164.251 44.7349C164.251 48.6048 161.415 51.135 157.687 51.135H146.688V29.8081H155.667C159.304 29.8081 162.216 32.3081 162.216 36.1924C162.214 37.4431 161.717 38.589 160.872 39.6157ZM151.199 33.7814V38.4539H155.711C156.888 38.3347 158.094 37.5162 158.094 36.1177C158.094 34.6746 156.813 33.7814 155.393 33.7814H151.199ZM157.115 47.1014C158.428 47.1014 159.831 46.2686 159.831 44.6459C159.831 43.1424 158.549 42.2047 157.131 42.2047H151.201V47.1014H157.115Z" fill="black"/>
</svg>
