<svg width="100" height="76" viewBox="0 0 100 76" fill="none" xmlns="http://www.w3.org/2000/svg">
<g clip-path="url(#clip0)">
<path d="M17.2956 65.4782C11.9232 65.4782 7.79318 64.1548 4.65263 61.4345C1.56434 58.7284 0 55.0254 0 50.4262C0 48.5522 0.427609 43.8011 4.39487 40.1728C7.33825 37.4786 11.0573 36.2241 16.0971 36.2241C17.848 36.2151 19.5971 36.3341 21.3306 36.5802C21.9969 36.668 22.5956 36.7855 23.174 36.8994C23.787 37.0181 24.3381 37.1285 24.8477 37.1795C25.7421 37.2614 26.0604 37.8644 26.0604 38.3545C26.0558 38.5262 26.0411 38.6974 26.0165 38.8673C25.9773 39.1794 25.9238 39.6162 25.8822 40.3437C25.849 40.904 25.8395 41.6647 25.8312 42.3353V42.3757C25.8205 43.1436 25.8122 43.8082 25.773 44.1975C25.71 45.1898 25.3145 45.693 24.597 45.693C24.0898 45.693 23.4864 45.4271 23.4864 44.1584C23.4373 43.1378 23.0225 42.1689 22.3176 41.4285C21.4244 40.479 18.9645 39.4666 15.6719 39.4666C12.9399 39.4666 11.0394 40.0826 9.52262 41.463C7.46297 43.3477 6.50679 46.0835 6.50679 50.0714C6.50679 58.1504 12.7119 61.9152 16.906 61.9152C20.2034 61.9152 21.6952 61.482 22.8165 60.193C23.3041 59.6077 23.658 58.9232 23.8535 58.1872C23.939 57.735 24.091 56.8888 25.0508 56.8888C25.5473 56.8888 26.1269 57.227 26.1269 58.1753C26.1269 58.6881 25.6863 61.8345 25.3157 63.0937C25.0674 63.9376 24.7621 64.2806 23.9568 64.607C22.3473 65.2491 19.461 65.4782 17.2956 65.4782V65.4782Z" fill="white"/>
<path d="M38.3625 65.4937C36.9086 65.4937 35.5118 65.4545 34.3964 65.4225H34.2954H34.2539C33.5697 65.4023 33.0292 65.3868 32.68 65.3868C32.3308 65.3868 31.6716 65.4082 30.9815 65.4308H30.9292C29.979 65.4616 28.8933 65.496 28.0619 65.496C26.6793 65.496 26.5712 64.6391 26.5712 64.3756C26.5712 64.1121 26.6686 63.3252 27.9134 63.3252C28.3029 63.326 28.6914 63.2834 29.0715 63.1982C29.2805 63.1567 29.4195 62.7567 29.5466 61.8179C29.7224 60.3379 29.7224 57.4562 29.7224 54.1199V47.6704C29.7224 42.104 29.7224 41.1011 29.6511 39.9557C29.587 38.8614 29.4136 38.7143 28.6724 38.5588C28.2514 38.4881 27.8247 38.4571 27.3979 38.4662C26.1542 38.4662 26.02 37.7066 26.02 37.3802C26.02 36.6598 26.5462 36.2954 27.582 36.2954C28.7235 36.2954 30.0027 36.3322 31.0266 36.3631C31.7832 36.3856 32.4437 36.4046 32.8606 36.4046C33.5602 36.4046 34.4047 36.3809 35.3467 36.3524H35.4547C36.3765 36.3251 37.3303 36.2978 38.176 36.2978C43.0662 36.2978 44.9061 38.0223 45.5107 38.5896C46.4669 39.5023 47.5834 41.3361 47.5834 43.4997C47.5834 49.078 43.4724 53.1193 37.8102 53.1193C37.5028 53.1288 37.1951 53.1113 36.8908 53.0671C35.9786 52.8891 35.8432 52.3206 35.8432 51.9989C35.8432 50.8393 37.1842 50.8393 37.6249 50.8393C39.3187 50.8393 41.7822 48.7801 41.7822 45.5518C41.7822 44.1668 41.5838 42.1467 39.8734 40.6227C39.0113 39.8281 37.882 39.3859 36.7091 39.3837C36.3857 39.3782 36.0624 39.398 35.7422 39.443V54.1246C35.7422 57.4609 35.7422 60.3426 35.9192 61.8749C36.038 62.9894 36.2494 63.1318 36.6996 63.1923C37.2859 63.2727 37.8765 63.3187 38.4682 63.33C39.7748 63.33 39.8104 64.2795 39.8104 64.3804C39.8104 64.8979 39.4303 65.5008 38.3589 65.5008L38.3625 65.4937Z" fill="white"/>
<path d="M68.3556 65.4901C67.3733 65.4901 65.3315 65.4901 63.1126 65.4355L62.9713 65.4284C62.508 65.4035 61.5459 65.3524 61.5459 64.4587C61.542 64.2696 61.5959 64.0838 61.7006 63.9262C61.8053 63.7686 61.9556 63.6467 62.1315 63.5769L60.1229 58.2632L54.6198 58.2822L53.2491 61.9615C53.0545 62.4121 52.931 62.8902 52.8833 63.3787C52.8831 63.4045 52.8851 63.4303 52.8892 63.4558V63.4558C53.0014 63.4719 53.1144 63.4806 53.2277 63.4819H53.6423C54.6994 63.4819 54.8135 64.1644 54.8135 64.4575C54.8135 64.6296 54.7541 65.4889 53.5865 65.4889C53.141 65.4889 52.622 65.4687 52.1195 65.4486H52.0684C51.5304 65.426 51.0529 65.4082 50.6573 65.4082C50.5718 65.4082 50.3841 65.4082 50.1276 65.4248H50.0765C49.4481 65.4486 48.3969 65.4877 47.3944 65.4877C46.2387 65.4877 46.1128 64.7661 46.1128 64.4563C46.1128 63.9709 46.4501 63.4807 47.2008 63.4807C47.4158 63.4807 47.7698 63.4546 47.9646 63.4321C48.7283 63.3312 49.1191 62.8802 49.7059 61.4144L56.645 44.067C56.9824 43.254 57.3007 42.4873 58.1203 42.4873C58.9399 42.4873 59.2582 43.26 59.5041 43.8249C59.7904 44.4777 60.7644 46.9203 61.8928 49.7474L62.0032 50.0216C63.4143 53.5632 65.3493 58.414 66.3637 60.8221C67.3555 63.1733 68.0004 63.3252 68.2748 63.3905C68.6002 63.452 68.9307 63.4826 69.2619 63.4819C70.3238 63.4819 70.3772 64.2949 70.3772 64.4575C70.3772 65.4889 69.2524 65.4889 68.3497 65.4889L68.3556 65.4901ZM55.7435 55.3886H59.0432L57.4136 50.9236L55.7435 55.3886Z" fill="white"/>
<path d="M82.4643 65.4604C80.8976 65.4604 79.6765 65.4272 78.5992 65.3975H78.3901L77.6537 65.3797C76.2925 65.3192 75.2959 65.2954 74.2091 65.2954C73.9109 65.2954 73.2909 65.2954 72.6257 65.3239C72.2694 65.3239 71.913 65.3381 71.5804 65.3524H71.5412C71.2182 65.3654 70.9093 65.3797 70.6373 65.3797C69.3771 65.3797 69.3129 64.5145 69.3129 64.3412C69.3129 64.1679 69.3711 63.3584 70.5245 63.3584C70.8118 63.3588 71.0983 63.327 71.3785 63.2635C71.4593 63.2077 71.5412 62.9074 71.6161 62.3377C71.7503 61.2066 71.7503 58.9824 71.7503 56.4034V51.4185C71.7503 47.1173 71.7503 46.3411 71.6945 45.4592C71.6481 44.683 71.546 44.6343 71.0733 44.5346C70.8168 44.4834 70.5555 44.4607 70.2941 44.467C69.1158 44.467 69.0552 43.6243 69.0552 43.4558C69.0552 43.0783 69.2357 42.4457 70.4354 42.4457C71.1802 42.4457 72.0544 42.4718 72.8265 42.4944H72.9025C73.4845 42.5122 73.9953 42.5276 74.3195 42.5276C74.6153 42.5276 75.1736 42.5122 75.8007 42.4944C76.6322 42.4707 77.5503 42.4434 78.1763 42.4434C79.3962 42.4434 79.5269 43.1495 79.5269 43.4534C79.5269 43.6908 79.4354 44.4646 78.2607 44.4646C77.9323 44.4655 77.6044 44.4901 77.2795 44.5382C77.042 44.5821 76.9089 44.607 76.8602 45.4521C76.8056 46.3387 76.8056 47.1137 76.8056 51.4161V56.401C76.8056 59.0513 76.8056 61.5556 77.1441 61.9271C77.4375 62.187 78.0504 62.3603 80.0768 62.3603C81.4725 62.3603 82.3538 62.3342 82.8396 61.8096C83.0677 61.5615 83.3397 60.9242 83.3789 60.5467C83.4977 59.551 84.1617 59.4429 84.4479 59.4429C84.8138 59.4429 85.4291 59.6044 85.4291 60.6797C85.4291 61.0357 85.2259 63.2338 84.9765 64.1394C84.6534 65.3263 83.9277 65.4592 82.4619 65.4592L82.4643 65.4604Z" fill="white"/>
<path d="M97.0494 65.4606C95.485 65.4606 94.2652 65.4274 93.189 65.3977H92.9835L92.2411 65.3788C90.8799 65.3182 89.8822 65.2945 88.7965 65.2945C88.4984 65.2945 87.8772 65.2945 87.2132 65.323C86.8568 65.323 86.5005 65.3372 86.1667 65.3515H86.1275C85.8056 65.3645 85.4968 65.3788 85.2248 65.3788C83.9657 65.3788 83.9016 64.5135 83.9016 64.3402C83.9016 64.167 83.9598 63.3575 85.1108 63.3575C85.3989 63.3586 85.6863 63.3267 85.9672 63.2626C86.0456 63.2068 86.1287 62.8935 86.2047 62.3368C86.339 61.2057 86.339 58.9815 86.339 56.4024V51.4176C86.339 47.1152 86.339 46.3401 86.2831 45.4571C86.238 44.6821 86.1358 44.6334 85.6619 44.5337C85.4059 44.4826 85.1449 44.4599 84.8839 44.4661C83.7044 44.4661 83.645 43.6234 83.645 43.4549C83.645 43.0774 83.8244 42.4448 85.0241 42.4448C85.77 42.4448 86.6454 42.4709 87.4175 42.4935H87.4899C88.0731 42.5113 88.5851 42.5267 88.9153 42.5267C89.2111 42.5267 89.7693 42.5113 90.3965 42.4923H90.5081C91.2873 42.4698 92.1711 42.4448 92.7721 42.4448C93.992 42.4448 94.1238 43.151 94.1238 43.4549C94.1238 43.6922 94.0324 44.4661 92.8564 44.4661C92.5284 44.467 92.2009 44.4916 91.8765 44.5397C91.6389 44.5836 91.5047 44.6085 91.456 45.4524C91.4014 46.3401 91.4014 47.114 91.4014 51.4176V56.4024C91.4014 59.0539 91.4014 61.557 91.7399 61.9297C92.0357 62.1884 92.6486 62.3617 94.6726 62.3617C96.0742 62.3617 96.9591 62.3249 97.4378 61.811C97.6635 61.5641 97.9355 60.9256 97.9759 60.5458C98.0828 59.5524 98.7551 59.4444 99.0449 59.4444C99.4131 59.4444 100.03 59.6058 100.03 60.6811C100.03 61.0372 99.8253 63.2329 99.5758 64.1408C99.2492 65.3277 98.5234 65.4606 97.0589 65.4606H97.0494Z" fill="white"/>
<path d="M51.756 33.9183H51.7418C51.7332 33.9149 51.7261 33.9087 51.7216 33.9007C51.717 33.8927 51.7154 33.8834 51.7168 33.8744C51.7168 33.8744 53.3049 24.4684 53.4985 23.3112C53.508 23.2542 53.5187 23.1795 53.533 23.0916C54.6982 15.4874 59.0895 13.891 62.5662 13.891C63.1626 13.8931 63.7581 13.9383 64.3479 14.0263C67.1832 14.4429 69.4377 14.7194 71.2217 14.7194C74.0891 14.7194 75.7461 14.0073 77.3389 12.0881C77.6394 11.7321 77.8141 10.9428 77.8141 10.9357C77.816 10.9275 77.8205 10.9201 77.8269 10.9145C77.8333 10.909 77.8413 10.9056 77.8497 10.9048V10.9048C77.8577 10.9044 77.8656 10.9066 77.8723 10.9111C77.8789 10.9156 77.8839 10.9222 77.8865 10.9298C77.8865 10.9381 78.2025 11.7867 78.2619 12.354C78.3985 13.5694 78.895 19.6651 75.4408 23.6174C73.5106 25.8262 70.7074 26.9407 67.1108 26.9407H62.5662C62.5477 26.9425 62.529 26.9425 62.5104 26.9407C62.5104 26.9407 62.1196 26.9015 61.5043 26.9015C60.288 26.9015 57.986 27.0653 56.2329 28.1596C55.0522 28.8978 54.3241 29.9399 53.5615 31.1208C53.1066 31.8175 51.8012 33.8851 51.7881 33.9052C51.7848 33.9109 51.7802 33.9156 51.7745 33.9189C51.7689 33.9223 51.7625 33.9241 51.756 33.9242V33.9183Z" fill="white"/>
<path d="M49.9399 39.1117C49.9307 39.1121 49.9217 39.109 49.9147 39.1031C49.9076 39.0972 49.9031 39.0888 49.9019 39.0797C49.9019 39.0738 49.7914 38.4863 49.4684 37.0751C48.3649 31.6724 43.8714 31.657 38.67 31.6392C34.2752 31.6238 29.2864 31.6048 26.0057 28.1593C19.1318 20.9395 25.8798 9.08623 26.1708 8.59011L27.1947 6.87983C27.1981 6.87409 27.203 6.86932 27.2088 6.866C27.2146 6.86267 27.2212 6.8609 27.2279 6.86084H27.241C27.2495 6.86357 27.2567 6.86929 27.2613 6.87693C27.2658 6.88457 27.2675 6.89361 27.2659 6.90238C27.2659 6.92137 27.0284 8.69575 27.0391 9.03875C27.0781 9.72402 27.2132 10.4004 27.4405 11.0481C28.0843 12.978 29.8898 14.2752 31.2902 15.0218C32.0373 15.4168 32.8118 15.7579 33.6076 16.0425C36.3396 17.0335 39.1119 17.3243 42.041 17.6317L43.0625 17.7397C46.2328 18.0839 50.5849 19.0393 51.8024 23.3643C52.2965 25.1221 52.1219 26.6448 51.8998 28.0548C51.8843 28.1486 50.0551 38.6299 49.9767 39.0761C49.9751 39.085 49.9704 39.0931 49.9635 39.0989C49.9565 39.1048 49.9478 39.1081 49.9387 39.1082L49.9399 39.1117Z" fill="white"/>
<path d="M52.5601 24.0787C52.5515 24.0786 52.5432 24.0756 52.5365 24.0702C52.5298 24.0649 52.5252 24.0574 52.5233 24.049C52.5233 24.0395 52.2917 23.1315 52.0814 22.4716C51.5041 20.6628 50.6561 19.2671 49.555 18.3247C48.8352 17.7313 47.8552 17.2862 46.823 16.8126C44.2882 15.6578 41.4197 14.3499 40.9731 10.3821C40.3566 4.92252 44.4688 0.476498 44.6434 0.293719C44.7384 0.192835 45.8051 -0.986917 45.8051 -0.986917C45.8087 -0.99084 45.8131 -0.993933 45.818 -0.995982C45.8229 -0.998031 45.8282 -0.998988 45.8336 -0.998786C45.8394 -1.0004 45.8456 -1.0004 45.8514 -0.998786C45.8592 -0.995166 45.8656 -0.988901 45.8693 -0.981089C45.8729 -0.973277 45.8738 -0.964416 45.8716 -0.956058L45.5247 0.519225C45.5188 0.538215 45.0496 2.25325 45.9832 3.41876C46.5427 4.11782 47.6331 4.88217 48.7888 5.69043C50.5705 6.94021 52.5957 8.35377 53.54 10.1151C54.5485 11.9939 54.3086 14.0887 53.976 16.0732C53.4664 19.1057 52.6076 23.992 52.5981 24.0419C52.5965 24.0506 52.592 24.0585 52.5853 24.0643C52.5786 24.0701 52.5702 24.0735 52.5613 24.0739L52.5601 24.0787Z" fill="white"/>
<path d="M5.1478 60.8639C1.67704 57.8208 0.75293 53.8614 0.75293 50.4266C0.75293 48.0196 1.49649 43.8442 4.89599 40.7298C7.4462 38.3941 10.8101 36.9793 16.0875 36.9793C17.8055 36.9719 19.5218 37.0909 21.2223 37.3354C22.5681 37.5122 23.7013 37.8303 24.7644 37.936C25.154 37.9727 25.2953 38.1496 25.2953 38.3608C25.2953 38.6433 25.1896 39.073 25.1183 40.3073C25.0483 41.4752 25.0827 43.4217 25.0114 44.129C24.9758 44.6596 24.9057 44.9432 24.5874 44.9432C24.3035 44.9432 24.2311 44.6596 24.2311 44.1647C24.1781 42.9486 23.6875 41.7926 22.8496 40.9091C21.6808 39.67 18.9192 38.7157 15.6599 38.7157C12.5787 38.7157 10.5606 39.4931 9.00816 40.9091C6.42232 43.2828 5.75002 46.6417 5.75002 50.0741C5.75002 58.5009 12.1642 62.6727 16.9047 62.6727C20.0571 62.6727 21.9695 62.3167 23.3865 60.6907C23.9575 60.0117 24.369 59.2136 24.591 58.3549C24.6979 57.7888 24.7679 57.6428 25.0518 57.6428C25.2989 57.6428 25.369 57.8908 25.369 58.1745C25.369 58.5994 24.9449 61.677 24.591 62.8804C24.414 63.481 24.2726 63.659 23.6692 63.9059C22.2534 64.472 19.5618 64.7201 17.2955 64.7201C12.4433 64.7225 8.37031 63.6614 5.1478 60.8639Z" fill="#1E4E9F"/>
<path d="M30.4801 47.6706C30.4801 42.1018 30.4801 41.0763 30.4077 39.9049C30.334 38.6586 30.0406 38.0723 28.8315 37.8172C28.3609 37.7352 27.8837 37.6982 27.4061 37.7068C27.0034 37.7068 26.7837 37.6332 26.7837 37.3768C26.7837 37.1205 27.0391 37.0469 27.589 37.0469C29.5323 37.0469 31.8425 37.1573 32.8688 37.1573C34.3714 37.1573 36.4975 37.0469 38.1842 37.0469C42.7668 37.0469 44.4154 38.5898 45.0022 39.1346C45.8087 39.9049 46.835 41.5522 46.835 43.494C46.835 48.696 43.0233 52.3587 37.8184 52.3587C37.5609 52.3648 37.3033 52.3525 37.0475 52.3219C36.8646 52.2851 36.6068 52.2483 36.6068 51.992C36.6068 51.6988 36.8646 51.5896 37.6343 51.5896C39.6868 51.5896 42.5458 49.2812 42.5458 45.5449C42.5458 44.3366 42.4366 41.8822 40.384 40.052C39.3821 39.1331 38.0725 38.6217 36.7125 38.6183C36.1626 38.6183 35.6126 38.6551 35.2872 38.7667C35.1043 38.8391 34.9938 39.0586 34.9938 39.4622V54.1165C34.9938 57.486 34.9938 60.3808 35.1779 61.9498C35.2872 62.9765 35.5081 63.7824 36.6033 63.9295C37.223 64.0151 37.8473 64.0635 38.4729 64.0743C38.8767 64.0743 39.0596 64.1847 39.0596 64.3687C39.0596 64.6239 38.7674 64.7342 38.3636 64.7342C35.944 64.7342 33.6338 64.6239 32.6811 64.6239C31.839 64.6239 29.5287 64.7342 28.063 64.7342C27.5878 64.7342 27.3289 64.6239 27.3289 64.3687C27.3289 64.1847 27.4762 64.0743 27.9157 64.0743C28.3609 64.0765 28.8051 64.0295 29.2401 63.9343C29.9741 63.7871 30.1571 62.9848 30.3091 61.9166C30.4908 60.3737 30.4908 57.4836 30.4908 54.1141L30.4801 47.6706Z" fill="#1E4E9F"/>
<path d="M54.2849 57.5263C54.1459 57.5263 54.0901 57.5809 54.0354 57.747L52.5424 61.6969C52.2656 62.3877 52.1278 63.05 52.1278 63.3823C52.1278 63.8796 52.3773 64.238 53.2337 64.238H53.6482C53.9796 64.238 54.0628 64.2926 54.0628 64.4588C54.0628 64.6807 53.8965 64.7353 53.5876 64.7353C52.7027 64.7353 51.5149 64.6522 50.6585 64.6522C50.3532 64.6522 48.8329 64.7353 47.3956 64.7353C47.0393 64.7353 46.8706 64.6807 46.8706 64.4588C46.8706 64.2926 46.9811 64.238 47.202 64.238C47.4887 64.2345 47.7749 64.2159 48.0596 64.1822C49.3305 64.0173 49.8556 63.0773 50.4091 61.6969L57.3482 44.3496C57.6796 43.5485 57.8447 43.2446 58.1215 43.2446C58.3709 43.2446 58.5372 43.4939 58.8128 44.1288C59.4768 45.648 63.899 56.9186 65.67 61.1166C66.7188 63.609 67.5218 63.99 68.1014 64.1276C68.4842 64.2017 68.8732 64.2387 69.2631 64.238C69.484 64.238 69.6194 64.2653 69.6194 64.4588C69.6194 64.6807 69.37 64.7353 68.3473 64.7353C67.3507 64.7353 65.3326 64.7353 63.1209 64.6807C62.6221 64.6523 62.2895 64.6522 62.2895 64.4588C62.2895 64.2926 62.4 64.238 62.6767 64.2107C62.8703 64.1549 63.0628 63.9069 62.925 63.5758L60.7133 57.7185C60.6965 57.6595 60.6597 57.6081 60.6093 57.573C60.5588 57.538 60.4978 57.5215 60.4365 57.5263H54.2849ZM59.9246 56.1436C60.0624 56.1436 60.0885 56.0617 60.0624 55.9786L57.5739 49.1553C57.5454 49.0449 57.5181 48.9072 57.4361 48.9072C57.3542 48.9072 57.2971 49.0449 57.2698 49.1553L54.7256 55.9465C54.6994 56.0581 54.7256 56.14 54.836 56.14L59.9246 56.1436Z" fill="#1E4E9F"/>
<path d="M76.0551 56.4033C76.0551 60.0292 76.0551 61.9816 76.649 62.4943C77.1312 62.9192 77.8689 63.1163 80.0818 63.1163C81.5843 63.1163 82.6949 63.089 83.3993 62.3234C83.739 61.9555 84.0799 61.1627 84.1357 60.6238C84.1642 60.3687 84.2201 60.1989 84.4493 60.1989C84.6453 60.1989 84.6738 60.3402 84.6738 60.6808C84.6738 60.993 84.4766 63.1163 84.2486 63.94C84.0799 64.5631 83.9374 64.7043 82.4669 64.7043C80.4262 64.7043 78.951 64.6473 77.6753 64.6189C76.3996 64.5631 75.378 64.5346 74.2152 64.5346C73.9028 64.5346 73.2804 64.5346 72.5986 64.5631C71.9465 64.5631 71.2089 64.6189 70.6423 64.6189C70.2741 64.6189 70.0745 64.5346 70.0745 64.3364C70.0745 64.194 70.1933 64.1097 70.5294 64.1097C70.8729 64.1084 71.2152 64.0686 71.5498 63.991C72.1175 63.8723 72.2624 63.2551 72.3729 62.4314C72.5143 61.2446 72.5143 59.0049 72.5143 56.3986V51.4137C72.5143 47.1065 72.5143 46.3102 72.4572 45.4058C72.4002 44.4432 72.1734 43.9898 71.2386 43.7916C70.9307 43.7282 70.6168 43.6995 70.3026 43.7062C69.989 43.7062 69.8203 43.6492 69.8203 43.451C69.8203 43.2528 70.0187 43.1958 70.4427 43.1958C71.7778 43.1958 73.5631 43.2813 74.3292 43.2813C75.0098 43.2813 77.079 43.1958 78.186 43.1958C78.5827 43.1958 78.7799 43.2528 78.7799 43.451C78.7799 43.6492 78.6101 43.7062 78.2692 43.7062C77.8989 43.7074 77.5293 43.7359 77.1633 43.7916C76.3984 43.9328 76.1715 44.4147 76.1145 45.4058C76.0575 46.3137 76.0575 47.1065 76.0575 51.4137L76.0551 56.4033Z" fill="#1E4E9F"/>
<path d="M90.642 56.4033C90.642 60.0292 90.642 61.9816 91.2359 62.4943C91.7193 62.9192 92.457 63.1163 94.6687 63.1163C96.17 63.1163 97.2818 63.089 97.9862 62.3234C98.3271 61.9555 98.6668 61.1627 98.7238 60.6238C98.7511 60.3687 98.8082 60.1989 99.035 60.1989C99.2334 60.1989 99.2631 60.3402 99.2631 60.6808C99.2631 60.993 99.0635 63.1163 98.8367 63.94C98.6668 64.5631 98.5255 64.7043 97.055 64.7043C95.0143 64.7043 93.5391 64.6473 92.2622 64.6189C90.9877 64.5631 89.965 64.5346 88.8021 64.5346C88.4921 64.5346 87.8673 64.5346 87.1867 64.5631C86.5346 64.5631 85.797 64.6189 85.2304 64.6189C84.861 64.6189 84.6626 64.5346 84.6626 64.3364C84.6626 64.194 84.7814 64.1097 85.1175 64.1097C85.461 64.1083 85.8032 64.0685 86.1379 63.991C86.7056 63.8723 86.8505 63.2551 86.9598 62.4314C87.1012 61.2446 87.1012 59.0049 87.1012 56.3986V51.4137C87.1012 47.1065 87.1012 46.3102 87.0453 45.4058C86.9883 44.4432 86.7615 43.9898 85.8255 43.7916C85.5181 43.7282 85.2045 43.6995 84.8907 43.7062C84.5771 43.7062 84.4072 43.6492 84.4072 43.451C84.4072 43.2528 84.6068 43.1958 85.032 43.1958C86.3647 43.1958 88.1512 43.2813 88.9161 43.2813C89.5967 43.2813 91.6671 43.1958 92.7729 43.1958C93.1708 43.1958 93.3668 43.2528 93.3668 43.451C93.3668 43.6492 93.1982 43.7062 92.8561 43.7062C92.4862 43.7074 92.117 43.7359 91.7514 43.7916C90.9865 43.9328 90.7572 44.4147 90.7026 45.4058C90.6456 46.3137 90.6456 47.1065 90.6456 51.4137L90.642 56.4033Z" fill="#1E4E9F"/>
<path d="M52.5386 31.9087L54.0079 23.3751C54.0079 23.3751 54.8073 13.1478 64.2563 14.5353C72.0577 15.6818 74.9928 15.702 77.7271 12.4155C77.7271 12.4155 79.6395 26.4942 66.9906 26.4206H62.5518C62.5518 26.4206 58.6748 26.0088 55.9404 27.7155C54.5602 28.5724 53.5292 29.9421 52.5386 31.9087Z" fill="#09A7DF"/>
<path d="M49.9182 36.8748L51.3044 28.0646C51.542 26.5217 51.6287 25.0772 51.1951 23.5379C50.1261 19.7256 46.4986 18.6432 42.9993 18.2646C39.7316 17.9085 36.5424 17.6712 33.4196 16.5377C32.6009 16.2449 31.8042 15.8939 31.0357 15.4873C29.2908 14.5568 27.5816 13.1527 26.9354 11.2146C26.7798 10.7398 26.3415 9.30489 26.6147 8.84082C26.6147 8.84082 19.6886 20.7677 26.3772 27.7928C33.2664 35.0399 47.9738 26.4006 49.9182 36.8748Z" fill="#EB2227"/>
<path d="M52.4177 21.9058C52.4177 21.9058 52.9261 19.0882 53.4452 15.9916C53.8015 13.8944 53.9512 12.018 53.0639 10.367C51.5708 7.58382 47.0572 5.61243 45.5605 3.75022C44.4119 2.31648 45.0058 0.648926 45.0058 0.648926C45.0058 0.648926 40.8806 5.0368 41.4745 10.3243C42.0684 15.5905 47.3149 15.816 49.877 17.9203C52.1647 19.8003 52.4177 21.9058 52.4177 21.9058Z" fill="#3BB14A"/>
</g>
<defs>
<clipPath id="clip0">
<rect width="100" height="76" fill="white"/>
</clipPath>
</defs>
</svg>
