<svg id="Layer_1" data-name="Layer 1" xmlns="http://www.w3.org/2000/svg" viewBox="0 0 841.89 595.28"><defs><style>.cls-1{fill:#fff;}.cls-2{fill:#1e4e9f;}.cls-3{fill:#09a7df;}.cls-4{fill:#eb2227;}.cls-5{fill:#3bb14a;}</style></defs><title>CPALL-logo-color</title><path class="cls-1" d="M145.44,574.31c-45.23,0-80-11.15-106.44-34.07-26-22.8-39.17-54-39.17-92.75,0-15.79,3.6-55.82,37-86.39,24.78-22.7,56.09-33.27,98.52-33.27a302.2,302.2,0,0,1,44.06,3c5.61.74,10.65,1.73,15.52,2.69,5.16,1,9.8,1.93,14.09,2.36,7.53.69,10.21,5.77,10.21,9.9a37,37,0,0,1-.37,4.32c-.33,2.63-.78,6.31-1.13,12.44-.28,4.72-.36,11.13-.43,16.78v.34c-.09,6.47-.16,12.07-.49,15.35-.53,8.36-3.86,12.6-9.9,12.6-4.27,0-9.35-2.24-9.35-12.93a35.87,35.87,0,0,0-9.84-23c-7.52-8-28.23-16.53-55.95-16.53-23,0-39,5.19-51.77,16.82C62.66,387.85,54.61,410.9,54.61,444.5c0,68.07,52.24,99.79,87.55,99.79,27.76,0,40.32-3.65,49.76-14.51a44.1,44.1,0,0,0,8.73-16.9c.72-3.81,2-10.94,10.08-10.94,4.18,0,9.06,2.85,9.06,10.84,0,4.32-3.71,30.83-6.83,41.44-2.09,7.11-4.66,10-11.44,12.75-13.55,5.41-37.85,7.34-56.08,7.34Z"/><path class="cls-1" d="M322.8,574.44c-12.24,0-24-.33-33.39-.6l-.85,0h-.35c-5.76-.17-10.31-.3-13.25-.3s-8.49.18-14.3.37h-.44c-8,.26-17.14.55-24.14.55-11.64,0-12.55-7.22-12.55-9.44s.82-8.85,11.3-8.85a44.2,44.2,0,0,0,9.75-1.07c1.76-.35,2.93-3.72,4-11.63,1.48-12.47,1.48-36.75,1.48-64.86V424.27c0-46.9,0-55.35-.6-65-.54-9.22-2-10.46-8.24-11.77a57.34,57.34,0,0,0-10.73-.78c-10.47,0-11.6-6.4-11.6-9.15,0-6.07,4.43-9.14,13.15-9.14,9.61,0,20.38.31,29,.57,6.37.19,11.93.35,15.44.35,5.89,0,13-.2,20.93-.44l.91,0c7.76-.23,15.79-.46,22.91-.46,41.17,0,56.66,14.53,61.75,19.31,8.05,7.69,17.45,23.14,17.45,41.37,0,47-34.61,81.05-82.28,81.05a44.3,44.3,0,0,1-7.74-.44c-7.68-1.5-8.82-6.29-8.82-9,0-9.77,11.29-9.77,15-9.77,14.26,0,35-17.35,35-44.55,0-11.67-1.67-28.69-16.07-41.53a39.4,39.4,0,0,0-26.64-10.44,52.11,52.11,0,0,0-8.14.5v123.7c0,28.11,0,52.39,1.49,65.3,1,9.39,2.78,10.59,6.57,11.1a127.58,127.58,0,0,0,14.89,1.16c11,0,11.3,8,11.3,8.85,0,4.36-3.2,9.44-12.22,9.44Z"/><path class="cls-1" d="M575.31,574.41c-8.27,0-25.46,0-44.14-.46l-1.19-.06c-3.9-.21-12-.64-12-8.17a7.82,7.82,0,0,1,4.93-7.43L506,513.52l-46.33.16-11.54,31a39.93,39.93,0,0,0-3.08,11.94,3.92,3.92,0,0,0,.05.65h0a21.91,21.91,0,0,0,2.85.22h3.49c8.9,0,9.86,5.75,9.86,8.22,0,1.45-.5,8.69-10.33,8.69-3.75,0-8.12-.17-12.35-.34h-.43c-4.53-.19-8.55-.34-11.88-.34-.72,0-2.3,0-4.46.14l-.43,0c-5.29.2-14.14.53-22.58.53-9.73,0-10.79-6.08-10.79-8.69,0-4.09,2.84-8.22,9.16-8.22,1.81,0,4.79-.22,6.43-.41,6.43-.85,9.72-4.65,14.66-17l58.42-146.16c2.84-6.85,5.52-13.31,12.42-13.31s9.58,6.51,11.65,11.27c2.41,5.5,10.61,26.08,20.11,49.9l.93,2.31c11.88,29.84,28.17,70.71,36.71,91,8.35,19.81,13.78,21.09,16.09,21.64a44.2,44.2,0,0,0,8.31.77c8.94,0,9.39,6.85,9.39,8.22,0,8.69-9.47,8.69-17.07,8.69ZM469.13,489.3h27.78l-13.72-37.62L469.13,489.3Z"/><path class="cls-1" d="M694.09,574.16c-13.19,0-23.47-.28-32.54-.53l-1.76,0-6.2-.15c-11.46-.51-19.85-.71-29-.71-2.51,0-7.73,0-13.33.24-3,0-6,.12-8.8.24h-.33c-2.72.11-5.32.23-7.61.23-10.61,0-11.15-7.29-11.15-8.75s.49-8.28,10.2-8.28a32.34,32.34,0,0,0,7.19-.8c.68-.47,1.37-3,2-7.8,1.13-9.53,1.13-28.27,1.13-50v-42c0-36.24,0-42.78-.47-50.21-.39-6.54-1.25-6.95-5.23-7.79a29.83,29.83,0,0,0-6.56-.57c-9.92,0-10.43-7.1-10.43-8.52,0-3.18,1.52-8.51,11.62-8.51,6.27,0,13.63.22,20.13.41l.64,0c4.9.15,9.2.28,11.93.28,2.49,0,7.19-.13,12.47-.28,7-.2,14.73-.43,20-.43,10.27,0,11.37,5.95,11.37,8.51,0,2-.77,8.52-10.66,8.52a57.43,57.43,0,0,0-8.26.62c-2,.37-3.12.58-3.53,7.7-.46,7.47-.46,14-.46,50.25v42c0,22.33,0,43.43,2.85,46.56,2.47,2.19,7.63,3.65,24.69,3.65,11.75,0,19.17-.22,23.26-4.64,1.92-2.09,4.21-7.46,4.54-10.64,1-8.39,6.59-9.3,9-9.3,3.08,0,8.26,1.36,8.26,10.42,0,3-1.71,21.52-3.81,29.15-2.72,10-8.83,11.12-21.17,11.12Z"/><path class="cls-1" d="M816.88,574.16c-13.17,0-23.44-.28-32.5-.53l-1.73,0-6.25-.16c-11.46-.51-19.86-.71-29-.71-2.51,0-7.74,0-13.33.24-3,0-6,.12-8.81.24h-.33c-2.71.11-5.31.23-7.6.23-10.6,0-11.14-7.29-11.14-8.75s.49-8.28,10.18-8.28a31.84,31.84,0,0,0,7.21-.8c.66-.47,1.36-3.11,2-7.8,1.13-9.53,1.13-28.27,1.13-50v-42c0-36.25,0-42.78-.47-50.22-.38-6.53-1.24-6.94-5.23-7.78a29.79,29.79,0,0,0-6.55-.57c-9.93,0-10.43-7.1-10.43-8.52,0-3.18,1.51-8.51,11.61-8.51,6.28,0,13.65.22,20.15.41l.61,0c4.91.15,9.22.28,12,.28,2.49,0,7.19-.13,12.47-.29l.94,0c6.56-.19,14-.4,19.06-.4,10.27,0,11.38,5.95,11.38,8.51,0,2-.77,8.52-10.67,8.52a57.4,57.4,0,0,0-8.25.62c-2,.37-3.13.58-3.54,7.69-.46,7.48-.46,14-.46,50.26v42c0,22.34,0,43.43,2.85,46.57,2.49,2.18,7.65,3.64,24.69,3.64,11.8,0,19.25-.31,23.28-4.64,1.9-2.08,4.19-7.46,4.53-10.66.9-8.37,6.56-9.28,9-9.28,3.1,0,8.29,1.36,8.29,10.42,0,3-1.72,21.5-3.82,29.15-2.75,10-8.86,11.12-21.19,11.12Z"/><path class="cls-1" d="M435.56,308.4l-.12,0a.34.34,0,0,1-.21-.37s13.37-79.25,15-89c.08-.48.17-1.11.29-1.85,9.81-64.07,46.78-77.52,76.05-77.52a104.1,104.1,0,0,1,15,1.14c23.87,3.51,42.85,5.84,57.87,5.84,24.14,0,38.09-6,51.5-22.17,2.53-3,4-9.65,4-9.71a.34.34,0,0,1,.3-.26h0a.31.31,0,0,1,.31.21c0,.07,2.66,7.22,3.16,12,1.15,10.24,5.33,61.6-23.75,94.9-16.25,18.61-39.85,28-70.13,28H526.57a2.42,2.42,0,0,1-.47,0s-3.29-.33-8.47-.33c-10.24,0-29.62,1.38-44.38,10.6-9.94,6.22-16.07,15-22.49,24.95-3.83,5.87-14.82,23.29-14.93,23.46a.32.32,0,0,1-.27.16Z"/><path class="cls-1" d="M420.27,352.16a.31.31,0,0,1-.32-.27c0-.05-.93-5-3.65-16.89-9.29-45.52-47.12-45.65-90.91-45.8-37-.13-79-.29-106.62-29.32C160.9,199.05,217.71,99.18,220.16,95l8.62-14.41a.33.33,0,0,1,.28-.16l.11,0a.31.31,0,0,1,.21.35c0,.16-2,15.11-1.91,18a61.77,61.77,0,0,0,3.38,16.93c5.42,16.26,20.62,27.19,32.41,33.48a149.23,149.23,0,0,0,19.51,8.6c23,8.35,46.34,10.8,71,13.39l8.6.91c26.69,2.9,63.33,10.95,73.58,47.39,4.16,14.81,2.69,27.64.82,39.52-.13.79-15.53,89.1-16.19,92.86a.33.33,0,0,1-.32.27Z"/><path class="cls-1" d="M442.33,225.5a.32.32,0,0,1-.31-.25c0-.08-1.95-7.73-3.72-13.29-4.86-15.24-12-27-21.27-34.94-6.06-5-14.31-8.75-23-12.74-21.34-9.73-45.49-20.75-49.25-54.18-5.19-46,29.43-83.46,30.9-85,.8-.85,9.78-10.79,9.78-10.79a.31.31,0,0,1,.24-.1.28.28,0,0,1,.15,0,.31.31,0,0,1,.17.36L383.1,27c-.05.16-4,14.61,3.86,24.43,4.71,5.89,13.89,12.33,23.62,19.14,15,10.53,32.05,22.44,40,37.28,8.49,15.83,6.47,33.48,3.67,50.2-4.29,25.55-11.52,66.72-11.6,67.14a.33.33,0,0,1-.31.27Z"/><path class="cls-2" d="M43.17,535.43c-29.22-25.64-37-59-37-87.94,0-20.28,6.26-55.46,34.88-81.7,21.47-19.68,49.79-31.6,94.22-31.6a294.6,294.6,0,0,1,43.23,3c11.33,1.49,20.87,4.17,29.82,5.06,3.28.31,4.47,1.8,4.47,3.58,0,2.38-.89,6-1.49,16.4-.59,9.84-.3,26.24-.9,32.2-.3,4.47-.89,6.86-3.57,6.86-2.39,0-3-2.39-3-6.56a42.57,42.57,0,0,0-11.63-27.43c-9.84-10.44-33.09-18.48-60.53-18.48-25.94,0-42.93,6.55-56,18.48-21.77,20-27.43,48.3-27.43,77.22,0,71,54,106.15,93.91,106.15,26.54,0,42.64-3,54.57-16.7a50.05,50.05,0,0,0,10.14-19.68c.9-4.77,1.49-6,3.88-6,2.08,0,2.67,2.09,2.67,4.48,0,3.58-3.57,29.51-6.55,39.65-1.49,5.06-2.68,6.56-7.76,8.64-11.92,4.77-34.58,6.86-53.66,6.86C104.59,567.94,70.3,559,43.17,535.43Z"/><path class="cls-2" d="M256.44,424.27c0-46.92,0-55.56-.61-65.43-.62-10.5-3.09-15.44-13.27-17.59a63.26,63.26,0,0,0-12-.93c-3.39,0-5.24-.62-5.24-2.78s2.15-2.78,6.78-2.78c16.36,0,35.81.93,44.45.93,12.65,0,30.55-.93,44.75-.93,38.58,0,52.46,13,57.4,17.59,6.79,6.49,15.43,20.37,15.43,36.73,0,43.83-32.09,74.69-75.91,74.69a45.5,45.5,0,0,1-6.49-.31c-1.54-.31-3.71-.62-3.71-2.78,0-2.47,2.17-3.39,8.65-3.39,17.28,0,41.35-19.45,41.35-50.93,0-10.18-.92-30.86-18.2-46.28A45.88,45.88,0,0,0,308.91,348c-4.63,0-9.26.31-12,1.25-1.54.61-2.47,2.46-2.47,5.86V478.58c0,28.39,0,52.78,1.55,66,.92,8.65,2.78,15.44,12,16.68a131.69,131.69,0,0,0,15.74,1.22c3.4,0,4.94.93,4.94,2.48,0,2.15-2.46,3.08-5.86,3.08-20.37,0-39.82-.93-47.84-.93-7.09,0-26.54.93-38.88.93-4,0-6.18-.93-6.18-3.08,0-1.55,1.24-2.48,4.94-2.48A50.94,50.94,0,0,0,246,561.3c6.18-1.24,7.72-8,9-17,1.53-13,1.53-37.35,1.53-65.74Z"/><path class="cls-2" d="M456.85,507.31c-1.17,0-1.64.46-2.1,1.86l-12.57,33.28c-2.33,5.82-3.49,11.4-3.49,14.2,0,4.19,2.1,7.21,9.31,7.21h3.49c2.79,0,3.49.46,3.49,1.86,0,1.87-1.4,2.33-4,2.33-7.45,0-17.45-.7-24.66-.7-2.57,0-15.37.7-27.47.7-3,0-4.42-.46-4.42-2.33,0-1.4.93-1.86,2.79-1.86a68.6,68.6,0,0,0,7.22-.47c10.7-1.39,15.12-9.31,19.78-20.94l58.42-146.16c2.79-6.75,4.18-9.31,6.51-9.31,2.1,0,3.5,2.1,5.82,7.45,5.59,12.8,42.82,107.76,57.73,143.13,8.83,21,15.59,24.21,20.47,25.37a51,51,0,0,0,9.78.93c1.86,0,3,.23,3,1.86,0,1.87-2.1,2.33-10.71,2.33-8.39,0-25.38,0-44-.46-4.2-.24-7-.24-7-1.87,0-1.4.93-1.86,3.26-2.09,1.63-.47,3.25-2.56,2.09-5.35l-18.62-49.35a2.24,2.24,0,0,0-2.33-1.62Zm47.48-11.65c1.16,0,1.38-.69,1.16-1.39l-20.95-57.49c-.24-.93-.47-2.09-1.16-2.09s-1.17,1.16-1.4,2.09L460.56,494c-.22.94,0,1.63.93,1.63Z"/><path class="cls-2" d="M640.13,497.85c0,30.55,0,47,5,51.32,4.06,3.58,10.27,5.24,28.9,5.24,12.65,0,22-.23,27.93-6.68,2.86-3.1,5.73-9.78,6.2-14.32.24-2.15.71-3.58,2.64-3.58,1.65,0,1.89,1.19,1.89,4.06,0,2.63-1.66,20.52-3.58,27.46-1.42,5.25-2.62,6.44-15,6.44-17.18,0-29.6-.48-40.34-.72-10.74-.47-19.34-.71-29.13-.71-2.63,0-7.87,0-13.61.24-5.49,0-11.7.47-16.47.47-3.1,0-4.78-.71-4.78-2.38,0-1.2,1-1.91,3.83-1.91a38.66,38.66,0,0,0,8.59-1c4.78-1,6-6.2,6.93-13.14,1.19-10,1.19-28.87,1.19-50.83v-42c0-36.29,0-43-.48-50.62-.48-8.11-2.39-11.93-10.26-13.6a35.29,35.29,0,0,0-7.88-.72c-2.64,0-4.06-.48-4.06-2.15s1.67-2.15,5.24-2.15c11.24,0,26.27.72,32.72.72,5.73,0,23.15-.72,32.47-.72,3.34,0,5,.48,5,2.15s-1.43,2.15-4.3,2.15a63.23,63.23,0,0,0-9.31.72c-6.44,1.19-8.35,5.25-8.83,13.6-.48,7.65-.48,14.33-.48,50.62Z"/><path class="cls-2" d="M762.94,497.85c0,30.55,0,47,5,51.32,4.07,3.58,10.28,5.24,28.9,5.24,12.64,0,22-.23,27.93-6.68,2.87-3.1,5.73-9.78,6.21-14.32.23-2.15.71-3.58,2.62-3.58,1.67,0,1.92,1.19,1.92,4.06,0,2.63-1.68,20.52-3.59,27.46-1.43,5.25-2.62,6.44-15,6.44-17.18,0-29.6-.48-40.35-.72-10.73-.47-19.34-.71-29.13-.71-2.61,0-7.87,0-13.6.24-5.49,0-11.7.47-16.47.47-3.11,0-4.78-.71-4.78-2.38,0-1.2,1-1.91,3.83-1.91a38.74,38.74,0,0,0,8.59-1c4.78-1,6-6.2,6.92-13.14,1.19-10,1.19-28.87,1.19-50.83v-42c0-36.29,0-43-.47-50.62-.48-8.11-2.39-11.93-10.27-13.6a35.2,35.2,0,0,0-7.87-.72c-2.64,0-4.07-.48-4.07-2.15s1.68-2.15,5.26-2.15c11.22,0,26.26.72,32.7.72,5.73,0,23.16-.72,32.47-.72,3.35,0,5,.48,5,2.15s-1.42,2.15-4.3,2.15a63.1,63.1,0,0,0-9.3.72c-6.44,1.19-8.37,5.25-8.83,13.6-.48,7.65-.48,14.33-.48,50.62Z"/><path class="cls-3" d="M442.15,291.47l12.37-71.9s6.73-86.17,86.28-74.48c65.68,9.66,90.39,9.83,113.41-17.86,0,0,16.1,118.62-90.39,118H526.45s-32.64-3.47-55.66,10.91C459.17,263.36,450.49,274.9,442.15,291.47Z"/><path class="cls-4" d="M420.09,333.31l11.67-74.23c2-13,2.73-25.17-.92-38.14-9-32.12-39.54-41.24-69-44.43-27.51-3-54.36-5-80.65-14.55a153.25,153.25,0,0,1-20.07-8.85c-14.69-7.84-29.08-19.67-34.52-36-1.31-4-5-16.09-2.7-20,0,0-58.31,100.49-2,159.68C279.9,317.85,403.72,245.06,420.09,333.31Z"/><path class="cls-5" d="M441.13,207.19s4.28-23.74,8.65-49.83c3-17.67,4.26-33.48-3.21-47.39C434,86.52,396,69.91,383.4,54.22c-9.67-12.08-4.67-26.13-4.67-26.13S344,65.06,349,109.61c5,44.37,49.17,46.27,70.74,64C439,189.45,441.13,207.19,441.13,207.19Z"/></svg>