<svg width="984" height="750" viewBox="0 0 984 750" fill="none" xmlns="http://www.w3.org/2000/svg">
<path d="M9.5 748.5C7.3 747.7 5.4 747 5.3 747C5.2 747 3.9 745.3 2.5 743.3C0.1 739.6 0 739.1 0 722.8V706H3H6V722.3C6 738.3 6.1 738.7 8.4 740.9C13.1 745.4 23.2 744.3 26 739.1C26.6 738 27 730.3 27 721.6V706H30H33V721.3C33 735.2 32.8 737 30.8 741C29.5 743.5 27.1 746.3 25.4 747.2C21 749.8 14.3 750.3 9.5 748.5Z" fill="#061625"/>
<path d="M45.9005 748.5C43.4005 747.7 40.6005 746.2 39.7005 745.2C38.1005 743.4 38.1005 743.2 39.8005 741.6C41.6005 740.1 42.0005 740.1 46.1005 742C54.6005 745.8 63.0005 743.4 63.0005 737C63.0005 733.3 61.3005 732.1 53.9005 730.9C44.8005 729.4 41.8005 727.3 40.7005 721.4C38.7005 710.8 48.4005 703.9 60.2005 707.4C63.1005 708.3 66.3005 709.6 67.3005 710.4C68.9005 711.6 68.9005 712.1 67.8005 713.9C66.2005 716.4 64.7005 716.5 61.4005 714.3C58.0005 712.1 49.3005 711.9 48.0005 714C47.5005 714.8 47.0005 716.9 47.0005 718.7C47.0005 722.5 48.2005 723.3 56.2005 724.9C65.8005 726.9 70.9005 733 69.0005 740.2C66.7005 748.5 57.1005 751.9 45.9005 748.5Z" fill="#061625"/>
<path d="M85.9998 748.8C81.8998 747.6 79.3998 745.6 77.1998 741.5C75.8998 739.2 75.4998 734.7 75.1998 722.3L74.7998 706H77.7998H80.7998L81.0998 722C81.4998 737.6 81.5998 738 84.0998 740.6C85.6998 742.1 88.1998 743.4 90.6998 743.7C98.3998 744.7 103.5 739.6 102.8 731.4C102.5 727.6 102.4 727.5 97.9998 727.2C92.9998 726.8 91.9998 725.9 91.9998 721.3C91.9998 718.3 92.2998 718 94.9998 718C97.2998 718 97.9998 718.4 97.9998 720C97.9998 721.5 98.6998 722 100.5 722C103 722 103 721.9 103 714V706H106H109V714C109 721.3 109.2 722 111 722C112.5 722 113 722.7 113 724.5C113 726.3 112.5 727 111 727C109.4 727 109 727.7 109 730.8C109 740.3 104.7 747.1 97.5998 748.9C92.3998 750.2 90.7998 750.2 85.9998 748.8Z" fill="#061625"/>
<path d="M195.2 749C188.2 747.4 184 740.4 184 730.6V726H190.1C196.1 726 196.1 726 195.8 728.8C195.6 730.9 194.9 731.6 192.8 731.8C189.6 732.2 189.2 734.5 191.5 738.9C194.3 744.5 203.7 745.5 208.6 740.9C210.8 738.8 211 737.9 211 727.9C211 717.5 210.9 717.1 208.4 715.1C202.9 710.8 195.4 711.5 191.6 716.5C189.6 719.1 185 720 185 717.8C185 717.1 185.9 715.1 187 713.3C192.9 703.5 210.6 704.4 215.5 714.7C217.8 719.5 218.5 729.2 217.1 736.1C214.9 746.5 206.2 751.6 195.2 749Z" fill="#061625"/>
<path d="M233.1 748.7C228.9 747.1 226.3 744 225 738.9C223.6 733.7 224.5 730.7 229.1 725.3C231.3 722.8 233 719.8 233 718.4C233 715.9 232.1 715.3 230.4 717C229.7 717.7 228.2 716.7 225.7 714.2L221.9 710.4L224 708.5C225.9 706.8 226.2 706.7 227.7 708.3C229.3 709.8 229.5 709.8 231.3 708.2C233.1 706.6 233.3 706.7 236.1 709.8C240.4 714.6 240.1 719.1 235 726.6C228.7 735.9 230.1 742.5 238.7 743.7C242.4 744.2 243.3 743.9 246 741.2C248.9 738.3 249 737.9 249 729.1C249 720.9 248.8 720 246.8 718.6C245.6 717.7 243.8 717 242.8 717C241.7 717 241 716.2 241 715C241 713.8 241.7 713 242.8 713C245.5 713 249 710.1 249 707.9C249 706.5 249.7 706 252 706C254.5 706 255 706.4 255 708.4C255 709.8 254.3 711.5 253.5 712.4C251.6 714.3 251.6 715.4 253.6 717.1C254.9 718.2 255.1 720.3 254.8 729.6C254.5 741.8 253.2 745.1 247.8 747.8C243.9 749.7 236.9 750.1 233.1 748.7Z" fill="#061625"/>
<path d="M286.9 748.5C284.4 747.7 281.6 746.2 280.7 745.2C279.1 743.4 279.1 743.2 280.8 741.6C282.6 740.1 283 740.1 287.1 742C293.7 744.9 300.7 744.4 303.2 740.6C304.5 738.8 304.1 734.3 302.6 733.1C301.8 732.4 298.4 731.5 294.9 730.9C291.5 730.4 287.9 729.5 286.8 728.9C282.2 726.4 280.1 717.9 282.8 712.8C285.8 707.4 293.5 705.1 301.2 707.4C308.5 709.6 310.5 711.2 309 713.9C307.7 716.4 305.8 716.6 302.4 714.3C299 712.1 290.3 711.9 289 714C288.5 714.8 288 716.9 288 718.7C288 722.4 289.6 723.6 296.1 724.6C301.5 725.4 304.8 727 307.9 730.4C312.2 735 310.6 743.6 304.7 747.5C301.3 749.7 292.3 750.2 286.9 748.5Z" fill="#061625"/>
<path d="M326.6 749C320.3 747 316.1 739.7 317.4 732.8C317.7 731 319.8 727.3 322 724.6C324.2 722 326 719.3 326 718.6C326 716.3 322.9 713.1 320 712.5C317.5 711.9 317 711.4 317 708.8C317 705.8 317.1 705.7 321 706.3C326.9 707.1 329.7 709.3 331 714.2C332 717.6 331.9 719 330.4 722.2C329.5 724.3 328.4 726 328.1 726C326.5 726 324 732.2 324 735.8C324 739 324.6 740.3 326.6 741.9C330.2 744.8 335.1 744.6 338.4 741.5C340.9 739.2 341 738.6 341 729.1C341 720.2 340.8 719 339.1 718C338 717.5 336.2 717 335.1 717C331.3 717 332.6 713.5 336.8 712.4C339.8 711.7 340.6 711 340.8 708.7C341.1 706.2 341.5 705.9 344.3 706.2C347 706.5 347.5 706.9 347.2 708.9C347.1 710.3 346.2 712.2 345.3 713.2C343.8 714.9 343.8 715.1 345.6 716.4C347.3 717.7 347.5 719.2 347.5 728.9C347.5 740.7 346.7 743 340.9 747.1C338 749.3 330.6 750.2 326.6 749Z" fill="#061625"/>
<path d="M384.499 748.6C379.299 746.4 377.599 742.6 377.199 732.5C376.999 727.3 377.299 721.6 377.999 719.1C381.999 704.2 403.799 701.6 409.999 715.3C411.599 718.8 411.999 721.9 411.999 734.3V749H409.099H406.099L405.799 733.5C405.499 718.1 405.499 718 402.699 715.3C400.399 712.9 399.099 712.5 394.399 712.5C389.499 712.5 388.499 712.9 386.399 715.3C384.199 717.9 383.999 718.9 383.999 729.1C383.999 738.8 384.199 740.2 386.099 742.1C387.599 743.6 388.999 744.1 390.999 743.7C392.999 743.3 394.299 743.6 395.499 745C397.199 746.9 397.199 747 393.699 748.5C389.299 750.3 388.399 750.3 384.499 748.6Z" fill="#061625"/>
<path d="M688.7 749C684.7 747.8 682.9 746.1 680.9 741.5C679.4 738.2 679 734.8 679 721.8V706H681.9H684.9L685.2 722.1L685.5 738.2L688.8 741.1C692.3 744.2 696.1 744.8 700.5 742.8C705.2 740.7 706 737.5 706 721V706H709H712V727.5V749H709C706.7 749 706 748.6 706 747V744.9L703.3 747C700.1 749.3 692.8 750.3 688.7 749Z" fill="#061625"/>
<path d="M956.499 748.6C951.299 746.4 949.599 742.6 949.199 732.5C948.999 727.3 949.299 721.6 949.999 719.1C953.999 704.2 975.799 701.6 981.999 715.3C983.599 718.8 983.999 721.9 983.999 734.3V749H981.099H978.099L977.799 733.5C977.499 718.3 977.499 718 974.899 715.4C971.699 712.3 964.899 711.2 960.999 713.2C957.199 715.2 954.999 720.5 954.999 728C954.999 739.7 957.899 745 963.499 743.6C964.999 743.2 966.299 743.7 967.499 745C969.199 746.9 969.199 747 965.699 748.5C961.299 750.3 960.399 750.3 956.499 748.6Z" fill="#061625"/>
<path d="M120 727.5V706H123C125.5 706 126 706.4 126 708.5V711.1L129.1 708.8C133.3 705.7 142.6 705.6 146.7 708.6C152.1 712.6 153 715.9 153 733.3V749H150H147V734.3C147 717.5 146.3 715.3 140.8 713.2C135.3 711.1 130.6 712.3 128.1 716.4C126.2 719.4 126 721.3 126 734.4V749H123H120V727.5Z" fill="#061625"/>
<path d="M269 719.1C269 692 268.8 689 267.2 687L265.5 684.8L263.6 686.9C261 689.8 259.9 689.5 257.1 685.4C254.8 682.1 254.8 681.8 256.3 680.2C257.9 678.7 258.1 678.7 259.6 680.2C261.2 681.7 261.4 681.7 263 679.7C264.5 677.9 265.2 677.7 267.5 678.5C269.1 679.1 271.2 680.8 272.4 682.3C274.4 685 274.5 686.4 274.8 717.1L275.1 749H272H269V719.1Z" fill="#061625"/>
<path d="M445 742.6C445 736.8 444.7 735.9 442.4 734.1C440.9 732.9 438.3 732 436.4 732C433.3 732 433 731.8 433 728.9V725.7L439 726.3L445 726.8V722.9C445 714.6 435.5 709.4 428.3 713.9C426 715.3 424.9 716.9 424.4 719.5C423.9 722.5 423.4 723 420.9 723C418.4 723 418 722.6 418 720.4C418 716.3 421.9 710.3 425.9 708.3C433.7 704.6 445 707.1 449 713.5C450.8 716.4 451 718.4 451 732.9V749H448H445V742.6Z" fill="#061625"/>
<path d="M459 727.6V706H462.1C464.3 706 465.3 706.5 465.7 708C466.2 709.8 466.3 709.8 468.8 708.2C472.6 705.7 482.1 705.9 485.6 708.6C492.1 713.4 492.5 714.7 492.8 732.6L493.2 749H489.6H486V733.6C486 718.9 485.9 718 483.7 715.5C482.1 713.5 480.2 712.7 476.9 712.3C473.1 711.9 471.9 712.2 469.2 714.5L466.1 717.1L465.8 732.8L465.5 748.5L462.3 748.8L459 749.1V727.6Z" fill="#061625"/>
<path d="M504.7 747.9C502.2 746.4 500 741.6 500 737.5C500 729.8 506.7 723.7 515.3 723.6C518.2 723.5 522 723.9 523.8 724.3C526.9 725.1 527 725 527 722.2C527 718 522.8 713.2 518.4 712.4C513.7 711.5 509.6 713.4 507.4 717.6C506 720.2 504.9 721 502.8 721C500.6 721 500 720.5 500 718.8C500 715.3 503.5 710.3 507.2 708.4C509.1 707.4 512.9 706.6 516 706.6C522.5 706.5 527.4 708.9 530.7 714C532.8 717.1 533 718.4 533 733.1V749H530H527.1L526.8 741.4C526.5 734.3 526.3 733.5 523.7 731.6C519.4 728.4 510.5 728.6 507.9 731.9C503.8 737 506.5 741.9 514.3 743.5C516.4 743.9 517 744.6 517 746.5C517 748.8 516.7 749 511.8 749C508.9 749 505.7 748.5 504.7 747.9Z" fill="#061625"/>
<path d="M563 727.5V706H566H569V727.5V749H566H563V727.5Z" fill="#061625"/>
<path d="M578 727.5V706H581C583.5 706 584 706.4 584 708.5V711.1L587.1 708.8C591.5 705.5 600.3 705.6 604.9 708.9C610.2 712.7 611 716 611 733.5V749H608H605V734.5C605 725.9 604.5 719.1 603.9 717.6C601.3 712 591.1 710.5 586.6 715C584.7 716.9 584.5 718.5 584.2 733L583.9 749H580.9H578V727.5Z" fill="#061625"/>
<path d="M619.2 733.3C619.5 720.9 619.9 716.8 621.3 714.3C626.6 704.3 643.2 703.7 650.4 713.3C652.3 715.9 652.5 717.7 652.8 732.6L653.1 749H650.1H647V734.8C647 718.7 646.3 716.5 641 713.7C633.5 709.8 626 714.3 626 722.7C626 727.4 626 727.4 630.7 726.1C635.5 724.7 638 725.7 638 729C638 731.5 637.7 731.7 634 731.7C627.9 731.7 626.1 733.9 625.8 741.9L625.5 748.5L622.1 748.8L618.8 749.1L619.2 733.3Z" fill="#061625"/>
<path d="M665 726.2V703.4L661.5 698.4C658.7 694.4 658 692.6 658 688.7C658 684.7 658.5 683.3 660.9 680.9C663.8 678.1 664.1 678 673.9 678H684V680.5C684 682.9 683.8 683 676.8 683C667.4 683 664.6 684.4 664.2 689.1C664 691.8 664.5 693.5 666.3 695.6C670.9 701.1 671 701.9 671 725.9V749H668H665V726.2Z" fill="#061625"/>
<path d="M725 726.7V704.3L720.9 698.2C717.1 692.6 716.8 691.7 717.4 687.6C717.9 684.8 719.1 682.2 720.7 680.6C723.1 678.1 723.8 678 733.6 678H744V680.5C744 682.9 743.8 683 737.1 683C728.7 683 725.4 684.1 723.8 687.5C722.5 690.3 723.7 693.2 728.5 699.9C731 703.3 731 703.4 731 726.1V749H728H725V726.7Z" fill="#061625"/>
<path d="M742 747.7C738.8 745.2 737 741.4 737 737.3C737 733.8 737.6 732.3 740.6 729C745.8 723.2 752 721.9 761.8 724.6C763.7 725.2 764 724.9 764 722.1C764 717.6 759.5 713 754.5 712.3C751.1 711.9 749.9 712.2 747.3 714.4C745.5 715.9 743.8 718 743.5 719C742.7 721.5 737 721.9 737 719.4C737 716.7 740.1 711.2 742.5 709.6C749.2 705.2 759.7 705.6 764.8 710.3C769.5 714.6 770 716.9 770 733.5V749H767H764V741.7C764 735.4 763.7 734.1 761.7 732.2C757.2 727.9 746.4 728.5 744 733.1C741.2 738.3 743.9 742.1 751.3 743.4C754.5 744 755.1 744.5 754.8 746.3C754.5 748.2 753.8 748.5 749 748.7C745.8 748.9 742.9 748.5 742 747.7Z" fill="#061625"/>
<path d="M782.5 748.1C779.2 746.7 776.9 743.4 776.3 739.2C775.9 735.9 776.2 734.8 778.7 732L781.6 728.8L778.8 726C776.5 723.6 776 722.3 776 718.2C776 710 781.9 705.3 791 706.2C794 706.5 794.5 706.9 794.5 709C794.5 711.2 794 711.6 789.6 712.1C784.2 712.7 782 714.7 782 719C782 722.7 784.6 724.7 790.3 725.5C794.5 726.1 795.1 726.5 794.8 728.4C794.6 730.1 793.6 730.6 789.7 731.1C784.3 731.7 783 733 783 737.7C783 741.9 785.7 743.4 793.6 743.5C798.3 743.5 800.3 743 801.9 741.6C803.9 739.8 804 738.7 804 722.8V705.9L807.3 706.2L810.5 706.5V723.5C810.5 742.1 810.1 743.8 804.7 747C802.2 748.6 799.7 749 793 748.9C788.3 748.9 783.6 748.5 782.5 748.1Z" fill="#061625"/>
<path d="M866 742.6C866 736.8 865.7 735.9 863.4 734.1C861.9 732.9 859.3 732 857.4 732C854.3 732 854 731.8 854 728.9V725.7L860 726.3L866 726.8V723.7C866 719.5 862.7 714.2 859.2 712.9C855.8 711.6 850.3 712.4 847.9 714.6C846.8 715.6 845.6 717.7 845.2 719.4C844.6 721.8 843.7 722.6 841.7 722.8C839.4 723.1 839 722.8 839 720.5C839 716.5 842.5 710.7 846.2 708.5C853.7 704.1 866.5 707.1 870.1 714.1C871.7 717.4 872 720.1 872 733.5V749H869H866V742.6Z" fill="#061625"/>
<path d="M893 732.5C893 717.3 892.8 715.8 891 714C888.7 711.7 887.1 711.5 883.5 713.2C881.3 714.2 880.6 714.1 878.8 712.2L876.6 710.1L881.1 708.1C886.4 705.6 888 705.6 892.5 707.4C898.2 709.8 899 712.7 899 732V749H896H893V732.5Z" fill="#061625"/>
<path d="M908 732.5V716L911.8 712.2C918.3 705.7 927.1 704.6 934.9 709.3C940.7 712.8 942 717.3 942 734.3V749H939.1H936.1L935.8 733.5C935.5 718.3 935.5 718 932.9 715.4C931.1 713.6 928.8 712.6 925.8 712.3C921.8 711.8 920.9 712.1 917.9 714.8L914.5 717.8L914.1 733.4L913.8 749H910.9H908V732.5Z" fill="#061625"/>
<path d="M857.3 702C850.3 699.2 852.8 688 860.5 688C862.9 688 864.4 688.7 865.9 690.6C868.7 694.2 868.5 696.6 865.1 700.1C862 703.2 860.9 703.4 857.3 702ZM862.8 695.8C863.2 693.5 859.2 691.3 858.4 693.5C857.5 695.8 858.8 698.2 860.7 697.8C861.7 697.6 862.6 696.7 862.8 695.8Z" fill="#061625"/>
<path d="M42 698V695H53.5H65V698V701H53.5H42V698Z" fill="#061625"/>
<path d="M93.7 700.4C93.3 700 93 697.9 93 695.8C93 692.4 93.3 692 95.5 692C97.1 692 98 692.6 98 693.5C98 694.7 99.6 695 106.6 695H115.1L114.8 697.8L114.5 700.5L104.4 700.8C98.9 700.9 94.1 700.8 93.7 700.4Z" fill="#061625"/>
<path d="M187 698V695H196C204.3 695 205 694.9 205 693C205 691.4 205.7 691 208 691C210.9 691 211 691.1 211 696V701H199H187V698Z" fill="#061625"/>
<path d="M227 698V695H236C244.3 695 245 694.9 245 693C245 691.4 245.7 691 248 691C250.9 691 251 691.1 251 696V701H239H227V698Z" fill="#061625"/>
<path d="M331.2 696.8L331.5 692.5L339.8 692.2L348 691.9V695C348 698 347.9 698 342.6 698C338.7 698 337.1 698.4 336.6 699.5C336.3 700.3 334.9 701 333.5 701C331 701 330.9 700.7 331.2 696.8Z" fill="#061625"/>
<path d="M387 698V695H398.5H410V698V701H398.5H387V698Z" fill="#061625"/>
<path d="M425 698V695H437.1H449.1L448.8 697.8L448.5 700.5L436.8 700.8L425 701.1V698Z" fill="#061625"/>
<path d="M474.6 699.4C474.3 698.5 474 696.5 474 694.9C474 692.3 474.4 692 477 692C479 692 480 692.5 480 693.5C480 694.7 481.6 695 488 695H496V698V701H485.6C477.1 701 475.1 700.7 474.6 699.4Z" fill="#061625"/>
<path d="M782 698V695H791C799.3 695 800 694.9 800 693C800 691.4 800.7 691 803 691C805.9 691 806 691.1 806 696V701H794H782V698Z" fill="#061625"/>
<path d="M923.6 699.4C923.3 698.5 923 696.5 923 694.9C923 692.3 923.4 692 926 692C928 692 929 692.5 929 693.5C929 694.7 930.6 695 937 695H945V698V701H934.6C926.1 701 924.1 700.7 923.6 699.4Z" fill="#061625"/>
<path d="M390.6 581.4C385 579.4 380.2 575.5 376.9 570.2C375.3 567.7 374 565.3 374 565C374 564.7 377 562.7 380.6 560.6L387.2 556.8L388.8 559.2C391.7 563.2 395.2 565.9 398.9 567C403.8 568.3 410.6 565.2 411.5 561.1C412.4 556.9 410.8 554 404.4 548.1C382.3 527.8 378 522.2 378 513.5C378 507.8 379.8 503.5 384 498.6C388.8 493.2 392.2 491.8 400.4 491.8C409.2 491.8 413.4 493.5 420 499.6L425.1 504.3L421.8 507.8C420 509.6 417.2 512.1 415.7 513.2L412.9 515.2L410.9 512.6C409.7 511.1 407 509 404.8 507.9C401.3 506.1 400.4 506 397.8 507.1C396.2 507.8 394.4 509.4 393.9 510.8C392.5 514.5 395.5 518.4 407.3 528.3C423.9 542.2 427.7 548.6 426.7 560.5C426.2 567.6 424.3 571.6 419.5 576.3C413.2 582.4 399.7 584.8 390.6 581.4Z" fill="#061625"/>
<path d="M651.7 581C632 576 617.6 554.9 619.3 533.5C620.7 517.7 627.7 505.6 640.1 497.7C646.9 493.4 647.9 493.1 657 491.6C672.4 489.1 687.7 493.6 698.3 503.8L702 507.4L696.8 512.7C693.9 515.6 691.3 518 690.9 518C690.5 518 688 516.2 685.4 514C664.4 496.6 635.1 509.3 635 535.7C635 552.6 644.7 564.3 660.7 566.5C670.1 567.8 678.2 564.9 688.3 556.8L691 554.6L696.5 560L702 565.5L699.3 568C694.1 572.7 689 576.1 683.2 578.8C678.3 581 675.9 581.4 666.5 581.7C660.5 581.8 653.8 581.5 651.7 581Z" fill="#061625"/>
<path d="M227 537.5V494H250.5H274V501.5V509H258.5H243V518V527H258.5H274V534.5V542H258.5H243V554V566H258.5H274V573.5V581H250.5H227V537.5Z" fill="#061625"/>
<path d="M282 580.5C282 580.3 282.9 578.1 283.9 575.8C285 573.4 288.9 563.9 292.6 554.5C296.3 545.2 300.8 533.9 302.6 529.5C304.4 525.1 307.7 516.8 310 511C312.2 505.2 314.8 498.8 315.7 496.7L317.3 492.9L324.4 493.2L331.5 493.5L334.1 500C335.6 503.6 338.6 511.2 341 517C343.3 522.8 345.7 528.9 346.5 530.5C347.2 532.2 349.9 538.7 352.5 545C355.1 551.3 359.2 561.4 361.6 567.3C364 573.2 366 578.7 366 579.5C366 580.7 364.4 581 358.1 581H350.2L348 574.8C346.8 571.3 345.3 567.3 344.8 565.7L343.7 563L324.2 563.2L304.7 563.5L301.6 572.3L298.5 581H290.3C285.7 581 282 580.8 282 580.5ZM336.9 546.5C337.1 546.3 334.9 540.8 332 534.3C329.2 527.8 326.4 521.5 325.9 520.3C325.4 519 324.7 518 324.2 518C323.8 518 321.9 521.7 320 526.3C318.2 530.8 315.4 537.2 313.8 540.4C312.3 543.7 311 546.6 311 546.9C311 547.5 336.2 547.1 336.9 546.5Z" fill="#061625"/>
<path d="M462 562.5V544L448.9 518.5L435.8 493H444.7H453.5L461 508C465.1 516.3 468.8 522.9 469.3 522.7C469.7 522.6 473.3 516 477.4 508L484.8 493.5L493.4 493.2L502.1 492.9L489.5 517.4L477 542V561.5V581H469.5H462V562.5Z" fill="#061625"/>
<path d="M519 536.9V492.8L536.8 493.2C553.2 493.5 554.9 493.7 559.5 496C576 504.2 576.9 529.9 561 538C558.8 539.1 557 540.4 557 540.8C557 541.1 561.3 549.9 566.5 560.2C571.7 570.5 576 579.2 576 579.5C576 579.8 572.1 579.9 567.4 579.8L558.7 579.5L549.3 560.8C540.3 542.7 539.8 542 537 542H534V560.9C534 582.5 534.7 581 524.3 581H519V536.9ZM551.5 525.6C557.1 523.2 558.7 517.5 555 512.7C552.6 509.6 543.9 507.5 538 508.5L534 509.2V518.1V527H541C544.9 527 549.6 526.4 551.5 525.6Z" fill="#061625"/>
<path d="M588 568.2C588 561.7 587.7 542.1 587.3 524.7L586.7 493H594.8H603V536.5V580H595.5H588V568.2Z" fill="#061625"/>
<path d="M718 536V492H742H766V500V508H750H734V516.5V525H750H766V533V541H750H734V552.5V564H750H766V572V580H742H718V536Z" fill="#061625"/>
<path d="M221 462.7V449.3L235.8 442.2C243.9 438.3 257.9 431.6 267 427.2C276.1 422.8 289 416.6 295.8 413.4C302.5 410.2 308 407.3 308 406.8C308 406.4 291.6 406 271.5 406H235V398.6V391.2L240.3 389.4C244.9 387.8 251.3 387.5 298.5 387.1C344.8 386.6 351.9 386.3 355 384.9C359.4 382.8 393.7 366.2 405 360.7L413.5 356.5L397.3 356.2L381 356V352.6C381 349.4 381.2 349.2 385.6 348.6C388.2 348.3 399.7 348 411.3 348H432.3L446.7 340.9C457.9 335.5 462 334 464.7 334.2C468.2 334.5 468.2 334.5 458.4 341L448.5 347.5L472.2 347.8C485.3 347.9 506.6 347.9 519.6 347.8L543.2 347.5L533.6 341.5C528.3 338.3 524 335.2 524 334.8C524 332.7 531.8 334.3 538.8 337.9C543.1 340 549.6 343.2 553.4 344.9L560.2 348H583.5C596.3 348 607.5 348.3 608.4 348.6C609.4 349 610 350.4 610 352.1V355H594C584 355 578 355.4 578 356C578 356.6 578.4 357 578.9 357C579.4 357 586.7 360.3 595.1 364.4C603.6 368.4 617.3 374.9 625.6 378.9L640.7 386H692.1C738.6 386.1 744.1 386.2 750 387.9L756.5 389.7L756.8 397.3L757.1 405L719.8 405.2L682.5 405.5L696 412.1C703.4 415.8 718.1 422.8 728.5 427.7C739 432.7 752.6 439.1 758.8 442L770 447.4V461.2V475H756.9H743.8L735.6 470C731.2 467.2 723 462.1 717.5 458.5C712 455 702.8 449.1 697 445.5C691.2 441.8 680 434.6 672 429.5C664 424.3 656.2 419.3 654.5 418.4C652.9 417.5 647.7 414.2 643 411.1L634.5 405.5L495.6 405.9L356.7 406.3L349.6 410.8C345.7 413.3 342.3 415.7 342 416C341.7 416.4 339.4 417.8 336.9 419.2C334.4 420.6 327.3 425.1 321.2 429.1C315 433.2 303.1 440.9 294.7 446.3C286.4 451.7 272.6 460.6 264.2 466.1L249 476H235H221V462.7ZM568.3 386C599.2 386 603.1 385.8 602 384.5C601.3 383.7 600.3 383 599.8 383C599.3 383 593.6 379.5 587 375.3C580.4 371 570.6 364.8 565.2 361.4L555.5 355.3L494.9 355.8L434.2 356.2L429.9 359.1C424.2 362.8 423.4 363.4 412 370.6C391.6 383.5 389 385.3 389 386.3C389 387 412.1 387.1 461.2 386.7C500.9 386.3 549.1 386 568.3 386Z" fill="#061625"/>
<path d="M390.5 325.1C386.7 324.1 384.6 323 360 309C348.7 302.6 338.6 296.9 337.5 296.3C336.4 295.6 331 292.5 325.5 289.2C320 286 313.7 282.3 311.5 281.1C309.3 279.9 306.8 278.6 306 278C305.2 277.5 294.4 271.3 282 264.2C269.6 257.1 256.4 249.4 252.5 247.2C248.7 244.9 243 241.8 240 240.3C237 238.8 232.2 235.3 229.4 232.5C221.3 224.5 221 222.8 221 188.4V159.2L225.8 156.2C234.8 150.6 254.5 139.2 263.5 134.4C271.2 130.3 273.4 129.6 279.6 129.2C288.8 128.6 290.8 129.6 327 150.4C341.6 158.9 363 171.2 374.5 177.8C386.1 184.4 400.9 193 407.5 196.8C414.1 200.6 421.6 204.9 424.3 206.4L429 209.1V218C429 223 428.7 227 428.3 227C427.8 227 426.2 226.1 424.5 225C419.1 221.4 419 221.6 419 238.8C419 256.1 419.9 261.2 423.8 265.2C426.1 267.7 438.9 276 440.4 276C440.7 276 441 269.7 441 262C441 254.3 441.3 248 441.7 248C442.1 248 443.3 248.9 444.4 249.9C445.6 250.9 448.8 253 451.6 254.4L456.8 257.1L457.2 269C457.6 280.4 457.8 281.2 460.6 285.2C462.8 288.3 466.1 290.9 472.5 294.5C480.2 298.8 481.5 300 481.8 302.4C482.4 307.1 481.2 309.4 477.2 311.7L473.3 313.9L465 309.1C453.6 302.4 449.9 301.3 445.2 302.9C441.3 304.3 427.6 311.8 417.4 318.1C414 320.2 409.6 322.6 407.5 323.4C402.9 325.4 394.6 326.2 390.5 325.1ZM417.2 299.7C425.3 295.2 431.9 291.2 432 290.8C432 289.4 417.7 281.8 413.9 281.3C407.7 280.4 404 281.7 392.5 288.5C386.4 292.1 380.4 295.6 379 296.4C377.7 297.2 376.4 298.2 376.3 298.7C376 299.6 389.3 307.5 392.5 308.3C397.4 309.6 403 307.6 417.2 299.7ZM368 284C371 282.3 375.1 280.2 377 279.2C378.9 278.3 380.7 277.2 381 276.9C381.3 276.6 382.9 275.6 384.5 274.7C386.2 273.8 389 272.3 390.8 271.4C392.5 270.4 394 269.3 394 268.9C394 268.4 390.2 266.1 385.6 263.6C372.8 256.5 370.4 256.9 351.5 268.5C349.3 269.8 345.7 271.9 343.5 273.1C337.1 276.5 336.6 277.1 339.2 278.5C357.2 288.4 359.3 288.8 368 284ZM328.5 262.9C334.9 259.5 356 246.9 356 246.5C356 246.3 352.2 244.1 347.6 241.6C337.3 235.9 332.4 235.5 324.7 239.9C309.3 248.3 300.5 253.9 300.5 255C300.5 255.7 304.1 258.2 308.5 260.6C317.7 265.6 322.3 266.2 328.5 262.9ZM403 236.8C402.9 213.3 402.5 212.3 387.8 204.2C384.6 202.4 381.8 201 381.5 201C380.5 201 381 233.4 382.1 237.1C382.8 239.2 384.6 242.1 386.2 243.6C388.8 246.2 400.6 253.7 402.3 253.9C402.7 254 403 246.2 403 236.8ZM303.6 233.5C311.5 228.8 318 224.7 318 224.5C318 224.2 316.5 223.4 314.8 222.6C313 221.7 309 219.7 306 218C299 214.2 294.2 214.1 287.3 217.8C276.1 223.8 261 232.5 261 233C261 233.7 275.1 241.7 277.5 242.3C278.6 242.6 281.7 242.7 284.3 242.5C288.2 242.2 292 240.4 303.6 233.5ZM364.8 213.7C364.5 196 364.4 195.2 362 191.7C360 188.8 349.2 181.3 343.8 179.2C343.4 179 343 186.7 343 196.2C343 218.5 343.7 220.2 355.5 227.1C359.9 229.7 363.9 231.9 364.3 231.9C364.8 232 365 223.8 364.8 213.7ZM255.3 217.5C257.9 216 260 214.5 260 214.1C260 213.7 256.5 211.4 252.3 209C248 206.6 242.8 203.6 240.8 202.3L237 200V205.2C237.1 212.9 238.5 217.8 241.6 221.1L244.3 224L247.4 222.1C249.1 221.1 252.6 219 255.3 217.5ZM326.9 191.7C326.5 173.4 326.5 173.3 323.7 169.7C321.3 166.5 307.1 157 304.8 157C304.3 157 304 164.1 304 172.8C304 195.7 305.4 198.8 319 206.4C322.6 208.3 325.9 210 326.4 210C326.8 210 327.1 201.8 326.9 191.7ZM285.1 200C288.9 198 289 197.8 288.4 194.2C286.9 186.2 285 183.8 275 177.8C257.8 167.4 252.6 165 247.5 165C240.9 165 237 167.5 237 171.7C237 176.2 239.2 181 242.6 184.1C245 186.2 259 194.4 271 200.7C274.6 202.6 280.5 202.3 285.1 200ZM288 156.5C288 145.8 287.8 145.5 280.5 145.5C276.1 145.5 264.7 150.7 265.3 152.4C265.6 153.4 285.7 165.8 287.3 165.9C287.7 166 288 161.7 288 156.5Z" fill="#061625"/>
<path d="M585 323.7C583.1 323 578.4 320.6 574.5 318.3C543.5 300.2 541.8 299.7 531.5 305.5C528.2 307.4 523.6 309.9 521.4 311.1L517.2 313.3L513.4 311.3C509.7 309.4 509.5 309.1 509.5 304.4V299.6L517 295.4C532.5 286.7 533.6 284.9 533.3 269.2L533.1 257.9L537.7 255.2C540.2 253.7 543.8 251.5 545.7 250.3C547.6 249 549.3 248 549.5 248C549.8 248 550.1 254.3 550.2 262L550.5 275.9L558.3 271.4C563.6 268.3 566.9 265.6 568.8 262.8C571.5 258.7 571.5 258.4 571.8 240.3C572 230.2 571.8 222 571.3 222C570.9 222 568.6 223.1 566.3 224.4C564 225.7 562 226.7 561.8 226.5C561.6 226.3 561.6 222.2 561.8 217.3L562.1 208.4L575.7 200.4C583.2 196.1 593 190.4 597.4 187.9C601.9 185.4 609.6 180.9 614.5 178C619.5 175.1 625.8 171.5 628.5 170C631.3 168.4 640.4 163.1 648.8 158.1C657.3 153.1 664.3 149 664.5 149C664.6 149 669.5 146.1 675.2 142.6C698.1 128.8 705.6 126 714.2 128C720 129.4 741.4 140.2 744 143C744.3 143.3 745.4 144 746.6 144.5C747.7 145.1 753.5 148.2 759.4 151.5L770.1 157.5L769.8 187.5C769.5 216.6 769.4 217.7 767.1 222.7C764.2 229.3 759.8 233.3 748.4 239.7C734.2 247.8 703.6 265.8 702.3 267C701.6 267.5 700.8 268 700.5 268C700.2 268 698.3 269.1 696.2 270.3C694.2 271.6 688.2 275.1 683 278C677.8 280.9 669.9 285.4 665.5 288C661.1 290.7 655.9 293.7 654 294.8C652.1 295.8 646.5 299.1 641.5 302C603.1 324.4 603.3 324.3 595.6 324.7C591.3 324.9 587.1 324.5 585 323.7ZM608.3 302.8L616 298.3L600.4 289.5C580.8 278.5 579.6 278.3 568 284.3C563.3 286.7 559.5 289.3 559.5 290C559.5 290.7 566.3 295 574.5 299.7C589 307.8 589.7 308.1 595.1 307.7C599.5 307.5 602.2 306.5 608.3 302.8ZM640.6 283.9C643.3 282.7 645.7 281.4 646 281C646.3 280.6 648.2 279.4 650.3 278.3L654.1 276.4L638.9 267.6C622.6 258.1 617.8 256.6 611.8 259.1C606.6 261.2 597.5 267 597.5 268.1C597.5 268.6 604.3 272.9 612.5 277.5C629.3 287 632.1 287.6 640.6 283.9ZM682.5 259.6C686.8 257.2 690.5 254.9 690.7 254.4C691 253.5 677.9 245.6 664.1 238.2C657.8 234.8 651.6 235.5 642.6 240.6C638.8 242.7 635.5 245 635.4 245.5C635.1 246.4 642.3 250.9 658.9 260.2C668.2 265.4 672.1 265.3 682.5 259.6ZM595.5 249.5C603.4 245 607.5 240.9 608.7 236.1C609.3 234.1 609.5 225.2 609.2 216.3L608.7 200L602.1 203.7C588.5 211.2 588 212.2 588 235.5C588 245.1 588.3 253 588.6 253C588.9 253 592 251.4 595.5 249.5ZM721.5 236.9C725.6 234.6 729 232.4 729 232C729 231.4 717 224.2 704.9 217.6C695.5 212.4 690.9 212.6 680.8 218.6C676.5 221 673 223.4 673 223.8C673 224.6 700.1 240.1 703.4 241.2C707.8 242.7 714 241.3 721.5 236.9ZM633.6 227.4C643.2 222 645.6 219.4 647 212.5C648.2 206.7 648 179.7 646.8 178.5C645.6 177.3 630.9 187.3 628.5 190.8C626.1 194.4 626 194.9 626 212.7C626 222.8 626.3 231 626.6 231C626.9 231 630 229.4 633.6 227.4ZM753 213C754 209.4 754.4 199 753.5 199C753 199 748.9 201.2 740 206.3C737 208.1 733.6 210 732.6 210.5C731.5 211.1 730.5 212 730.4 212.5C730.2 213.1 733.8 215.6 738.3 218.1L746.5 222.7L749.3 219.6C750.8 217.9 752.5 215 753 213ZM674.9 203.4C678.5 201.5 681.3 199.1 683.1 196.2C685.7 192.1 685.8 191.7 685.9 174C686.1 154.5 686 154 680.9 157.8C679.6 158.8 677.3 160.2 675.8 160.9C670.5 163.6 666.1 168.1 665 171.8C664.5 173.8 664 183.3 664 192.8V210.1L666.8 208.2C668.3 207.2 671.9 205 674.9 203.4ZM721 198.6C730 194 745.6 184.8 747.8 182.7C750.9 179.8 752.8 176.1 753.6 171.3C754.2 167.5 754.1 167.3 750.1 165.6C744.8 163.1 737.9 163.4 732.7 166.2C727.3 169 716.7 175.3 716 176C715.7 176.3 713.8 177.4 711.6 178.5C705.7 181.5 702.6 186.2 702.5 192.4C702.5 197.2 702.7 197.6 706 199.2C710.7 201.6 715.6 201.4 721 198.6ZM714.9 158.1C721 154.5 725.7 151.3 725.3 150.9C722.7 148.6 712.2 144 709.3 144C702.6 144 702 144.9 702 155.6C702 160.9 702.4 165 702.8 164.8C703.3 164.7 708.7 161.6 714.9 158.1Z" fill="#061625"/>
<path d="M490.3 314.2L487 312.5V293.3C487 282.8 486.6 273.1 486.1 271.8C484.5 267.6 480 264.2 463.4 254.6C445.1 244 441 240.7 437.8 234.1L435.5 229.5V135.5V41.5L438.8 36.3C440.8 33.2 444.3 29.7 447.5 27.5C450.4 25.6 453.1 24 453.3 24C453.6 24 456.9 22.1 460.6 19.8C470.3 14 483.5 6.2 489.8 2.8L495 0L509.3 8.1C517.1 12.6 526.2 17.9 529.5 19.9C532.8 21.9 537.2 24.4 539.3 25.4C544.9 28.3 550 33.7 552.9 39.9L555.5 45.5V136C555.5 222.4 555.4 226.7 553.6 231.4C551.4 237.1 546.1 243.3 541.1 246.1C539.1 247.2 535.7 249.2 533.5 250.5C531.3 251.8 528.8 253.2 528 253.6C526.7 254.3 518.2 259.4 510.8 263.8C509.3 264.7 507.2 267.1 506 269.1C504.2 272.5 504 274.5 504 292.6V312.5L499.7 314.3C494.7 316.3 494.4 316.3 490.3 314.2ZM486.5 230.3C485.7 224.5 482.6 221.7 467.3 212.8C449.1 202.2 450.8 202.1 451.2 214.4C451.4 223.1 451.9 225.3 453.6 227.7C456.1 231.1 463.2 235.9 476.5 243.3L486.5 248.8L486.8 241.7C487 237.7 486.8 232.6 486.5 230.3ZM515.7 242.4C527.1 236.2 535.4 230.3 537.4 226.9C538.8 224.5 539.4 221 539.8 213.7L540.3 203.8L537.9 204.5C533.7 205.7 510.4 220 507.4 223.1C504.6 226 504.5 226.5 504.2 237.7L503.8 249.3L506.3 247.7C507.7 246.8 511.9 244.4 515.7 242.4ZM487 197.3C487 180.7 486.3 179.8 465.5 168.1L451.5 160.2L451.2 168.3C450.9 177.1 451.9 182.2 454.8 185.6C456.5 187.6 484.5 204.8 486.3 204.9C486.7 205 487 201.5 487 197.3ZM519.2 196.4C526.3 192.2 533.4 187.5 534.9 185.9C538.4 182.5 540 176.4 540 167.1C540 158.9 539.6 158.7 532.9 162.8C530.4 164.3 527.5 166 526.4 166.7C525.4 167.3 521.6 169.4 518.2 171.2C505.8 177.6 503 182.6 503 197.5C503 204.2 503.2 205.1 504.6 204.6C505.5 204.2 512.1 200.5 519.2 196.4ZM487 152.6C487 143.5 485.8 138.7 482.7 135.3C481.1 133.5 461.6 121.4 453.3 117.1L451 115.9V125C451 139.3 452.7 141.7 469 151.2C474.2 154.2 480.1 157.6 482 158.8C483.9 159.9 485.8 160.9 486.3 160.9C486.7 161 487 157.2 487 152.6ZM511.3 156.9C538.1 141.5 539 140.5 539 125.5C539 116.9 538.8 115.9 537.3 116.4C532.5 118.3 507.2 134.4 505.6 136.6C504.2 138.6 503.6 141.6 503.2 150.1C502.9 156.1 503 161 503.4 161C503.8 161 507.4 159.1 511.3 156.9ZM487 108.8C486.9 99.1 485.2 93.4 481.3 90.1C479.8 88.8 472.4 84.2 465 79.9L451.5 72L451.2 81.5C450.9 92.4 452.3 96.6 457.3 100.3C461.2 103 485.2 116.9 486.3 117C486.7 117 487 113.3 487 108.8ZM513.4 111.8C537.8 97.9 539 96.5 539 81.5C539 76.3 538.8 72 538.5 72C537.8 72 531.7 75.3 526.5 78.5C524.3 79.9 519.9 82.4 516.7 84.1C505.4 90.3 503 94.5 503 108C503 112.9 503.3 117 503.6 117C504 117 508.4 114.7 513.4 111.8ZM498.2 76.3C499.8 75.3 502.1 72.9 503.3 71C505.4 67.7 505.5 66.3 505.5 48.5C505.5 27.3 505.1 25.6 498.5 21.1C494.4 18.4 492.6 18.8 487.9 23.6L484.5 27.1L484.2 47.3L483.9 67.5L486.4 70.9C488.5 73.8 493.5 78 494.8 78C495 78 496.5 77.2 498.2 76.3ZM467.5 35.2C466.8 34.5 459.2 38.7 456.2 41.4C453.3 43.9 451 48.2 451 50.9C451 52.2 453.4 54.3 459.3 57.8L467.5 62.8L467.8 49.2C467.9 41.8 467.8 35.5 467.5 35.2ZM539 51.2C539 47.6 534.7 42 529.3 38.6C526.1 36.6 523.2 35 522.8 35C522.4 35 522 41.3 522 48.9V62.9L530.5 57.7C535.2 54.9 539 52 539 51.2Z" fill="#061625"/>
</svg>
