<svg id="Layer_1" data-name="Layer 1" xmlns="http://www.w3.org/2000/svg" xmlns:xlink="http://www.w3.org/1999/xlink" viewBox="0 0 271.95 130"><defs><style>.cls-1{fill:none;}.cls-2{clip-path:url(#clip-path);}.cls-3{fill:#0ec963;}.cls-4{fill:#fff;}.cls-5{fill:#0070a8;}.cls-6{fill:#ff672b;}</style><clipPath id="clip-path"><rect class="cls-1" x="-29.03" y="-62" width="330" height="256"/></clipPath></defs><title>LMWN-RGB-color</title><g class="cls-2"><path class="cls-3" d="M97.59,1.08H30.41A30.4,30.4,0,0,0,0,31.48V98.67a30.41,30.41,0,0,0,30.41,30.41H97.59A30.41,30.41,0,0,0,128,98.67V31.48A30.4,30.4,0,0,0,97.59,1.08M45.2,91.69a7.41,7.41,0,0,1-14.82,0V47L45.2,61.78Zm45,7.41a7.35,7.35,0,0,1-7.41-7.41V61.78L97.61,47V91.69A7.35,7.35,0,0,1,90.2,99.1m5.23-55.37-21,21L64,75.16,53.52,64.68l-21-21A7.41,7.41,0,0,1,43.05,33.25l21,21,21-21A7.41,7.41,0,0,1,95.43,43.73"/><path class="cls-4" d="M45.2,91.69a7.41,7.41,0,0,1-14.82,0V47L45.2,61.78Z"/><path class="cls-4" d="M90.2,99.1a7.35,7.35,0,0,1-7.41-7.41V61.78L97.61,47V91.69A7.35,7.35,0,0,1,90.2,99.1"/><path class="cls-4" d="M95.43,43.73l-21,21L64,75.16,53.52,64.68l-21-21A7.41,7.41,0,0,1,43.05,33.25l21,21,21-21A7.41,7.41,0,0,1,95.43,43.73"/><path class="cls-5" d="M236.39,1H179.5A35.56,35.56,0,0,0,144,36.56V93.44A35.56,35.56,0,0,0,179.5,129h56.89A35.56,35.56,0,0,0,272,93.44V36.56A35.56,35.56,0,0,0,236.39,1"/><path class="cls-6" d="M242.91,33a46.35,46.35,0,0,0-74.23,54.18,4.38,4.38,0,0,1,.43,1,5.36,5.36,0,0,1,.12,2.15l-1.44,10.91a5.26,5.26,0,0,0,5.25,5.26l11.15-1.46a4.83,4.83,0,0,1,2.94.55h0A46.34,46.34,0,0,0,242.91,33"/><path class="cls-4" d="M209.42,113a48.09,48.09,0,0,1-23.08-5.92,3.17,3.17,0,0,0-1.92-.37l-11.16,1.46H173a7,7,0,0,1-7-7,1.79,1.79,0,0,1,0-.23l1.44-10.89a3.66,3.66,0,0,0-.07-1.46,3.22,3.22,0,0,0-.28-.69,48,48,0,0,1,42.17-71h.58a48,48,0,0,1-.51,96m-24.59-9.73a6.57,6.57,0,0,1,3.12.79,44.51,44.51,0,1,0-17.76-17.74,6.63,6.63,0,0,1,.57,1.4,7.18,7.18,0,0,1,.17,2.84l-1.43,10.77a3.54,3.54,0,0,0,3.44,3.43l11-1.44a8.43,8.43,0,0,1,.86,0"/><path class="cls-4" d="M195.09,75.81c.59-1.42,1-2.3,1.34-3.19,2.85-7.18,5.68-14.36,8.55-21.53a11,11,0,0,1,1.36-2.64,3,3,0,0,1,4.9,0,9.37,9.37,0,0,1,1.28,2.4Q217,61.9,221.37,73c.3.75.64,1.48,1.14,2.62.42-1,.71-1.68.94-2.33,2.68-7.77,5.34-15.55,8.05-23.31.94-2.7,3.19-3.58,5.46-2.23a3.27,3.27,0,0,1,1.65,3.8,19.11,19.11,0,0,1-.64,1.89Q232.11,69.75,226.24,86a13.13,13.13,0,0,1-1,2.28,3.1,3.1,0,0,1-5.37.3A11.74,11.74,0,0,1,218.55,86q-4.34-11-8.63-22c-.29-.75-.64-1.47-1.12-2.56-.51,1.18-.89,2-1.21,2.8q-4.32,11-8.63,22a12.93,12.93,0,0,1-1,2.27,3.17,3.17,0,0,1-5.4.11,9.45,9.45,0,0,1-1-2.26q-6-16.51-11.93-33a12.48,12.48,0,0,1-.48-1.42,3.44,3.44,0,0,1,2.43-4.49c2.11-.68,3.68.07,4.48,2.34,2.42,6.89,4.77,13.81,7.16,20.71.56,1.63,1.16,3.24,1.93,5.37"/></g></svg>