<svg width="110" height="76" viewBox="0 0 110 76" fill="none" xmlns="http://www.w3.org/2000/svg">
<path d="M35.3946 15.6098C35.3414 15.6111 35.2884 15.6018 35.2391 15.5826C35.1897 15.5634 35.145 15.5346 35.1077 15.4981C34.9625 15.3383 34.784 15.2096 34.5836 15.1205C34.3832 15.0313 34.1655 14.9836 33.9447 14.9806C33.5731 15.0227 33.2308 15.1951 32.9833 15.4646C32.9108 15.5359 32.8132 15.5786 32.7096 15.5842C32.606 15.5898 32.5039 15.5579 32.4236 15.4948C32.3433 15.4317 32.2905 15.3419 32.2757 15.2433C32.2609 15.1447 32.2852 15.0443 32.3436 14.9619C32.5416 14.7219 32.793 14.5275 33.0793 14.3927C33.3656 14.258 33.6796 14.1864 33.9984 14.1832C34.3172 14.18 34.6328 14.2453 34.922 14.3742C35.2111 14.5031 35.4667 14.6925 35.6699 14.9284C35.7282 14.9839 35.768 15.0548 35.7844 15.1321C35.8007 15.2093 35.7928 15.2895 35.7617 15.3625C35.7306 15.4354 35.6776 15.4979 35.6095 15.5419C35.5414 15.5859 35.4612 15.6095 35.3791 15.6098H35.3946Z" fill="#652D8F"/>
<path d="M19.434 32.7329C19.1549 32.7322 18.8834 32.6461 18.6586 32.4872C16.5457 31.0137 14.8485 29.0577 13.7203 26.7961C12.5922 24.5344 12.0687 22.0384 12.1973 19.5336C12.3258 17.0289 13.1023 14.5944 14.4566 12.4502C15.8109 10.3061 17.7002 8.51988 19.9538 7.25311C22.2073 5.98634 24.7541 5.27894 27.3639 5.19485C29.9736 5.11077 32.564 5.65265 34.9009 6.77152C37.2378 7.89039 39.2475 9.55096 40.7484 11.6031C42.2492 13.6553 43.1939 16.0343 43.497 18.5252H44.5747H44.6135H45.699C46.0014 16.0331 46.9459 13.6527 48.447 11.5994C49.9481 9.54602 51.9585 7.88442 54.2964 6.76485C56.6343 5.64527 59.2259 5.10305 61.8368 5.18721C64.4477 5.27137 66.9956 5.97926 69.2501 7.24686C71.5045 8.51446 73.3944 10.3018 74.7488 12.4472C76.1032 14.5926 76.8793 17.0284 77.0071 19.5343C77.1349 22.0403 76.6103 24.5373 75.4806 26.7995C74.351 29.0617 72.652 31.0178 70.5373 32.4909C70.3955 32.5899 70.2348 32.6612 70.0643 32.7005C69.8939 32.7399 69.717 32.7466 69.5439 32.7203C69.3707 32.6941 69.2047 32.6353 69.0552 32.5474C68.9057 32.4595 68.7756 32.3441 68.6726 32.208C68.5695 32.0718 68.4953 31.9175 68.4543 31.7538C68.4133 31.5901 68.4063 31.4202 68.4337 31.2539C68.461 31.0876 68.5222 30.9281 68.6138 30.7846C68.7053 30.641 68.8254 30.5161 68.9672 30.4171C70.7136 29.2004 72.1184 27.5867 73.056 25.7205C73.9936 23.8543 74.4346 21.794 74.3396 19.7239C74.2445 17.6539 73.6164 15.6388 72.5113 13.8591C71.4063 12.0795 69.859 10.5908 68.0079 9.52649C66.1567 8.46215 64.0597 7.85536 61.9044 7.76047C59.7492 7.66557 57.6031 8.08554 55.6583 8.98274C53.7136 9.87995 52.0309 11.2264 50.761 12.9015C49.491 14.5766 48.6735 16.528 48.3817 18.581C49.7075 18.6145 51.2621 18.6592 52.8244 18.7225C61.6518 19.0948 62.2372 19.657 62.7101 20.1075C63.1249 20.5059 63.5591 21.2729 63.28 22.6691C62.7993 25.0594 60.5081 28.3544 57.8526 29.4453C56.7729 29.8929 55.6092 30.1235 54.4333 30.123C52.7717 30.1221 51.1448 29.6664 49.7434 28.8091C48.342 27.9518 47.2241 26.7286 46.5208 25.2828H46.4821C45.9888 23.9294 45.7003 22.5151 45.6253 21.083H44.6096H43.5861C43.5064 22.5207 43.2127 23.94 42.7139 25.2977H42.6712C41.7124 27.2689 39.991 28.8034 37.8729 29.5751C35.7548 30.3468 33.4068 30.2949 31.3278 29.4304C28.4707 28.2539 26.3656 24.6982 25.943 22.5797C25.7221 21.4814 25.9043 20.6437 26.478 20.0926C26.9432 19.6458 27.4744 19.1358 36.3211 18.7448C37.9028 18.6741 39.469 18.622 40.8065 18.581C40.5173 16.5268 39.702 14.5736 38.4336 12.8965C37.1651 11.2193 35.4832 9.87067 33.5386 8.97134C31.5939 8.07202 29.4473 7.65014 27.2911 7.74352C25.135 7.8369 23.0366 8.44263 21.1842 9.5064C19.3317 10.5702 17.783 12.0588 16.6769 13.8387C15.5708 15.6187 14.9418 17.6345 14.8463 19.7053C14.7509 21.7762 15.1919 23.8374 16.1299 25.7043C17.068 27.5712 18.4736 29.1854 20.221 30.4022C20.4494 30.5604 20.6198 30.784 20.7077 31.0409C20.7957 31.2979 20.7967 31.575 20.7106 31.8325C20.6245 32.09 20.4558 32.3147 20.2285 32.4745C20.0013 32.6342 19.7272 32.7208 19.4456 32.7218L19.434 32.7329ZM28.525 21.9617C28.6723 23.1717 30.378 26.262 32.3784 27.0885C33.1082 27.3893 33.8925 27.549 34.6866 27.5586C35.4806 27.5681 36.2689 27.4272 37.0062 27.144C37.7435 26.8609 38.4156 26.4409 38.9838 25.9082C39.5521 25.3754 40.0055 24.7403 40.318 24.0392C40.628 23.1003 40.8194 22.1291 40.8879 21.1463C35.4023 21.3064 30.1454 21.6117 28.525 21.9617ZM48.8624 24.0392C49.4961 25.4532 50.6877 26.5682 52.176 27.1398C53.6643 27.7114 55.3278 27.6929 56.802 27.0885C58.8993 26.2248 60.6205 23.0935 60.702 21.9542C59.1513 21.5819 53.8401 21.2654 48.2964 21.1314C48.367 22.12 48.5583 23.0972 48.8663 24.043L48.8624 24.0392Z" fill="#652D8F"/>
<path d="M56.4993 15.6097C56.4385 15.6088 56.3787 15.5954 56.3238 15.5704C56.269 15.5453 56.2204 15.5092 56.1814 15.4645C55.9336 15.1952 55.5914 15.023 55.2199 14.9804C54.9989 14.9821 54.7807 15.0291 54.5801 15.1184C54.3796 15.2077 54.2012 15.3371 54.0569 15.498C53.9783 15.571 53.8726 15.6111 53.7632 15.6094C53.6538 15.6076 53.5496 15.5642 53.4735 15.4887C53.3974 15.4131 53.3557 15.3117 53.3575 15.2066C53.3593 15.1015 53.4045 15.0014 53.4832 14.9283C53.686 14.6924 53.9412 14.5031 54.2301 14.3742C54.5189 14.2452 54.8342 14.18 55.1527 14.1832C55.4712 14.1864 55.7849 14.258 56.0709 14.3927C56.3569 14.5275 56.6079 14.7219 56.8055 14.9618C56.8745 15.0435 56.9071 15.148 56.8962 15.2526C56.8854 15.3572 56.8318 15.4534 56.7474 15.5203C56.6768 15.5749 56.5898 15.6062 56.4993 15.6097Z" fill="#652D8F"/>
<path d="M0 35.5257C0 34.5577 5.7768e-08 33.4481 0.0348908 32.5173C2.7176 32.4466 5.99733 32.4131 9.09097 32.4131C10.7696 32.4131 12.4831 32.4131 14.5727 33.02C17.5888 33.9508 19.5659 36.8847 19.5659 39.9302C19.5659 42.7562 17.6663 45.3699 15.1658 46.5874C13.4523 47.4102 10.8433 47.7043 9.94773 47.7043C9.46314 47.7043 8.45906 47.7043 8.19932 47.6671L8.16055 52.645L11.5527 52.753C11.5527 53.6838 11.5527 54.7561 11.5139 55.7316C9.6531 55.7316 7.07894 55.6981 4.80717 55.6981C3.20219 55.6981 1.48867 55.7316 0.0348908 55.7316C0.0348908 54.7672 0.0736577 53.695 0.108548 52.753L1.86084 52.645C1.88114 52.6467 1.90158 52.6441 1.92073 52.6374C1.93988 52.6307 1.95728 52.6201 1.97169 52.6063C1.9861 52.5924 1.99717 52.5757 2.00414 52.5573C2.01112 52.5389 2.01381 52.5193 2.01203 52.4998V35.5964L0 35.5257ZM8.19932 44.2939C8.19932 44.6662 8.87 44.6662 9.50191 44.6662C10.4388 44.6731 11.3441 44.3408 12.0373 43.7354C12.8127 42.9907 13.2662 41.6951 13.2662 40.1201C13.2662 37.4692 11.5876 35.3209 9.46314 35.3209C9.06303 35.2996 8.66185 35.336 8.27298 35.4289L8.19932 44.2939Z" fill="#652D8F"/>
<path d="M30.4475 54.4989C28.2145 55.5712 26.4234 56.0739 25.0201 56.0739C23.0817 56.0739 20.2129 54.175 20.2129 51.8852C20.2129 49.9157 22.6746 46.4791 28.5983 46.4791H30.3894C30.5018 44.7255 29.7923 43.6495 28.1176 43.6495C26.8848 43.6495 24.9115 44.6883 23.419 45.6563C22.7226 44.8451 22.0754 43.996 21.4806 43.1133C24.1633 41.0023 26.908 39.5688 30.5018 39.5688C33.3706 39.5688 36.2045 41.8959 36.2045 44.9414C36.2045 47.302 36.1657 50.7013 36.1308 52.2427C36.1308 52.4586 36.1308 52.5294 36.3169 52.4921L38.2902 52.4214C38.2902 53.3522 38.3289 54.4245 38.2902 55.3553C37.6931 55.5712 35.0492 56.0739 32.0874 56.0739C31.5753 55.5826 31.101 55.0563 30.6685 54.4989H30.4475ZM27.8385 52.6373C28.7275 52.5846 29.5873 52.3128 30.3351 51.848C30.362 51.8194 30.3828 51.7858 30.3961 51.7494C30.4094 51.713 30.415 51.6743 30.4126 51.6358V49.1636C30.1555 49.1322 29.8963 49.1197 29.6373 49.1263C27.1755 49.1263 26.1482 50.1316 26.1482 51.2746C26.1249 52.1012 27.0941 52.6373 27.8385 52.6373Z" fill="#652D8F"/>
<path d="M39.6904 43.5785C39.6904 42.6142 39.7292 41.5382 39.7292 40.6446C41.5939 40.5366 47.0718 39.6058 47.2966 39.6058C47.3703 39.6058 47.3703 39.6431 47.3703 39.7138C47.5563 40.4584 47.7075 41.1808 47.8936 41.9477L48.0797 41.9812C51.6928 39.8739 52.5147 39.5835 54.2282 39.5835C55.8293 39.5835 57.3606 40.9797 58.105 42.1637C58.7004 43.1248 58.9977 44.2292 58.9617 45.347C58.9617 47.3874 58.8881 50.3585 58.8144 52.652L60.6753 52.7599C60.6753 53.6908 60.6753 54.763 60.6404 55.6938H55.8293C54.2282 55.6938 52.4759 55.7274 51.1772 55.7274C51.1772 54.8003 51.2121 53.7243 51.2121 52.7935L52.7047 52.6855C52.7428 52.6829 52.7788 52.6671 52.8058 52.6412C52.8329 52.6152 52.8493 52.5807 52.852 52.544C52.8908 51.0771 52.852 49.0702 52.852 47.7038C52.852 46.0209 52.852 45.1609 52.5574 44.6247C52.4378 44.3662 52.2362 44.1506 51.9813 44.0088C51.7265 43.8671 51.4314 43.8064 51.1385 43.8354C50.3205 43.8354 49.0528 44.4088 48.1572 45.0901C48.1185 47.2012 48.0448 50.6042 48.0448 52.6445L49.6498 52.7525C49.6498 53.7168 49.6498 54.7556 49.611 55.6864H44.9589C43.4315 55.6864 41.4931 55.7199 40.0393 55.7199C40.0393 54.7928 40.0781 53.7168 40.0781 52.786L41.904 52.678C41.9238 52.6798 41.9438 52.6773 41.9625 52.6708C41.9812 52.6643 41.9981 52.6539 42.0122 52.6404C42.0262 52.6269 42.037 52.6106 42.0438 52.5927C42.0506 52.5747 42.0532 52.5556 42.0514 52.5366V43.6492L39.6904 43.5785Z" fill="#652D8F"/>
<path d="M65.8932 54.9977C65.4459 54.67 65.0921 54.2392 64.8644 53.7452C64.6367 53.2512 64.5425 52.71 64.5906 52.1718C64.5906 50.165 64.6255 48.4485 64.6255 48.0167C64.6255 47.272 64.6642 43.6493 64.6642 43.3291H62.0552C62.0552 42.3276 62.0939 41.2888 62.1676 40.2873C62.9119 40.25 63.8462 40.1421 64.5906 40.1086C64.6639 40.1019 64.7318 40.0685 64.7801 40.0151C64.8285 39.9617 64.8536 39.8925 64.8503 39.8219C64.924 38.8538 65.0364 37.7071 65.11 36.8433C66.9107 36.0698 68.7673 35.4228 70.6654 34.9072C70.7391 34.9072 70.7779 34.9445 70.7779 35.0524C70.7391 35.8418 70.7003 39.0958 70.6654 40.0639C72.565 40.0639 74.6546 40.0266 76.4069 40.0266C76.4069 41.0654 76.3681 42.3201 76.2557 43.3775C74.705 43.3775 72.3789 43.344 70.6654 43.344V46.3226C70.6267 47.7895 70.6267 49.0778 70.6267 50.6862C70.6292 50.9004 70.6756 51.1119 70.7633 51.3089C70.851 51.5058 70.9782 51.6842 71.1377 51.8339C71.2972 51.9836 71.4858 52.1017 71.6928 52.1814C71.8998 52.2611 72.1211 52.3008 72.3441 52.2983C73.716 52.2852 75.0808 52.1076 76.4069 51.7697C76.593 52.7377 76.7403 53.8435 76.8527 54.778C74.2633 55.6844 71.5212 56.1212 68.7658 56.0662C67.6989 56.0885 66.6661 55.7043 65.8932 54.9977Z" fill="#652D8F"/>
<path d="M78.1201 43.6156C78.1201 42.614 78.155 41.5045 78.1938 40.5365C80.2058 40.395 86.2458 39.5684 86.5443 39.5684C86.6179 39.5684 86.6179 39.6057 86.6179 39.6764C86.5792 43.5783 86.5055 49.0552 86.5055 52.6369L88.5563 52.7449V55.6788H83.4119C81.8108 55.6788 79.8336 55.7123 78.3411 55.7123C78.3411 54.7852 78.3411 53.7092 78.3799 52.7784L80.3531 52.6704C80.3756 52.6754 80.399 52.6749 80.4211 52.6688C80.4433 52.6627 80.4634 52.6513 80.4797 52.6356C80.496 52.62 80.5079 52.6006 80.5142 52.5794C80.5205 52.5581 80.5211 52.5356 80.5159 52.5141V43.6863L78.1201 43.6156ZM86.4668 34.2703C86.477 35.1245 86.1336 35.9476 85.512 36.5585C84.8904 37.1695 84.0415 37.5183 83.1521 37.5281C82.2628 37.538 81.4057 37.2082 80.7696 36.6112C80.1334 36.0142 79.7703 35.1989 79.76 34.3448C79.76 32.8555 81.1401 31.3662 83.187 31.3662C85.3503 31.3737 86.4668 32.8034 86.4668 34.2703Z" fill="#652D8F"/>
<path d="M98.0234 41.6457C101.788 39.7134 102.195 39.5682 103.761 39.5682C106.862 39.5682 109.464 42.9191 109.425 46.6423C109.391 48.3013 108.995 49.9351 108.262 51.4378C107.638 52.8062 106.665 54.0011 105.432 54.9115C104.239 55.6389 102.863 56.0405 101.45 56.0732C100.334 56.1106 99.2199 55.9399 98.1707 55.5705L97.9109 55.6413C97.9458 57.4321 97.9458 59.2565 97.9458 61.0846L100.966 61.1889C100.966 62.1569 100.966 63.1957 100.931 64.1265C99.1399 64.1265 96.903 64.1265 94.9297 64.1637C93.4372 64.1637 91.4988 64.1637 90.0101 64.1972C90.0101 63.2664 90.0101 62.2276 90.045 61.2633L91.8361 61.1181C91.9446 61.1181 91.9834 61.0474 91.9834 60.9394L92.0222 43.6488L89.6729 43.6153C89.6729 42.6473 89.7116 41.6085 89.7465 40.6814C91.4988 40.4655 97.1123 39.5347 97.3139 39.5347C97.3876 39.5347 97.3876 39.5682 97.3876 39.6054C97.5388 40.2868 97.6473 40.9309 97.7985 41.6085L98.0234 41.6457ZM102.458 44.6541C102.318 44.3931 102.111 44.1706 101.857 44.0078C101.603 43.8449 101.309 43.747 101.005 43.7233C99.9624 43.8137 98.9615 44.1585 98.097 44.7248C98.0583 46.7279 98.0234 49.5911 98.0234 51.5979C98.0234 52.3127 99.512 52.8489 100.295 52.8489C100.667 52.8575 101.036 52.7769 101.368 52.6144C101.699 52.4519 101.984 52.2126 102.195 51.9181C102.718 51.1734 103.052 49.8778 103.052 47.9826C103.052 46.337 102.831 45.1902 102.458 44.6541Z" fill="#652D8F"/>
<path d="M1.13965 58.6768H2.13597V63.1223H4.38061V63.9228H1.13965V58.6768Z" fill="#652D8F"/>
<path d="M6.39655 62.2947C6.42369 62.9798 6.97419 63.2776 7.61385 63.2776C7.98588 63.2823 8.35588 63.2243 8.70709 63.1064L8.85441 63.7579C8.41591 63.9266 7.94657 64.0089 7.47429 64C6.19496 64 5.44287 63.2553 5.44287 62.0862C5.44287 61.0363 6.10579 60.0459 7.38124 60.0459C8.65669 60.0459 9.08314 61.0586 9.08314 61.9075C9.08443 62.0421 9.07406 62.1766 9.05212 62.3096L6.39655 62.2947ZM8.13333 61.6283C8.14917 61.5146 8.13989 61.3991 8.10609 61.2892C8.07229 61.1792 8.01473 61.0774 7.93718 60.9903C7.85963 60.9031 7.76382 60.8327 7.656 60.7835C7.54819 60.7343 7.43078 60.7076 7.31146 60.7049C7.06526 60.7199 6.83409 60.8239 6.66438 60.9958C6.49467 61.1678 6.39899 61.3951 6.39655 61.632L8.13333 61.6283Z" fill="#652D8F"/>
<path d="M13.6269 63.0139C13.6204 63.3179 13.6412 63.6219 13.689 63.9224H12.7896L12.7198 63.5017H12.6927C12.5529 63.6668 12.3751 63.7985 12.1732 63.8864C11.9714 63.9743 11.7511 64.0159 11.5296 64.008C11.3705 64.0183 11.2109 63.9969 11.0607 63.9454C10.9105 63.8938 10.773 63.8132 10.6566 63.7084C10.5403 63.6037 10.4476 63.4771 10.3844 63.3364C10.3212 63.1958 10.2887 63.0442 10.2891 62.8911C10.2891 61.9417 11.173 61.4502 12.6151 61.4614V61.3981C12.6151 61.1486 12.5104 60.7353 11.8126 60.7353C11.4402 60.7356 11.0746 60.8321 10.7543 61.0146L10.5566 60.3928C10.9935 60.1633 11.4853 60.0478 11.9832 60.0577C13.2509 60.0577 13.6153 60.8284 13.6153 61.6624L13.6269 63.0139ZM12.6733 62.072C11.9677 62.072 11.2931 62.2023 11.2931 62.7794C11.2887 62.8501 11.2998 62.9209 11.3258 62.9872C11.3519 63.0535 11.3922 63.1138 11.4442 63.1641C11.4962 63.2143 11.5586 63.2535 11.6275 63.2789C11.6963 63.3044 11.77 63.3156 11.8436 63.3118C12.0132 63.3128 12.1789 63.2632 12.3178 63.1698C12.4567 63.0764 12.5619 62.9439 12.619 62.7906C12.6413 62.7233 12.6505 62.6526 12.6461 62.5821L12.6733 62.072Z" fill="#652D8F"/>
<path d="M15.3865 61.3529C15.3865 60.8391 15.3865 60.4668 15.3516 60.1317H16.2122L16.251 60.8503H16.2781C16.347 60.6231 16.4893 60.4228 16.6843 60.2783C16.8794 60.1337 17.1173 60.0524 17.3636 60.0461C17.442 60.0445 17.5203 60.0532 17.5962 60.0722V60.9657C17.4976 60.9497 17.3977 60.9422 17.2977 60.9434C17.0827 60.9377 16.8729 61.0081 16.7085 61.1413C16.5441 61.2745 16.4364 61.4612 16.406 61.6657C16.39 61.7605 16.3822 61.8564 16.3828 61.9524V63.922H15.3865V61.3529Z" fill="#652D8F"/>
<path d="M18.9378 61.2602C18.9378 60.8246 18.9378 60.4597 18.9067 60.1432H19.7751L19.8217 60.7129H19.8449C19.9785 60.5071 20.1657 60.3384 20.3881 60.2235C20.6104 60.1085 20.8602 60.0513 21.1126 60.0576C21.7988 60.0576 22.5121 60.4858 22.5121 61.6846V63.9186H21.5158V61.7777C21.5158 61.2341 21.3064 60.8209 20.7637 60.8209C20.5895 60.825 20.421 60.8814 20.2819 60.9822C20.1428 61.0831 20.0402 61.2233 19.9884 61.3831C19.9541 61.4802 19.9371 61.5821 19.938 61.6846V63.9186H18.9416L18.9378 61.2602Z" fill="#652D8F"/>
<path d="M23.7915 64.8644C24.0319 64.195 24.2134 63.5076 24.3342 62.8091L25.381 62.731C25.1563 63.4513 24.8522 64.1465 24.4738 64.8048L23.7915 64.8644Z" fill="#652D8F"/>
<path d="M31.6184 62.8799C32.022 63.0981 32.4771 63.2135 32.9403 63.215C33.5723 63.215 33.9289 62.9283 33.9289 62.5001C33.9289 62.0719 33.6537 61.8672 32.9636 61.6289C32.0564 61.3161 31.4788 60.8582 31.4788 60.1024C31.4788 59.2386 32.227 58.5907 33.4172 58.5907C33.8682 58.5798 34.3156 58.6703 34.7237 58.8551L34.4872 59.6258C34.1486 59.4604 33.7738 59.3749 33.3939 59.3763C32.7581 59.3763 32.4945 59.6965 32.4945 60.0093C32.4945 60.4151 32.8085 60.6013 33.5374 60.8731C34.4872 61.2156 34.9408 61.6735 34.9408 62.4294C34.9408 63.2783 34.274 64.008 32.8744 64.008C32.3584 64.0144 31.8487 63.8994 31.3896 63.6729L31.6184 62.8799Z" fill="#652D8F"/>
<path d="M36.4652 58.397H37.4615V60.6309C37.5842 60.4496 37.7539 60.3021 37.9539 60.2027C38.1651 60.0905 38.4025 60.0316 38.6439 60.0315C39.3185 60.0315 40.0202 60.4596 40.0202 61.6734V63.9073H39.0355V61.7739C39.0355 61.2303 38.8261 60.8096 38.2601 60.8096C38.0888 60.8121 37.9224 60.8653 37.7837 60.9619C37.6449 61.0585 37.5406 61.1939 37.4848 61.3495C37.4557 61.4424 37.4426 61.5392 37.446 61.6362V63.9073H36.4497L36.4652 58.397Z" fill="#652D8F"/>
<path d="M44.8501 63.014C44.8427 63.3182 44.8647 63.6223 44.916 63.9225H44.0166L43.9429 63.5018H43.9158C43.776 63.6669 43.5982 63.7986 43.3964 63.8865C43.1945 63.9744 42.9742 64.016 42.7528 64.0081C42.5936 64.0183 42.434 63.997 42.2839 63.9455C42.1337 63.8939 41.9961 63.8133 41.8798 63.7085C41.7634 63.6038 41.6708 63.4771 41.6075 63.3365C41.5443 63.1959 41.5119 63.0443 41.5122 62.8912C41.5122 61.9417 42.3961 61.4503 43.8576 61.4614V61.3981C43.8576 61.1487 43.7491 60.7354 43.0552 60.7354C42.6814 60.7352 42.3145 60.8317 41.9929 61.0147L41.7991 60.3929C42.2358 60.1629 42.7278 60.0473 43.2257 60.0578C44.4896 60.0578 44.854 60.8285 44.854 61.6625L44.8501 63.014ZM43.877 62.072C43.1715 62.072 42.5008 62.2024 42.5008 62.7795C42.4954 62.8517 42.5064 62.9241 42.5332 62.9918C42.5599 63.0595 42.6016 63.1209 42.6554 63.1715C42.7093 63.2222 42.774 63.261 42.845 63.2852C42.916 63.3094 42.9917 63.3185 43.0668 63.3119C43.2362 63.3123 43.4016 63.2625 43.5404 63.1692C43.6792 63.0759 43.7846 62.9437 43.8421 62.7906C43.8614 62.7228 43.8692 62.6524 43.8654 62.5821L43.877 62.072Z" fill="#652D8F"/>
<path d="M46.5915 61.3529C46.5915 60.8391 46.5915 60.4668 46.5566 60.1317H47.4173L47.456 60.8503H47.4832C47.5521 60.6231 47.6943 60.4228 47.8894 60.2782C48.0845 60.1337 48.3224 60.0524 48.5687 60.046C48.6484 60.0446 48.7279 60.0534 48.8052 60.0721V60.9657C48.7053 60.9495 48.6041 60.942 48.5028 60.9433C48.2877 60.9376 48.078 61.0081 47.9136 61.1413C47.7492 61.2745 47.6415 61.4611 47.6111 61.6656C47.5951 61.7604 47.5873 61.8563 47.5879 61.9523V63.9219H46.5915V61.3529Z" fill="#652D8F"/>
<path d="M50.7969 62.2947C50.8202 62.9798 51.3707 63.2777 52.0103 63.2777C52.3824 63.2823 52.7524 63.2243 53.1036 63.1064L53.2509 63.758C52.8137 63.9263 52.3456 64.0086 51.8746 64C50.5914 64 49.8394 63.2553 49.8394 62.0862C49.8394 61.0363 50.5023 60.0459 51.7777 60.0459C53.0532 60.0459 53.4796 61.0586 53.4796 61.9075C53.4809 62.0421 53.4705 62.1766 53.4486 62.3096L50.7969 62.2947ZM52.5298 61.6283C52.5456 61.515 52.5364 61.3997 52.5029 61.29C52.4693 61.1804 52.4121 61.0787 52.335 60.9916C52.2578 60.9045 52.1625 60.834 52.0551 60.7846C51.9478 60.7352 51.8308 60.7081 51.7118 60.7049C51.4653 60.7191 51.2336 60.8227 51.0637 60.9949C50.8938 61.1671 50.7984 61.3948 50.7969 61.632L52.5298 61.6283Z" fill="#652D8F"/>
<path d="M62.4467 63.9221C62.3343 63.8142 62.2335 63.7062 62.0939 63.5498C61.7439 63.8378 61.2948 63.9904 60.834 63.978C59.8532 63.978 59.3608 63.386 59.3608 62.7605C59.3667 62.4961 59.4512 62.2389 59.6044 62.0192C59.7576 61.7995 59.9731 61.6265 60.2254 61.5207C60.0056 61.2824 59.8782 60.9786 59.8648 60.6606C59.8644 60.5068 59.897 60.3545 59.9608 60.2134C60.0245 60.0722 60.1178 59.9452 60.235 59.8404C60.3522 59.7355 60.4907 59.655 60.6418 59.604C60.7929 59.5529 60.9534 59.5324 61.1131 59.5436C61.253 59.5313 61.394 59.5469 61.5274 59.5894C61.6607 59.6319 61.7834 59.7003 61.8879 59.7905C61.9924 59.8807 62.0763 59.9907 62.1345 60.1135C62.1926 60.2363 62.2237 60.3693 62.2258 60.5042C62.2258 60.951 61.9544 61.3122 61.3031 61.6212C61.6132 61.9637 61.9583 62.3658 62.2025 62.6004C62.419 62.2519 62.5576 61.8639 62.6096 61.4611H63.3384C63.2664 62.0503 63.0247 62.6086 62.6406 63.0733C62.8926 63.3413 63.1329 63.6019 63.4159 63.8812L62.4467 63.9221ZM61.7102 63.1217C61.4388 62.8536 61.0123 62.377 60.5898 61.9302C60.4546 62.0072 60.3421 62.116 60.2627 62.2462C60.1834 62.3765 60.1398 62.524 60.1362 62.6749C60.136 62.7765 60.1575 62.8772 60.1993 62.9705C60.2412 63.0639 60.3025 63.1481 60.3795 63.2179C60.4565 63.2876 60.5475 63.3415 60.647 63.3762C60.7465 63.4109 60.8524 63.4256 60.9581 63.4195C61.0977 63.4198 61.2359 63.3936 61.365 63.3425C61.494 63.2914 61.6113 63.2163 61.7102 63.1217ZM60.6014 60.5787C60.6152 60.8396 60.7316 61.0858 60.927 61.2675C61.3147 61.0367 61.5241 60.8393 61.5241 60.5415C61.5299 60.4809 61.5227 60.4197 61.5029 60.3619C61.4831 60.3041 61.4511 60.2508 61.4089 60.2054C61.3667 60.16 61.3153 60.1234 61.2577 60.098C61.2001 60.0725 61.1377 60.0587 61.0744 60.0574C61.0069 60.0597 60.9406 60.0752 60.8796 60.103C60.8187 60.1309 60.7643 60.1705 60.7199 60.2194C60.6756 60.2683 60.6422 60.3254 60.6218 60.3872C60.6014 60.449 60.5945 60.5142 60.6014 60.5787Z" fill="#652D8F"/>
<path d="M69.3008 58.6768H72.4603V59.4624H70.2971V60.9107H72.3091V61.6888H70.2971V63.9228H69.3008V58.6768Z" fill="#652D8F"/>
<path d="M77.3568 62.7862C77.3568 63.2367 77.3568 63.6127 77.3878 63.9031H76.5233L76.4729 63.3372H76.4496C76.3149 63.5434 76.1262 63.7121 75.9024 63.8264C75.6786 63.9407 75.4275 63.9967 75.1742 63.9888C74.4608 63.9888 73.8057 63.5755 73.8057 62.3394V60.1055H74.802V62.1942C74.802 62.8271 75.0152 63.2292 75.5425 63.2292C75.7113 63.2319 75.8768 63.1838 76.0159 63.0917C76.1549 62.9996 76.2604 62.868 76.3178 62.7154C76.3586 62.6224 76.3784 62.5222 76.376 62.4213V60.1315H77.3723L77.3568 62.7862Z" fill="#652D8F"/>
<path d="M79.1204 61.2602C79.1204 60.8245 79.1204 60.4597 79.0894 60.1432H79.9539L80.0043 60.7128H80.0275C80.1605 60.5074 80.3471 60.3388 80.5687 60.2239C80.7904 60.1089 81.0395 60.0516 81.2913 60.0576C81.9814 60.0576 82.6947 60.4857 82.6947 61.6846V63.9185H81.6984V61.7777C81.6984 61.2341 81.4852 60.8208 80.9424 60.8208C80.7682 60.8249 80.5997 60.8814 80.4607 60.9822C80.3216 61.0831 80.2189 61.2232 80.1671 61.383C80.1309 61.4797 80.1138 61.5819 80.1167 61.6846V63.9185H79.1204V61.2602Z" fill="#652D8F"/>
</svg>
