<svg width="147" height="76" viewBox="0 0 147 76" fill="none" xmlns="http://www.w3.org/2000/svg">
<path d="M32.757 34.4541L16.8541 25L0.951172 34.4541V52.6226L10.1063 58.0566L15.3622 54.9337L16.0819 55.343L16.1466 55.3815L16.8602 55.7908L32.7605 46.1354L32.757 34.4541ZM22.6192 48.9212L16.7676 52.387L10.654 48.7518L15.1892 46.0541L16.7694 46.9891L18.077 46.205L22.6192 48.9212ZM19.0029 45.6792L23.5696 42.943V48.4096L19.0029 45.6792ZM16.7746 43.348L2.29636 34.73L16.8541 26.0784L31.3297 34.6822L16.7746 43.348ZM9.55602 50.5597V56.6545L1.90329 52.1128V35.5761L16.765 44.4214V45.9107L9.55514 41.649V49.1727L16.765 53.4604V54.6671L15.3526 53.8587L15.3482 53.8604L9.55602 50.5597Z" fill="#54AAFA"/>
<path d="M47.0248 35.4239C47.8284 36.0805 48.2311 37.0885 48.2311 38.4487C48.2311 39.8088 47.8179 40.8042 46.9925 41.434C46.1662 42.0638 44.9057 42.3791 43.2102 42.3791H41.6685V45.4332H39.124V34.4395H43.177C44.938 34.4395 46.2203 34.7682 47.0248 35.4239ZM45.0952 39.8524C45.3984 39.5254 45.5503 39.0474 45.5503 38.4176C45.5503 37.7887 45.3529 37.3418 44.9572 37.0768C44.5615 36.8118 43.9475 36.6793 43.1142 36.6793H41.6685V40.3439H43.3736C44.2183 40.3439 44.7921 40.1795 45.0952 39.8524Z" fill="#0766A0"/>
<path d="M54.8658 44.7464C54.1705 45.2873 53.3643 45.5573 52.4497 45.5573C51.5343 45.5573 50.7831 45.3325 50.1952 44.8839C49.6074 44.4344 49.313 43.8206 49.313 43.0416C49.313 42.1669 49.9218 41.3921 51.1395 40.7162C50.8661 40.3984 50.6678 40.1183 50.5429 39.8751C50.4188 39.6327 50.3568 39.3485 50.3568 39.0223C50.3568 38.3464 50.6119 37.8298 51.1211 37.4717C51.6304 37.1137 52.2331 36.9351 52.9284 36.9351C53.6237 36.9351 54.2186 37.1078 54.7112 37.4541C55.2039 37.8005 55.4502 38.2835 55.4502 38.9032C55.4502 39.6822 54.858 40.4059 53.6735 41.0734C54.1373 41.6302 54.485 42.0319 54.7173 42.2776C54.9243 41.912 55.0816 41.5262 55.189 41.1204L56.6425 42.1225C56.4521 42.6231 56.2197 43.0885 55.9472 43.5179L57.1771 44.6868L55.9472 45.808L54.8658 44.7464ZM51.5247 43.7929C51.7649 43.9757 52.075 44.0671 52.4567 44.0671C52.8376 44.0671 53.2472 43.8927 53.6866 43.543C53.0821 42.9309 52.5598 42.374 52.1213 41.8734C51.4836 42.255 51.1648 42.6642 51.1648 43.1019C51.1639 43.3795 51.2845 43.6101 51.5247 43.7929ZM52.9284 38.3422C52.7458 38.3422 52.5825 38.4034 52.4375 38.5267C52.2925 38.6499 52.22 38.8168 52.22 39.0273C52.22 39.2378 52.386 39.5422 52.717 39.9397C53.3381 39.6218 53.649 39.3233 53.649 39.0449C53.649 38.8143 53.5748 38.639 53.4254 38.52C53.2761 38.4026 53.1101 38.3422 52.9284 38.3422Z" fill="#0766A0"/>
<path d="M63.51 36.476V45.4336H60.9655V36.476H57.7842V34.4399H66.9035V36.476H63.51Z" fill="#0766A0"/>
<path d="M79.8397 34.4399H82.3842V45.4336H79.8397V41.1586H75.1744V45.4336H72.6299V34.4399H75.1744V39.1225H79.8397V34.4399Z" fill="#54AAFA"/>
<path d="M94.6637 43.9429C93.5046 45.0297 92.0781 45.5723 90.3836 45.5723C88.6881 45.5723 87.2617 45.0289 86.1025 43.9429C84.9434 42.8562 84.3643 41.5052 84.3643 39.8884C84.3643 38.2725 84.9434 36.9207 86.1025 35.8339C87.2617 34.7471 88.6881 34.2046 90.3836 34.2046C92.0781 34.2046 93.5054 34.748 94.6637 35.8339C95.822 36.9199 96.402 38.2717 96.402 39.8884C96.402 41.5052 95.822 42.8562 94.6637 43.9429ZM93.7946 39.896C93.7946 38.9149 93.467 38.0771 92.8101 37.3845C92.1541 36.6918 91.3479 36.3455 90.3914 36.3455C89.4341 36.3455 88.6278 36.6918 87.9718 37.3845C87.3158 38.0771 86.9874 38.9149 86.9874 39.896C86.9874 40.878 87.3149 41.7123 87.9718 42.4C88.6278 43.0876 89.4341 43.4314 90.3914 43.4314C91.3479 43.4314 92.1541 43.0876 92.8101 42.4C93.4661 41.7123 93.7946 40.878 93.7946 39.896Z" fill="#54AAFA"/>
<path d="M100.986 36.6521C100.74 36.8467 100.618 37.1033 100.618 37.4236C100.618 37.7439 100.768 37.998 101.068 38.1867C101.369 38.3754 102.063 38.5993 103.152 38.8559C104.239 39.1133 105.085 39.4991 105.686 40.0131C106.287 40.5272 106.588 41.2785 106.588 42.2647C106.588 43.2517 106.203 44.0517 105.432 44.6655C104.661 45.2793 103.646 45.5863 102.389 45.5863C100.574 45.5863 98.9389 44.9406 97.4854 43.6492L99.0105 41.8546C100.246 42.8936 101.389 43.4135 102.438 43.4135C102.908 43.4135 103.278 43.3162 103.546 43.1225C103.813 42.928 103.948 42.6655 103.948 42.3351C103.948 42.0047 103.805 41.7422 103.521 41.5477C103.236 41.354 102.674 41.1569 101.832 40.9573C100.498 40.6529 99.5215 40.2563 98.9039 39.7682C98.2864 39.2802 97.9771 38.5137 97.9771 37.4697C97.9771 36.4257 98.3685 35.6198 99.1502 35.0529C99.932 34.4861 100.908 34.2026 102.078 34.2026C102.843 34.2026 103.609 34.3284 104.375 34.5808C105.14 34.8332 105.806 35.1896 106.376 35.6517L105.08 37.4462C104.086 36.7217 103.057 36.3603 101.997 36.3603C101.568 36.3611 101.232 36.4584 100.986 36.6521Z" fill="#54AAFA"/>
<path d="M113.346 36.476V45.4336H110.801V36.476H107.62V34.4399H116.739V36.476H113.346Z" fill="#54AAFA"/>
<path d="M118.224 34.4399H120.768V45.4336H118.224V34.4399Z" fill="#54AAFA"/>
<path d="M131.584 34.4399H134.129V45.4336H131.558L126.071 38.5448V45.4336H123.526V34.4399H125.933L131.585 41.5175V34.4399H131.584Z" fill="#54AAFA"/>
<path d="M144.308 39.9365H146.852V43.8409C145.728 45.0594 144.172 45.6673 142.184 45.6673C140.52 45.6673 139.123 45.1315 137.994 44.0615C136.865 42.9906 136.3 41.6397 136.3 40.007C136.3 38.3751 136.876 37.0133 138.026 35.9214C139.178 34.8296 140.566 34.2837 142.192 34.2837C143.819 34.2837 145.231 34.8036 146.431 35.8426L145.118 37.6849C144.61 37.2548 144.143 36.9579 143.716 36.7952C143.289 36.6325 142.827 36.5512 142.331 36.5512C141.369 36.5512 140.559 36.869 139.899 37.5038C139.24 38.1386 138.91 38.9764 138.91 40.0153C138.91 41.0543 139.227 41.8862 139.859 42.5109C140.49 43.1357 141.244 43.4476 142.12 43.4476C142.996 43.4476 143.725 43.2849 144.309 42.9596V39.9365H144.308Z" fill="#54AAFA"/>
<path d="M43.3605 53.9701C42.8967 54.2795 42.3883 54.4347 41.8336 54.4347C41.0807 54.4347 40.4386 54.1688 39.9076 53.6363C39.3852 53.1131 39.124 52.4867 39.124 51.7563C39.124 51.3932 39.193 51.0493 39.3319 50.724C39.4708 50.3995 39.6621 50.1135 39.9076 49.8686C40.4386 49.337 41.0807 49.0703 41.8336 49.0703C42.39 49.0703 42.8958 49.2221 43.3526 49.5265C43.8086 49.8309 44.1388 50.2309 44.344 50.7273H43.7282C43.4339 50.2099 42.9962 49.8686 42.4136 49.7026C42.2241 49.6489 42.0048 49.6221 41.7541 49.6221C41.5034 49.6221 41.2475 49.68 40.9863 49.7948C40.7251 49.9097 40.4972 50.0649 40.3032 50.2594C39.8901 50.672 39.6839 51.1709 39.6839 51.7554C39.6839 52.3349 39.8901 52.8313 40.3032 53.2439C40.7278 53.6682 41.2379 53.8804 41.8336 53.8804C42.2389 53.8804 42.6101 53.7781 42.9491 53.5735C43.2871 53.3688 43.55 53.098 43.7361 52.76H44.3519C44.1501 53.2615 43.8199 53.664 43.3605 53.9701Z" fill="#7F7F7F"/>
<path d="M51.5888 53.8971C51.2263 54.2401 50.793 54.4112 50.2899 54.4112C49.7868 54.4112 49.3535 54.2401 48.991 53.8971C48.6311 53.5575 48.4512 53.1432 48.4512 52.6544C48.4512 52.168 48.6311 51.7529 48.991 51.4074C49.3509 51.0619 49.7833 50.8892 50.2899 50.8892C50.7965 50.8892 51.2289 51.0619 51.5888 51.4074C51.9487 51.7529 52.1286 52.168 52.1286 52.6544C52.1286 53.1424 51.9487 53.5567 51.5888 53.8971ZM51.1931 51.7864C50.9424 51.5458 50.6419 51.4258 50.2899 51.4258C49.9379 51.4258 49.6374 51.5458 49.3867 51.7864C49.136 52.0271 49.0111 52.3156 49.0111 52.6535C49.0111 52.9856 49.136 53.2724 49.3867 53.5131C49.6374 53.7537 49.9379 53.8736 50.2899 53.8736C50.6419 53.8736 50.9424 53.7537 51.1931 53.5131C51.4438 53.2724 51.5687 52.9864 51.5687 52.6535C51.5687 52.3156 51.4438 52.0271 51.1931 51.7864Z" fill="#7F7F7F"/>
<path d="M61.0483 52.232C61.0483 51.8831 60.9338 51.6383 60.705 51.4991C60.6246 51.4504 60.5023 51.4261 60.3372 51.4261C60.1721 51.4261 60.0175 51.4722 59.8734 51.5645C59.7293 51.6567 59.6148 51.7741 59.5292 51.9175C59.4952 51.9754 59.4646 52.0374 59.4375 52.1029C59.4401 52.1448 59.441 52.1884 59.441 52.2328V54.3435H58.8811V52.2328C58.8811 51.884 58.7667 51.6391 58.537 51.4999C58.4566 51.4513 58.3343 51.427 58.1692 51.427C58.0041 51.427 57.8495 51.4731 57.7054 51.5653C57.5613 51.6576 57.4468 51.775 57.3621 51.9184C57.2485 52.1096 57.176 52.3427 57.1463 52.6161V54.3435H56.5864V50.9674H57.1463V51.5058C57.252 51.3339 57.3839 51.193 57.542 51.0831C57.7255 50.9548 57.9403 50.8911 58.1858 50.8911C58.4313 50.8911 58.6278 50.928 58.7772 51.0026C58.9265 51.0764 59.0506 51.1754 59.1493 51.2978C59.2069 51.3699 59.2567 51.4479 59.2969 51.5326C59.4052 51.3481 59.5423 51.1989 59.7083 51.0831C59.8917 50.9548 60.1066 50.8911 60.3521 50.8911C60.5975 50.8911 60.7941 50.928 60.9434 51.0026C61.0928 51.0773 61.2168 51.1754 61.3147 51.2978C61.5095 51.5402 61.6064 51.8521 61.6064 52.2337V54.3444H61.0465V52.232H61.0483Z" fill="#7F7F7F"/>
<path d="M66.187 56.2754V50.9806H66.7469V51.5575C66.7784 51.5181 66.8116 51.4796 66.8465 51.4418C67.1784 51.0838 67.5881 50.9043 68.0738 50.9043C68.5595 50.9043 68.9682 51.0829 69.3011 51.4418C69.6234 51.789 69.785 52.1982 69.785 52.6695C69.785 53.1408 69.6234 53.55 69.3011 53.8972C68.9691 54.2552 68.5595 54.4347 68.0738 54.4347C67.5881 54.4347 67.1793 54.2561 66.8465 53.8972C66.8116 53.8594 66.7784 53.82 66.7469 53.7815V56.2762H66.187V56.2754ZM68.8687 51.81C68.6302 51.5643 68.3358 51.4418 67.9856 51.4418C67.6353 51.4418 67.3409 51.5643 67.1024 51.81C66.8657 52.054 66.7469 52.3408 66.7469 52.6695C66.7469 52.9982 66.8657 53.285 67.1024 53.529C67.3409 53.7747 67.6353 53.8972 67.9856 53.8972C68.3358 53.8972 68.6302 53.7747 68.8687 53.529C69.1054 53.285 69.2242 52.9982 69.2242 52.6695C69.2242 52.3408 69.1063 52.054 68.8687 51.81Z" fill="#7F7F7F"/>
<path d="M77.0409 54.3574V53.7805C77.0095 53.8199 76.9763 53.8585 76.9414 53.8962C76.6094 54.2543 76.1998 54.4337 75.7141 54.4337C75.2284 54.4337 74.8196 54.2551 74.4868 53.8962C74.1645 53.549 74.0029 53.1398 74.0029 52.6685C74.0029 52.1972 74.1637 51.788 74.4868 51.4408C74.8188 51.0828 75.2284 50.9033 75.7141 50.9033C76.1998 50.9033 76.6086 51.0819 76.9414 51.4408C76.9763 51.4786 77.0095 51.5172 77.0409 51.5566V50.9796H77.6009V54.3557H77.0409V54.3574ZM76.6854 51.8098C76.447 51.5641 76.1526 51.4417 75.8023 51.4417C75.4521 51.4417 75.1577 51.5641 74.9192 51.8098C74.6825 52.0538 74.5637 52.3406 74.5637 52.6694C74.5637 52.9981 74.6825 53.2849 74.9192 53.5289C75.1577 53.7746 75.4521 53.897 75.8023 53.897C76.1526 53.897 76.447 53.7746 76.6854 53.5289C76.9222 53.2849 77.0409 52.9981 77.0409 52.6694C77.0409 52.3406 76.9222 52.0538 76.6854 51.8098Z" fill="#7F7F7F"/>
<path d="M84.7295 52.2471C84.7295 52.0274 84.6779 51.8387 84.574 51.6828C84.47 51.5268 84.298 51.4488 84.0586 51.4488C83.8184 51.4488 83.6245 51.4924 83.4751 51.5788C83.3258 51.666 83.2044 51.7792 83.1118 51.9201C82.9441 52.1733 82.8602 52.5146 82.8602 52.9448V54.357H82.3003V50.9809H82.8602V51.5612C82.9772 51.3725 83.1266 51.2182 83.3074 51.0999C83.4996 50.975 83.7206 50.9121 83.9713 50.9121C84.222 50.9121 84.4246 50.9465 84.5784 51.0161C84.733 51.0849 84.8631 51.1796 84.9697 51.3004C85.1828 51.541 85.2894 51.8563 85.2894 52.248V54.3578H84.7295V52.2471Z" fill="#7F7F7F"/>
<path d="M89.6364 56.2757L90.8191 53.8044L89.3481 50.981H89.9875L91.1144 53.2443L92.1215 50.981H92.7452L90.3151 56.2757H89.6364Z" fill="#7F7F7F"/>
<path d="M104.926 53.8197V54.3573H102.983H102.704H102.424V49.1396H102.984V53.8206H104.926V53.8197Z" fill="#7F7F7F"/>
<path d="M109.857 50.0566C109.857 50.1514 109.822 50.2319 109.753 50.2981C109.684 50.3644 109.6 50.3979 109.502 50.3979C109.403 50.3979 109.319 50.3644 109.25 50.2981C109.181 50.2319 109.146 50.1514 109.146 50.0566C109.146 49.9619 109.181 49.8814 109.25 49.8151C109.319 49.7489 109.403 49.7153 109.502 49.7153C109.6 49.7153 109.684 49.7489 109.753 49.8151C109.822 49.8814 109.857 49.9619 109.857 50.0566ZM109.225 54.3577V50.9816H109.785V54.3577H109.225Z" fill="#7F7F7F"/>
<path d="M118.978 52.232C118.978 51.8831 118.864 51.6383 118.635 51.4991C118.554 51.4504 118.432 51.4261 118.267 51.4261C118.102 51.4261 117.947 51.4722 117.803 51.5645C117.659 51.6567 117.545 51.7741 117.459 51.9175C117.425 51.9754 117.394 52.0374 117.367 52.1029C117.37 52.1448 117.371 52.1884 117.371 52.2328V54.3435H116.811V52.2328C116.811 51.884 116.696 51.6391 116.467 51.4999C116.386 51.4513 116.264 51.427 116.099 51.427C115.934 51.427 115.779 51.4731 115.635 51.5653C115.491 51.6576 115.377 51.775 115.292 51.9184C115.178 52.1096 115.106 52.3427 115.076 52.6161V54.3435H114.516V50.9674H115.076V51.5058C115.182 51.3339 115.314 51.193 115.472 51.0831C115.655 50.9548 115.87 50.8911 116.115 50.8911C116.361 50.8911 116.557 50.928 116.707 51.0026C116.856 51.0764 116.98 51.1754 117.079 51.2978C117.137 51.3699 117.186 51.4479 117.227 51.5326C117.335 51.3481 117.472 51.1989 117.638 51.0831C117.821 50.9548 118.036 50.8911 118.282 50.8911C118.527 50.8911 118.724 50.928 118.873 51.0026C119.022 51.0773 119.147 51.1754 119.244 51.2978C119.439 51.5402 119.536 51.8521 119.536 52.2337V54.3444H118.976V52.232H118.978Z" fill="#7F7F7F"/>
<path d="M124.787 50.0566C124.787 50.1514 124.752 50.2319 124.683 50.2981C124.614 50.3644 124.53 50.3979 124.432 50.3979C124.333 50.3979 124.249 50.3644 124.18 50.2981C124.111 50.2319 124.076 50.1514 124.076 50.0566C124.076 49.9619 124.111 49.8814 124.18 49.8151C124.249 49.7489 124.333 49.7153 124.432 49.7153C124.53 49.7153 124.614 49.7489 124.683 49.8151C124.752 49.8814 124.787 49.9619 124.787 50.0566ZM124.156 54.3577V50.9816H124.716V54.3577H124.156Z" fill="#7F7F7F"/>
<path d="M129.007 50.9803H129.887V49.668H130.447V50.9803H131.318V51.4793H130.447V54.3573H129.887V51.4793H129.007V50.9803Z" fill="#7F7F7F"/>
<path d="M139.014 52.8757H135.921C135.975 53.1659 136.121 53.4032 136.36 53.5894C136.604 53.7789 136.876 53.8736 137.175 53.8736C137.378 53.8736 137.571 53.8292 137.754 53.7395C137.938 53.6497 138.091 53.5256 138.214 53.3671H138.853C138.704 53.6892 138.478 53.9441 138.178 54.1311C137.877 54.3181 137.571 54.4112 137.259 54.4112C136.947 54.4112 136.681 54.365 136.46 54.2728C136.239 54.1806 136.044 54.0556 135.876 53.8971C135.516 53.5575 135.336 53.1432 135.336 52.6544C135.336 52.168 135.516 51.7529 135.876 51.4074C136.236 51.0619 136.669 50.8892 137.175 50.8892C137.667 50.8892 138.094 51.0552 138.458 51.3881C138.829 51.7269 139.014 52.1286 139.014 52.5931V52.8757ZM137.971 51.7017C137.739 51.5173 137.475 51.4258 137.175 51.4258C136.719 51.4258 136.36 51.6238 136.096 52.0204C136.016 52.1403 135.96 52.272 135.929 52.4154H138.422C138.359 52.1286 138.208 51.8904 137.971 51.7017Z" fill="#7F7F7F"/>
<path d="M146.232 54.3575V53.7806C146.2 53.82 146.167 53.8586 146.132 53.8963C145.8 54.2544 145.391 54.4338 144.905 54.4338C144.419 54.4338 144.011 54.2552 143.678 53.8963C143.355 53.5491 143.194 53.1399 143.194 52.6686C143.194 52.1974 143.355 51.7881 143.678 51.441C144.01 51.0829 144.419 50.9034 144.905 50.9034C145.391 50.9034 145.799 51.0821 146.132 51.441C146.167 51.4787 146.2 51.5173 146.232 51.5567V48.6016H146.792V54.3567H146.232V54.3575ZM145.875 51.8099C145.637 51.5642 145.343 51.4418 144.992 51.4418C144.642 51.4418 144.348 51.5642 144.109 51.8099C143.873 52.054 143.754 52.3408 143.754 52.6695C143.754 52.9982 143.873 53.285 144.109 53.529C144.348 53.7747 144.642 53.8972 144.992 53.8972C145.343 53.8972 145.637 53.7747 145.875 53.529C146.112 53.285 146.231 52.9982 146.231 52.6695C146.232 52.3408 146.113 52.054 145.875 51.8099Z" fill="#7F7F7F"/>
</svg>
