<svg xmlns="http://www.w3.org/2000/svg" viewBox="0 0 382 246.12"><defs><style>.cls-1{fill:#652d8f;}</style></defs><g id="Layer_2" data-name="Layer 2"><path class="cls-1" d="M146.61,66.88a1,1,0,0,1-.74-.3,4.06,4.06,0,0,0-3-1.39,3.92,3.92,0,0,0-2.48,1.3,1.07,1.07,0,0,1-1.65-1.35,5.52,5.52,0,0,1,8.58-.09,1.07,1.07,0,0,1-.75,1.83Z"/><path class="cls-1" d="M105.44,112.87a3.39,3.39,0,0,1-2-.66,40.53,40.53,0,1,1,64.07-37.5l2.78,0h.1l2.8,0a40.54,40.54,0,1,1,64.07,37.51,3.44,3.44,0,0,1-4.05-5.57,33.65,33.65,0,1,0-53.1-31.79c3.42.09,7.43.21,11.46.38,22.77,1,24.28,2.51,25.5,3.72,1.07,1.07,2.19,3.13,1.47,6.88-1.24,6.42-7.15,15.27-14,18.2a22.23,22.23,0,0,1-8.82,1.82,22.54,22.54,0,0,1-20.41-13l-.1,0A40.27,40.27,0,0,1,173,81.58l-2.62,0-2.64,0a40.49,40.49,0,0,1-2.25,11.32l-.11,0A22.45,22.45,0,0,1,136.12,104c-7.37-3.16-12.8-12.71-13.89-18.4-.57-2.95-.1-5.2,1.38-6.68,1.2-1.2,2.57-2.57,25.39-3.62,4.08-.19,8.12-.33,11.57-.44a33.65,33.65,0,1,0-53.1,31.75,3.44,3.44,0,0,1-2,6.23Zm23.45-28.93c.38,3.25,4.78,11.55,9.94,13.77a15.59,15.59,0,0,0,20.48-8.19h0a33,33,0,0,0,1.47-7.77C146.63,82.18,133.07,83,128.89,83.94Zm52.46,5.58a15.62,15.62,0,0,0,20.48,8.19c5.41-2.32,9.85-10.73,10.06-13.79-4-1-17.7-1.85-32-2.21a34,34,0,0,0,1.47,7.82Z"/><path class="cls-1" d="M201.05,66.88a1.09,1.09,0,0,1-.82-.39,3.93,3.93,0,0,0-2.48-1.3,4,4,0,0,0-3,1.39,1.06,1.06,0,0,1-1.48-1.53,5.51,5.51,0,0,1,8.57.09,1.07,1.07,0,0,1-.15,1.5A1.09,1.09,0,0,1,201.05,66.88Z"/><path class="cls-1" d="M55.31,120.37c0-2.6,0-5.58.09-8.08,6.92-.19,15.38-.28,23.36-.28,4.33,0,8.75,0,14.14,1.63,7.78,2.5,12.88,10.38,12.88,18.56,0,7.59-4.9,14.61-11.35,17.88-4.42,2.21-11.15,3-13.46,3-1.25,0-3.84,0-4.51-.1l-.1,13.37,8.75.29c0,2.5,0,5.38-.1,8-4.8,0-11.44-.09-17.3-.09-4.14,0-8.56.09-12.31.09,0-2.59.1-5.47.19-8l4.52-.29a.36.36,0,0,0,.39-.39V120.56Zm21.15,23.55c0,1,1.73,1,3.36,1a9.61,9.61,0,0,0,6.54-2.5c2-2,3.17-5.48,3.17-9.71,0-7.12-4.33-12.89-9.81-12.89a10.34,10.34,0,0,0-3.07.29Z"/><path class="cls-1" d="M133.85,171.33c-5.76,2.88-10.38,4.23-14,4.23-5,0-12.4-5.1-12.4-11.25,0-5.29,6.35-14.52,21.63-14.52h4.62c.29-4.71-1.54-7.6-5.86-7.6-3.18,0-8.27,2.79-12.12,5.39a73.63,73.63,0,0,1-5-6.83c6.92-5.67,14-9.52,23.27-9.52,7.4,0,14.71,6.25,14.71,14.43,0,6.34-.1,15.47-.19,19.61,0,.58,0,.77.48.67l5.09-.19c0,2.5.1,5.38,0,7.88-1.54.58-8.36,1.93-16,1.93a38.49,38.49,0,0,1-3.66-4.23Zm-6.73-5a13.37,13.37,0,0,0,6.44-2.12.78.78,0,0,0,.2-.57V157a13.08,13.08,0,0,0-2-.1c-6.35,0-9,2.7-9,5.77C122.7,164.89,125.2,166.33,127.12,166.33Z"/><path class="cls-1" d="M157.69,142c0-2.59.1-5.48.1-7.88,4.81-.29,18.94-2.79,19.52-2.79.19,0,.19.1.19.29.48,2,.87,3.94,1.35,6l.48.09c9.32-5.66,11.44-6.44,15.86-6.44,4.13,0,8.08,3.75,10,6.93a15.77,15.77,0,0,1,2.21,8.55c0,5.48-.19,13.46-.38,19.62l4.8.29c0,2.5,0,5.38-.09,7.88H199.32c-4.13,0-8.65.09-12,.09,0-2.49.09-5.38.09-7.88l3.85-.29a.41.41,0,0,0,.38-.38c.1-3.94,0-9.33,0-13,0-4.52,0-6.83-.76-8.27a3.6,3.6,0,0,0-3.66-2.12c-2.11,0-5.38,1.54-7.69,3.37-.1,5.67-.29,14.81-.29,20.29l4.14.29c0,2.59,0,5.38-.1,7.88h-12c-3.94,0-8.94.09-12.69.09,0-2.49.1-5.38.1-7.88l4.71-.29a.35.35,0,0,0,.38-.38V142.19Z"/><path class="cls-1" d="M225.28,172.67a8.62,8.62,0,0,1-3.36-7.59c0-5.39.09-10,.09-11.16,0-2,.1-11.73.1-12.59h-6.73c0-2.69.1-5.48.29-8.17,1.92-.1,4.33-.39,6.25-.48a.74.74,0,0,0,.67-.77c.19-2.6.48-5.68.67-8a105.24,105.24,0,0,1,14.33-5.2c.19,0,.29.1.29.39-.1,2.12-.2,10.86-.29,13.46,4.9,0,10.29-.1,14.81-.1,0,2.79-.1,6.16-.39,9-4,0-10-.09-14.42-.09v8c-.1,3.94-.1,7.4-.1,11.72a4.38,4.38,0,0,0,4.43,4.33A42.51,42.51,0,0,0,252.4,164c.48,2.6.86,5.57,1.15,8.08a57.43,57.43,0,0,1-20.86,3.46A10.42,10.42,0,0,1,225.28,172.67Z"/><path class="cls-1" d="M256.82,142.1c0-2.69.09-5.67.19-8.27,5.19-.38,20.77-2.6,21.54-2.6.19,0,.19.1.19.29-.1,10.48-.29,25.19-.29,34.81l5.29.29v7.88H270.47c-4.13,0-9.23.09-13.08.09,0-2.49,0-5.38.1-7.88l5.09-.29A.35.35,0,0,0,263,166V142.29ZM278.35,117a8.65,8.65,0,0,1-17.3.2c0-4,3.56-8,8.84-8C275.47,109.22,278.35,113.06,278.35,117Z"/><path class="cls-1" d="M308.16,136.81c9.71-5.19,10.76-5.58,14.8-5.58,8,0,14.71,9,14.61,19a31.83,31.83,0,0,1-3,12.88,23.81,23.81,0,0,1-7.3,9.33A20.06,20.06,0,0,1,317,175.56a22.32,22.32,0,0,1-8.46-1.35l-.67.19c.09,4.81.09,9.71.09,14.62l7.79.28c0,2.6,0,5.39-.09,7.89-4.62,0-10.39,0-15.48.1-3.85,0-8.85,0-12.69.09,0-2.5,0-5.29.09-7.88l4.62-.39c.28,0,.38-.19.38-.48l.1-46.44-6.06-.09c0-2.6.1-5.39.19-7.88,4.52-.58,19-3.08,19.52-3.08.19,0,.19.09.19.19.39,1.83.67,3.56,1.06,5.38Zm11.44,8.08a4.64,4.64,0,0,0-3.75-2.5,15.84,15.84,0,0,0-7.5,2.69c-.1,5.38-.19,13.07-.19,18.46,0,1.92,3.84,3.36,5.86,3.36a5.78,5.78,0,0,0,4.9-2.5c1.35-2,2.21-5.48,2.21-10.57C321.13,149.41,320.56,146.33,319.6,144.89Z"/><path class="cls-1" d="M58.25,182.55h2.57v11.94h5.79v2.15H58.25Z"/><path class="cls-1" d="M71.81,192.27c.07,1.84,1.49,2.64,3.14,2.64a8.22,8.22,0,0,0,2.82-.46l.38,1.75a9.09,9.09,0,0,1-3.56.65c-3.3,0-5.24-2-5.24-5.14,0-2.82,1.71-5.48,5-5.48s4.39,2.72,4.39,5a6.52,6.52,0,0,1-.08,1.08Zm4.48-1.79A2.19,2.19,0,0,0,74.17,188a2.52,2.52,0,0,0-2.36,2.49Z"/><path class="cls-1" d="M90.46,194.2a14.21,14.21,0,0,0,.16,2.44H88.3l-.18-1.13h-.07a3.69,3.69,0,0,1-3,1.36,3,3,0,0,1-3.2-3c0-2.55,2.28-3.87,6-3.84v-.17c0-.67-.27-1.78-2.07-1.78a5.36,5.36,0,0,0-2.73.75l-.51-1.67a7.35,7.35,0,0,1,3.68-.9c3.27,0,4.21,2.07,4.21,4.31ZM88,191.67c-1.82,0-3.56.35-3.56,1.9A1.35,1.35,0,0,0,85.86,195a2.11,2.11,0,0,0,2-1.4,1.54,1.54,0,0,0,.07-.56Z"/><path class="cls-1" d="M95,189.74c0-1.38,0-2.38-.09-3.28h2.22l.1,1.93h.07a3,3,0,0,1,2.8-2.16,2.2,2.2,0,0,1,.6.07v2.4a4.3,4.3,0,0,0-.77-.06,2.26,2.26,0,0,0-2.3,1.94,4.63,4.63,0,0,0-.06.77v5.29H95Z"/><path class="cls-1" d="M104.16,189.49c0-1.17,0-2.15-.08-3h2.24l.12,1.53h.06a3.74,3.74,0,0,1,3.27-1.76c1.77,0,3.61,1.15,3.61,4.37v6h-2.57v-5.75c0-1.46-.54-2.57-1.94-2.57a2.15,2.15,0,0,0-2,1.51,2.46,2.46,0,0,0-.13.81v6h-2.57Z"/><path class="cls-1" d="M116.68,199.17a34.05,34.05,0,0,0,1.4-5.52l2.7-.21a28.37,28.37,0,0,1-2.34,5.57Z"/><path class="cls-1" d="M136.87,193.84a7,7,0,0,0,3.41.9c1.63,0,2.55-.77,2.55-1.92s-.71-1.7-2.49-2.34c-2.34-.84-3.83-2.07-3.83-4.1,0-2.32,1.93-4.06,5-4.06a7.46,7.46,0,0,1,3.37.71l-.61,2.07a6.17,6.17,0,0,0-2.82-.67c-1.64,0-2.32.86-2.32,1.7,0,1.09.81,1.59,2.69,2.32,2.45.92,3.62,2.15,3.62,4.18,0,2.28-1.72,4.24-5.33,4.24a8.15,8.15,0,0,1-3.83-.9Z"/><path class="cls-1" d="M149.37,181.8h2.57v6h0a3.35,3.35,0,0,1,1.27-1.15,3.68,3.68,0,0,1,1.78-.46c1.74,0,3.55,1.15,3.55,4.41v6H156v-5.73c0-1.46-.54-2.59-2-2.59a2.15,2.15,0,0,0-2,1.45,2.39,2.39,0,0,0-.1.77v6.1h-2.57Z"/><path class="cls-1" d="M171,194.2a13.17,13.17,0,0,0,.17,2.44h-2.32l-.19-1.13h-.07a3.69,3.69,0,0,1-3,1.36,3,3,0,0,1-3.2-3c0-2.55,2.28-3.87,6.05-3.84v-.17c0-.67-.28-1.78-2.07-1.78a5.37,5.37,0,0,0-2.74.75l-.5-1.67a7.32,7.32,0,0,1,3.68-.9c3.26,0,4.2,2.07,4.2,4.31Zm-2.51-2.53c-1.82,0-3.55.35-3.55,1.9A1.34,1.34,0,0,0,166.4,195a2.12,2.12,0,0,0,2-1.4,1.78,1.78,0,0,0,.06-.56Z"/><path class="cls-1" d="M175.49,189.74c0-1.38,0-2.38-.09-3.28h2.22l.1,1.93h.07a3,3,0,0,1,2.8-2.16,2.32,2.32,0,0,1,.61.07v2.4a4.34,4.34,0,0,0-.78-.06,2.26,2.26,0,0,0-2.3,1.94,4.63,4.63,0,0,0-.06.77v5.29h-2.57Z"/><path class="cls-1" d="M186.34,192.27c.06,1.84,1.48,2.64,3.13,2.64a8.22,8.22,0,0,0,2.82-.46l.38,1.75a9.07,9.07,0,0,1-3.55.65c-3.31,0-5.25-2-5.25-5.14,0-2.82,1.71-5.48,5-5.48s4.39,2.72,4.39,5a6.52,6.52,0,0,1-.08,1.08Zm4.47-1.79A2.19,2.19,0,0,0,188.7,188a2.51,2.51,0,0,0-2.36,2.49Z"/><path class="cls-1" d="M216.39,196.64c-.29-.29-.55-.58-.91-1a4.79,4.79,0,0,1-3.25,1.15c-2.53,0-3.8-1.59-3.8-3.27a3.72,3.72,0,0,1,2.23-3.33v0a3.71,3.71,0,0,1-.93-2.31,3,3,0,0,1,3.22-3,2.63,2.63,0,0,1,2.87,2.58c0,1.2-.7,2.17-2.38,3v0c.8.92,1.69,2,2.32,2.63a7.86,7.86,0,0,0,1.05-3.06h1.88a8.57,8.57,0,0,1-1.8,4.33c.65.72,1.27,1.42,2,2.17Zm-1.9-2.15c-.7-.72-1.8-2-2.89-3.2a2.39,2.39,0,0,0-1.17,2,2,2,0,0,0,2.12,2A2.74,2.74,0,0,0,214.49,194.49Zm-2.86-6.83a2.77,2.77,0,0,0,.84,1.85c1-.62,1.54-1.15,1.54-1.95a1.19,1.19,0,0,0-1.16-1.3A1.27,1.27,0,0,0,211.63,187.66Z"/><path class="cls-1" d="M234.07,182.55h8.15v2.11h-5.58v3.89h5.19v2.09h-5.19v6h-2.57Z"/><path class="cls-1" d="M254.85,193.59c0,1.21,0,2.22.08,3H252.7l-.13-1.52h-.06a3.74,3.74,0,0,1-3.29,1.75c-1.84,0-3.53-1.11-3.53-4.43v-6h2.57V192c0,1.7.55,2.78,1.91,2.78a2.09,2.09,0,0,0,2-1.38,1.92,1.92,0,0,0,.15-.79v-6.15h2.57Z"/><path class="cls-1" d="M259.4,189.49c0-1.17,0-2.15-.08-3h2.23l.13,1.53h.06a3.73,3.73,0,0,1,3.26-1.76c1.78,0,3.62,1.15,3.62,4.37v6h-2.57v-5.75c0-1.46-.55-2.57-1.95-2.57a2.15,2.15,0,0,0-2,1.51,2.22,2.22,0,0,0-.13.81v6H259.4Z"/></g></svg>