<svg id="Layer_1" data-name="Layer 1" xmlns="http://www.w3.org/2000/svg" viewBox="0 0 900 900"><defs><style>.cls-1{fill:#fff;}.cls-2{fill:#24437c;}</style></defs><title>Rainmaker-logo-color</title><rect class="cls-1" x="-0.6" width="900.6" height="900.6"/><path class="cls-2" d="M117.15,509.91,161,647l43.84-137h27.23v168H211V612.47l2-65.53L169,677.88H152.8L109.07,547.4l2,65.07v65.41H89.93v-168Z"/><path class="cls-2" d="M360.62,634H303.86l-13,43.84H269.14l54.1-168h18.12l54.22,168H373.89ZM309.4,615.82h45.8l-23-76.38Z"/><path class="cls-2" d="M467.85,600.47l-16.5,20v57.45H430.23v-168h21.12V591l13.84-18.35,45.22-62.75h25.38l-54.57,73.94,58.84,94H514.79Z"/><path class="cls-2" d="M651.33,600.24H591.91v59.53h69.22v18.11H570.8v-168H660v18.23H591.91v54h59.42Z"/><path class="cls-2" d="M750.7,609.93H721.17v68H699.94v-168H747q24.69,0,37.38,12.86t12.69,37.67q0,15.57-6.87,27.17a43.38,43.38,0,0,1-19.43,17.48l32.53,71.41v1.38H780.58Zm-29.53-18.11h25.61a30.15,30.15,0,0,0,12.69-2.48,26.33,26.33,0,0,0,9.06-6.69,28.43,28.43,0,0,0,5.48-9.92,39.8,39.8,0,0,0,1.85-12.29,50.58,50.58,0,0,0-1.62-13.21A27.44,27.44,0,0,0,769.16,537a22.51,22.51,0,0,0-8.95-6.58,33.9,33.9,0,0,0-13.2-2.3H721.17Z"/><path class="cls-2" d="M165.25,366.65H120.7V469.14h-32V215.78h71q37.24,0,56.39,19.4T235.2,292q0,23.49-10.36,41a65.44,65.44,0,0,1-29.31,26.37L244.6,467.05v2.09H210.31ZM120.7,339.33h38.63a45.76,45.76,0,0,0,19.15-3.74,39.47,39.47,0,0,0,13.65-10.09,42.68,42.68,0,0,0,8.27-15A59.72,59.72,0,0,0,203.19,292a75.29,75.29,0,0,0-2.45-19.93,41.2,41.2,0,0,0-7.64-15.39,33.88,33.88,0,0,0-13.5-9.93q-8.26-3.48-19.92-3.48h-39Z"/><path class="cls-2" d="M413.8,403H328.2l-19.66,66.13H275.82l81.61-253.36h27.33l81.78,253.36H433.82Zm-77.25-27.49h69.08L371,260.32Z"/><path class="cls-2" d="M791.2,469.14h-32L657.74,273.9V469.14h-32V215.78h32L759.52,411.89V215.78H791.2Z"/><polygon class="cls-2" points="552.04 215.78 520.2 215.78 520.2 267.83 552.04 248 552.04 215.78"/><polygon class="cls-2" points="520.2 294.07 520.2 469.14 552.04 469.14 552.04 274.25 520.2 294.07"/></svg>