<svg width="70" height="76" viewBox="0 0 70 76" fill="none" xmlns="http://www.w3.org/2000/svg">
<path d="M3.59241 47.6729L7.83217 60.2005L12.0719 47.6729H14.7053V63.0267H12.6638V57.048L12.8533 51.0584L8.60198 63.0276H7.04011L2.81099 51.0995L3.00054 57.0471V63.0257H0.959961V47.6729H3.59241Z" fill="#24437C"/>
<path d="M27.138 59.0186H21.6488L20.3877 63.0257H18.29L23.523 47.6719H25.2744L30.5181 63.0257H28.4204L27.138 59.0186ZM22.1846 57.3532H26.6139L24.3934 50.3728L22.1846 57.3532Z" fill="#24437C"/>
<path d="M37.5079 55.9503L35.9121 57.7747V63.0257H33.8706V47.6729H35.9121V55.0856L37.2506 53.4093L41.6248 47.6729H44.0793L38.8018 54.4321L44.4922 63.0267H42.0484L37.5079 55.9503Z" fill="#24437C"/>
<path d="M55.2519 55.9292H49.5064V61.3704H56.2006V63.0257H47.4639V47.6729H56.0885V49.3391H49.5064V54.2739H55.2519V55.9292Z" fill="#24437C"/>
<path d="M64.8626 56.8149H62.0068V63.0257H59.9536V47.6729H64.5058C66.0966 47.6729 67.3016 48.065 68.1208 48.8492C68.9389 49.6334 69.348 50.7805 69.348 52.2923C69.348 53.2411 69.1266 54.0692 68.6836 54.7757C68.2417 55.4823 67.615 56.0152 66.8046 56.3735L69.9505 62.9005V63.0267H67.7523L64.8626 56.8149ZM62.0068 55.1596H64.4835C64.9516 55.1596 65.3616 55.0847 65.7108 54.933C66.0599 54.7821 66.3529 54.5783 66.587 54.3215C66.821 54.0646 66.998 53.7621 67.1169 53.4148C67.2359 53.0665 67.2958 52.6927 67.2958 52.2914C67.2958 51.8481 67.2436 51.4459 67.1392 51.084C67.0357 50.722 66.8713 50.4113 66.6488 50.1508C66.4254 49.8903 66.1363 49.6901 65.7833 49.5493C65.4303 49.4086 65.0048 49.3382 64.5067 49.3382H62.0077V55.1596H62.0068Z" fill="#24437C"/>
<path d="M8.24444 34.5785H3.93602V43.9463H0.840332V20.7886H7.70577C10.1071 20.7886 11.9243 21.3809 13.1592 22.5618C14.3923 23.7436 15.0103 25.4748 15.0103 27.7553C15.0103 29.1866 14.6766 30.4352 14.0084 31.5C13.3411 32.5667 12.3962 33.3692 11.1728 33.9112L15.9184 43.7562V43.9473H12.6022L8.24444 34.5785ZM3.93602 32.0814H7.67192C8.3779 32.0814 8.99685 31.968 9.52295 31.7395C10.05 31.5119 10.491 31.2039 10.843 30.8173C11.197 30.4288 11.4639 29.9745 11.6428 29.449C11.8217 28.9243 11.9127 28.3595 11.9127 27.7553C11.9127 27.0871 11.8333 26.4802 11.6757 25.9336C11.52 25.388 11.2724 24.9191 10.9359 24.5269C10.5993 24.1339 10.1641 23.8314 9.6303 23.6202C9.09743 23.4082 8.45527 23.3021 7.70384 23.3021H3.93602V32.0814Z" fill="#24437C"/>
<path d="M32.2815 37.9019H24.0032L22.1018 43.9463H18.9375L26.83 20.7886H29.4731L37.382 43.9463H34.2177L32.2815 37.9019ZM24.8107 35.3892H31.4924L28.1423 24.8596L24.8107 35.3892Z" fill="#24437C"/>
<path d="M68.7799 43.9463H65.6833L55.873 26.1009V43.9463H52.7764V20.7886H55.873L65.7171 38.7135V20.7886H68.7809V43.9463H68.7799Z" fill="#24437C"/>
<path d="M45.6506 20.7886H42.5713V25.5461L45.6506 23.7336V20.7886Z" fill="#24437C"/>
<path d="M42.5713 27.9444V43.9463H45.6506V26.1328L42.5713 27.9444Z" fill="#24437C"/>
</svg>
