<svg xmlns="http://www.w3.org/2000/svg" xmlns:xlink="http://www.w3.org/1999/xlink" viewBox="0 0 1366 768"><defs><style>.cls-1{fill:none;}.cls-2{isolation:isolate;}.cls-3{clip-path:url(#clip-path);}.cls-4{fill:#bbbdbf;}.cls-5{mix-blend-mode:multiply;}.cls-6{clip-path:url(#clip-path-3);}.cls-7{clip-path:url(#clip-path-4);}.cls-8{fill:url(#linear-gradient);}.cls-9{clip-path:url(#clip-path-5);}.cls-10{fill:url(#linear-gradient-2);}.cls-11{clip-path:url(#clip-path-7);}.cls-12{fill:#652d90;}.cls-13{clip-path:url(#clip-path-8);}.cls-14{fill:#4b2884;}.cls-15{fill:#6d6e70;}</style><clipPath id="clip-path"><rect class="cls-1" width="1366" height="768"/></clipPath><clipPath id="clip-path-3"><rect class="cls-1" x="954.61" y="164.27" width="300.75" height="210.56"/></clipPath><clipPath id="clip-path-4"><polygon class="cls-1" points="974.97 291.25 1050.68 311.05 1235 228.04 974.97 291.25"/></clipPath><linearGradient id="linear-gradient" y1="768" x2="1" y2="768" gradientTransform="translate(455280.86 -181.54) rotate(90) scale(591.37)" gradientUnits="userSpaceOnUse"><stop offset="0" stop-color="#652d90"/><stop offset="0.51" stop-color="#7f3f97"/><stop offset="0.95" stop-color="#a33e96"/><stop offset="1" stop-color="#a33e96"/></linearGradient><clipPath id="clip-path-5"><polygon class="cls-1" points="1117.42 338.98 1153.71 420.9 1235 228.04 1117.42 338.98"/></clipPath><linearGradient id="linear-gradient-2" y1="768" x2="1" y2="768" gradientTransform="matrix(0, -159.47, 159.47, 0, -121297.62, 389.2)" gradientUnits="userSpaceOnUse"><stop offset="0" stop-color="#fff23a"/><stop offset="0.04" stop-color="#fee62d"/><stop offset="0.12" stop-color="#fed41a"/><stop offset="0.2" stop-color="#fdc90f"/><stop offset="0.28" stop-color="#fdc60b"/><stop offset="0.67" stop-color="#f28f3f"/><stop offset="0.89" stop-color="#ed693c"/><stop offset="1" stop-color="#e83e39"/></linearGradient><clipPath id="clip-path-7"><rect class="cls-1" x="1050.68" y="228.04" width="184.32" height="175.51"/></clipPath><clipPath id="clip-path-8"><rect class="cls-1" x="1067.07" y="228.04" width="167.93" height="175.51"/></clipPath></defs><title>SCBAcademylogo</title><g class="cls-2"><g id="Layer_1" data-name="Layer 1"><g class="cls-3"><polygon class="cls-4" points="1235 228.04 974.97 291.25 1050.68 311.05 1087.36 403.55 1126.32 359.05 1153.71 420.9 1235 228.04"/><g class="cls-3"><g class="cls-5"><g class="cls-6"><g class="cls-7"><rect class="cls-8" x="1031.87" y="133.25" width="146.23" height="272.58" transform="translate(564.09 1270.09) rotate(-75.31)"/></g></g></g></g><g class="cls-9"><rect class="cls-10" x="1064.56" y="217.44" width="223.31" height="214.06" transform="translate(171.43 1016.7) rotate(-49.99)"/></g><g class="cls-3"><g class="cls-5"><g class="cls-11"><polygon class="cls-12" points="1050.68 311.05 1087.36 403.55 1117.42 338.98 1235 228.04 1050.68 311.05"/></g></g><g class="cls-5"><g class="cls-13"><polygon class="cls-12" points="1067.07 352.38 1087.36 403.55 1117.42 338.98 1235 228.04 1067.07 352.38"/></g></g><path class="cls-14" d="M186,375.55c-9.09-2.13-14.47-3.86-17.38-5.53s-3.26-2.84-3.34-5c0-4,4-8.36,17.05-8.44h.08a76.85,76.85,0,0,1,15.69,1.9c4.46,1,7.37,1.91,7.58,1.95a.1.1,0,0,1,.06,0l1.14.44.28.1.27-1.63,2.41-15.11-1.05-.42a80.83,80.83,0,0,0-27.2-4.6c-15.37,0-35.73,4.73-35.74,27.33.14,20.63,23.39,24,28.12,25.28,5.13,1.07,19.74,4.72,19.62,10.95a3.33,3.33,0,0,0,0,.34c0,3.35-2.15,5.57-5.51,7.18a28.08,28.08,0,0,1-11,2.22h0a.13.13,0,0,0-.08,0h-.58a62.57,62.57,0,0,1-26.86-7.05v0l0,0h0l-1.48-.85-.32-.19L145,422.25l.85.47c.14.09,12.09,6.91,30.36,6.91s36.59-7.88,36.66-26.62v-.2c0-17-11-23.7-26.84-27.26m105.34,32.54.11.2-.2-.15v0a52.35,52.35,0,0,1-20.34,3.94c-11.7-.31-25.18-1.34-25.44-27.68.28-26.72,13.53-27.34,25.82-27.66h.07a66.64,66.64,0,0,1,13.4,1.65c3.9.83,6.49,1.62,6.69,1.65l.06,0,1.16.42.28.09.25-1.65,2.19-15.26-1-.41a67.54,67.54,0,0,0-24.24-4.39c-6.91,0-18.32.66-28.14,6.8s-17.87,17.82-17.86,38.9a.5.5,0,0,0,0,.13v0c0,21.11,8.1,32.64,17.9,38.57s20.92,6.43,27.17,6.43c12.67,0,25.25-5.13,25.34-5.14l.86-.35.17-.06-2.51-16.81Zm80.85-26.2c4.06-1.88,10.28-6.79,10.28-18.7h0c-.06-18.66-17.41-22.73-31.81-22.74H310.84v87.89h1.43c.05,0,21.24-.19,40.09-.19,9.55,0,18-1.6,24.23-5.62s10-10.57,10-19.71v-.22c0-13.72-9.1-18.87-14.35-20.7m-41.87-24.53c3.92,0,14.9.09,21,.09,7.37.2,12,1.77,12.1,9.13-.22,6.71-2.83,9-12,9.31-7.55,0-17.44-.07-21.06-.1Zm22.72,53.95c-6.64,0-18.57-.08-22.64-.09L330.35,391c4.48,0,18.23.05,23.31.05,6.09.19,12.79.94,12.84,9.79-.2,9.64-5.24,10.26-13.43,10.51"/><path class="cls-15" d="M467.74,340.77h9l33.64,87.51h-10.3l-11.58-30H454.87l-10.66,30h-9.93ZM485,390l-14.15-37.5L457.81,390Z"/><path class="cls-15" d="M565,340.58c5.76,0,9.5.44,11.22,1.29v7.91l-3.31-.18q-4-.37-7.36-.37-15.43,0-22.43,8.45-7.15,8.65-7.16,26.84,0,35.85,32.9,35.85,2.38,0,6.44-.36l3.49-.37v7.17l-3.68.73a32.35,32.35,0,0,1-7.16.92q-20.77,0-30.89-10.11-10.47-10.65-10.48-33.64,0-44.11,38.42-44.13"/><path class="cls-15" d="M627.67,340.77h9l33.64,87.51H660l-11.59-30H614.8l-10.66,30h-9.93ZM645,390l-14.16-37.5-13,37.5Z"/><path class="cls-15" d="M691.09,340.77h14.52q19.67,0,29,5.7,15.81,9.75,15.82,37.87,0,43.94-43.58,43.94H691.09ZM703,420q16.55,0,24.45-4.78,13.43-7.91,13.42-31.08,0-22.61-12.86-30.51-7.56-4.42-23.72-4.41h-3.68V420Z"/><polygon class="cls-15" points="776.76 340.77 819.6 340.77 819.6 349.04 786.32 349.04 786.32 379.56 811.13 379.56 811.13 387.83 786.32 387.83 786.32 420.19 819.6 420.19 819.6 428.27 776.76 428.27 776.76 340.77"/><polygon class="cls-15" points="846.99 340.77 862.42 340.77 886.14 413.94 909.67 340.77 924.75 340.77 924.75 428.27 915 428.27 915 349.6 887.8 428.27 880.99 428.27 855.44 349.6 855.44 428.27 846.99 428.27 846.99 340.77"/><polygon class="cls-15" points="978.05 392.8 978.05 428.27 968.31 428.27 968.31 392.8 944.41 340.77 954.52 340.77 975.11 385.26 995.52 340.77 1004.89 340.77 978.05 392.8"/></g></g></g></g></svg>