<svg id="Layer_1" data-name="Layer 1" xmlns="http://www.w3.org/2000/svg" xmlns:xlink="http://www.w3.org/1999/xlink" viewBox="0 0 3497.33 1096.26"><defs><style>.cls-1{fill:url(#linear-gradient);}.cls-2{fill:url(#radial-gradient);}.cls-3{fill:none;stroke:#0373b1;stroke-miterlimit:3;stroke-width:1.42px;}.cls-4{fill:url(#linear-gradient-2);}.cls-5{fill:#1d65ab;}.cls-6{fill:#1f65aa;}</style><linearGradient id="linear-gradient" x1="275.49" y1="327.58" x2="1076.2" y2="619.02" gradientUnits="userSpaceOnUse"><stop offset="0" stop-color="#0675b6"/><stop offset="0.49" stop-color="#0e70b2"/><stop offset="1" stop-color="#1b67ac"/></linearGradient><radialGradient id="radial-gradient" cx="664.96" cy="514.71" r="431.33" gradientTransform="translate(-2.41 -12.3) scale(1 1.01)" gradientUnits="userSpaceOnUse"><stop offset="0" stop-color="#fff"/><stop offset="0.23" stop-color="#f7fafc"/><stop offset="0.58" stop-color="#e2edf3"/><stop offset="1" stop-color="#c0d7e4"/></radialGradient><linearGradient id="linear-gradient-2" x1="1558.78" y1="1161.22" x2="2067.88" y2="1346.52" gradientTransform="translate(-1128.73 -772.3)" xlink:href="#linear-gradient"/></defs><title>TWA-long-logo</title><polygon class="cls-1" points="1165 247.27 923.58 924.53 171.78 653.05 143.85 689.28 944.82 979.99 1201.34 254.95 1165 247.27"/><polygon class="cls-2" points="577.14 122.63 185.24 628.72 904.77 888.88 1135.21 240.03 577.14 122.63"/><polygon class="cls-3" points="563.04 91.57 131.77 641.86 923.58 924.78 1177.18 219.22 563.04 91.57"/><path class="cls-4" d="M664,558.62q-.5-4.39,5.38-13.67a294.07,294.07,0,0,1-54.53,9.17q-27.58,2-49.74-2.62-24.36-5.07-40.84-17.6t-17.35-31.57q-.87-19.05,15.26-38.22,19.88-23.64,62.16-42.67a287.35,287.35,0,0,1,85.46-24q43.17-5,74.44,1.56,23.85,5,39.82,16.26t20,28.36l27.81-20.92,49,10.23L758.15,524.31q-25.56,19.14-27.9,21.34c-2.34,2.79-2.48,5.57-.41,8.37s5.76,4.75,11.08,5.86q14.58,3,45.87-1.1a261.5,261.5,0,0,0,76.46-21.53q35.12-16.18,53-37.44,20.89-24.84,15.59-51.29T891,399.43q-35.6-22.64-91.79-34.36a462.21,462.21,0,0,0-130.87-8.21Q601.57,362,546.85,386.31t-83.94,59q-30.6,36.38-23.5,68.74t51.79,56.43Q535.89,594.53,603,608.56q71.84,15,131.37,12t99.46-16.73l49.56,10.35q-27,12.62-74.58,21.66t-102.3,8.66q-54.75-.37-120.78-14.16Q525,617.66,480.69,598.49T414.54,554.8q-21.9-24.51-21.66-50.43.53-32.82,27.84-65.27,30.42-36.17,85.35-63.21,67.2-33.18,146.63-41.7T819.79,344q67.9,14.17,109.34,40.53t47.57,62.68q5,31.21-20.36,61.33-36.2,43-120.22,64.73Q761,592.8,701.76,580.44q-18.93-4-28-9.46T664,558.62Zm-92.72-82q-17.2,20.46-9,35.52T593.49,532q15.32,3.18,36.39,1.82a219.57,219.57,0,0,0,44.81-8A197,197,0,0,0,721,506q22.5-13.17,35.68-28.08,16.85-20.51,7.87-35.63T729,421.64a128.23,128.23,0,0,0-37-2q-19.53,1.62-43,9.35a206.4,206.4,0,0,0-45.21,21.29Q582.08,463.82,571.29,476.66Z"/><path class="cls-5" d="M664,558.62q-.5-4.39,5.38-13.67a294.07,294.07,0,0,1-54.53,9.17q-27.58,2-49.74-2.62-24.36-5.07-40.84-17.6t-17.35-31.57q-.87-19.05,15.26-38.22,19.88-23.64,62.16-42.67a287.35,287.35,0,0,1,85.46-24q43.17-5,74.44,1.56,23.85,5,39.82,16.26t20,28.36l27.81-20.92,49,10.23L758.15,524.31q-25.56,19.14-27.9,21.34c-2.34,2.79-2.48,5.57-.41,8.37s5.76,4.75,11.08,5.86q14.58,3,45.87-1.1a261.5,261.5,0,0,0,76.46-21.53q35.12-16.18,53-37.44,20.89-24.84,15.59-51.29T891,399.43q-35.6-22.64-91.79-34.36a462.21,462.21,0,0,0-130.87-8.21Q601.57,362,546.85,386.31t-83.94,59q-30.6,36.38-23.5,68.74t51.79,56.43Q535.89,594.53,603,608.56q71.84,15,131.37,12t99.46-16.73l49.56,10.35q-27,12.62-74.58,21.66t-102.3,8.66q-54.75-.37-120.78-14.16Q525,617.66,480.69,598.49T414.54,554.8q-21.9-24.51-21.66-50.43.53-32.82,27.84-65.27,30.42-36.17,85.35-63.21,67.2-33.18,146.63-41.7T819.79,344q67.9,14.17,109.34,40.53t47.57,62.68q5,31.21-20.36,61.33-36.2,43-120.22,64.73Q761,592.8,701.76,580.44q-18.93-4-28-9.46T664,558.62Zm-92.72-82q-17.2,20.46-9,35.52T593.49,532q15.32,3.18,36.39,1.82a219.57,219.57,0,0,0,44.81-8A197,197,0,0,0,721,506q22.5-13.17,35.68-28.08,16.85-20.51,7.87-35.63T729,421.64a128.23,128.23,0,0,0-37-2q-19.53,1.62-43,9.35a206.4,206.4,0,0,0-45.21,21.29Q582.08,463.82,571.29,476.66Z"/><path class="cls-6" d="M1323.3,666.66V517.41h-43.71V487h117.18v30.46h-43.71V666.66Z"/><path class="cls-6" d="M1416.06,666.66V487h29.77v70.68h58.35V487h29.76V666.66h-29.76V588.08h-58.35v78.58Z"/><path class="cls-6" d="M1697.4,666.66h-32.27L1652.28,626h-58.92l-12.18,40.68h-31.65L1606.72,487h31.82Zm-54.56-71.14-20.42-66.66-20,66.66Z"/><path class="cls-6" d="M1712.3,666.66V487h29.76V666.66Z"/><path class="cls-6" d="M1848.61,666.66,1813.32,487h30.53L1866,610.5,1892.71,487h35.37l26,125.65L1976.61,487h29.91l-35.31,179.71h-31.79l-29.5-134.47-29.09,134.47Z"/><path class="cls-6" d="M2022,666.66V487h109.27v30.46H2051.8v39.75h73.94v30.23H2051.8v48.82h82.3v30.45Z"/><path class="cls-6" d="M2159.11,487h59q24.15,0,34,4.41t16.55,15.56a50.48,50.48,0,0,1,1,48.69q-5.79,10.47-15,15.5a39.89,39.89,0,0,1,20.59,15.95q7.43,11.28,7.43,27.47,0,19.62-9.44,33.19t-22.31,16.73q-9,2.24-41.56,2.21h-50.15Zm29.76,30v41.39h19.55q17.6,0,21.75-.61A18.56,18.56,0,0,0,2242,551.3q4.28-5.17,4.27-14.1,0-7.92-3.48-12.87a14.55,14.55,0,0,0-8.43-6.17q-4.95-1.21-28.4-1.22Zm0,71.38v47.89h27.58q18.15,0,23.3-1.89a17.35,17.35,0,0,0,8.63-7.46c2.34-3.7,3.5-8.41,3.5-14.1q0-8.81-3.73-14.49a19.21,19.21,0,0,0-9.94-7.82q-6.18-2.13-25.31-2.13Z"/><path class="cls-6" d="M2307.46,666.66V487h44.46l26.81,122.82L2405.14,487H2450V666.66h-27.66V525l-29.38,141.69H2364.4L2335.14,525V666.66Z"/><path class="cls-6" d="M2612.2,666.66h-32.28L2567.07,626h-58.93L2496,666.66h-31.63L2521.52,487h31.82Zm-54.57-71.14-20.41-66.66-20,66.66Z"/><path class="cls-6" d="M2680.65,669.69q-54.18,0-60.3-61.62l29.07-3.48q4.89,34.41,32,34.41,13.44,0,21.16-7a22.68,22.68,0,0,0,7.7-17.44,19.2,19.2,0,0,0-2.68-10.4,19.77,19.77,0,0,0-8.17-7q-5.49-2.76-26.69-9.23-19-5.75-27.83-12.48a47.34,47.34,0,0,1-14-17.68,54.23,54.23,0,0,1-5.2-23.56,52.49,52.49,0,0,1,6.69-26.45,43.69,43.69,0,0,1,18.49-17.75q11.79-6,29.11-6,26,0,40.67,14.1t15.47,40.31L2706.38,540q-2-14.49-8.52-20.27t-18.63-5.77q-12.09,0-18.63,5t-6.54,12.45a15.46,15.46,0,0,0,6,12.33q5.94,5,27.14,11,22.43,6.51,32.41,13.69a46.43,46.43,0,0,1,15.25,18.5q5.25,11.33,5.26,27.51,0,23.4-14.4,39.34t-45,15.93Z"/><path class="cls-6" d="M2798.34,666.66V517.41h-43.71V487H2871.8v30.46h-43.7V666.66Z"/><path class="cls-6" d="M2891.1,666.66V487h109.28v30.46h-79.51v39.75h73.92v30.23h-73.92v48.82h82.3v30.45Z"/><path class="cls-6" d="M3028.41,666.66V487H3091q24,0,34.3,4.84t16.91,16.78q6.61,12,6.62,28.62,0,21.07-10.1,33.93t-28.7,16.17a74.52,74.52,0,0,1,15.8,15.06q6.26,8.16,17,29.25l17.84,35.06H3125l-21.31-39.11Q3092.16,606.33,3088,601a23.11,23.11,0,0,0-8.81-7.37q-4.64-2-14.91-2h-6.11v75.09ZM3058.17,563h22q20.16,0,25.66-1.78a16.38,16.38,0,0,0,8.91-7.16q3.42-5.4,3.43-14.34,0-8.58-3.43-13.78a17.49,17.49,0,0,0-9.28-7.17q-4.17-1.34-24.07-1.34h-23.21Z"/><path class="cls-6" d="M1286.56,885.84l56.66-179.71h20.92l60.29,179.71h-22.31L1385,831.44h-62.09L1307,885.84Zm42-73.69H1379l-15.36-49.82q-7.12-22.94-10.44-37.3a264.88,264.88,0,0,1-8.11,34.35Z"/><path class="cls-6" d="M1482.61,827.49l18.6-1.62q1.45,14.89,6.66,23.2a37.34,37.34,0,0,0,14.83,13.37,46.15,46.15,0,0,0,21.74,5q17.34,0,26.93-8.49t9.59-22a26.88,26.88,0,0,0-3.49-13.87,26.39,26.39,0,0,0-10.53-9.71q-7-3.76-30.42-10.74-20.8-6.2-29.66-12.45a43.21,43.21,0,0,1-13.76-15.86,47.1,47.1,0,0,1-4.91-21.73q0-21.81,14.09-35.64t38-13.84q16.43,0,28.72,6.5a46.14,46.14,0,0,1,19.11,18.64q6.8,12.13,7.29,28.57l-18.6,1.63q-1.47-17.52-10.48-26T1541,724q-16.55,0-25.25,7.41A24,24,0,0,0,1507,750.6q0,10.9,6.38,16.89T1542,779.61q21.78,6,30.6,10.43,13.45,6.86,20.31,18.06t6.84,26.76a55.66,55.66,0,0,1-7.23,28.1,48.52,48.52,0,0,1-19.65,19.3q-12.44,6.62-29.93,6.62-27.32,0-43.53-16.57T1482.61,827.49Z"/><path class="cls-6" d="M1669.13,827.49l18.59-1.62q1.47,14.89,6.66,23.2a37.37,37.37,0,0,0,14.84,13.37,46.08,46.08,0,0,0,21.73,5q17.34,0,26.94-8.49t9.58-22a26.78,26.78,0,0,0-3.49-13.87,26.33,26.33,0,0,0-10.53-9.71q-7-3.76-30.42-10.74-20.8-6.2-29.65-12.45a43.12,43.12,0,0,1-13.76-15.86,47,47,0,0,1-4.91-21.73q0-21.81,14.08-35.64t38-13.84q16.41,0,28.72,6.5a46.26,46.26,0,0,1,19.11,18.64q6.78,12.13,7.28,28.57l-18.59,1.63q-1.49-17.52-10.49-26T1727.49,724q-16.54,0-25.25,7.41a24,24,0,0,0-8.7,19.16q0,10.9,6.37,16.89t28.64,12.12q21.79,6,30.6,10.43,13.47,6.86,20.31,18.06t6.84,26.76a55.76,55.76,0,0,1-7.22,28.1,48.64,48.64,0,0,1-19.65,19.3q-12.43,6.62-29.94,6.62-27.32,0-43.53-16.57T1669.13,827.49Z"/><path class="cls-6" d="M1874.81,860.46q-18-25.69-18-62.08,0-45.93,20.22-70.59t50.35-24.68a61.32,61.32,0,0,1,35.53,11q16,11,25.42,32t9.37,50q0,39.93-18.13,65-20,27.66-52.32,27.68-32.58,0-52.43-28.42Zm2.22-61.77q0,33.13,14.6,51.44t35.5,18.28q21.38,0,35.85-18.47t14.49-54.31q0-23.13-7.46-41.35A50.86,50.86,0,0,0,1952.72,732a42.09,42.09,0,0,0-25.23-8.38q-22,0-36.23,18.34T1877,798.69Z"/><path class="cls-6" d="M2176.44,822.84l19.53,6q-6.51,30.25-22.76,45.12t-39.57,14.88q-20.49,0-35-10t-23.8-32q-9.27-22.07-9.27-52.09,0-29.64,9.27-50.17t25.1-31a62.58,62.58,0,0,1,35.34-10.48q21.35,0,36.68,13.23t21.49,38.85l-19.07,5.58q-9.81-37.2-39.38-37.2-14.73,0-25.53,7.52t-17.23,23.44q-6.43,15.9-6.44,40.23,0,36.82,13,55.25t34.61,18.4a38.09,38.09,0,0,0,27.54-11.3Q2172.52,845.82,2176.44,822.84Z"/><path class="cls-6" d="M2273.1,885.84V706.13h19.53V885.84Z"/><path class="cls-6" d="M2359.79,885.84l56.66-179.71h20.92l60.29,179.71h-22.31l-17.09-54.4h-62.1l-15.9,54.4Zm42-73.69h50.39l-15.36-49.82q-7.11-22.94-10.43-37.3a263.29,263.29,0,0,1-8.12,34.35Z"/><path class="cls-6" d="M2585.19,885.84V727.29H2536.6V706.13h116.94v21.16h-48.83V885.84Z"/><path class="cls-6" d="M2726,885.84V706.13h19.53V885.84Z"/><path class="cls-6" d="M2841.41,860.46q-18-25.69-18-62.08,0-45.93,20.22-70.59T2894,703.11a61.3,61.3,0,0,1,35.53,11q16.05,11,25.42,32t9.37,50q0,39.93-18.12,65-20,27.66-52.32,27.68-32.6,0-52.43-28.42Zm2.21-61.77q0,33.13,14.6,51.44t35.5,18.28q21.38,0,35.85-18.47t14.49-54.31q0-23.13-7.46-41.35A50.91,50.91,0,0,0,2919.32,732a42.11,42.11,0,0,0-25.23-8.38q-22,0-36.24,18.34T2843.62,798.69Z"/><path class="cls-6" d="M3037.71,885.84V706.13h20.06l77.36,141.54V706.13h18.6V885.84h-19.94l-77.24-141.31V885.84Z"/><path class="cls-6" d="M1412.87,249.45a38.7,38.7,0,0,1-11.11,10.17,50.59,50.59,0,0,1-14.73,5.11,30.59,30.59,0,0,1,10.2,23.33v94.05H1380l-32.9-70a17,17,0,0,0-6.36-6.67,11.86,11.86,0,0,0-7.21-2,17.82,17.82,0,0,0-2.79.17c-8.08,1.24-12.09,6-12.09,14.42v24.11a12.38,12.38,0,0,1,2.56-.67c1-.2,2.76-.37,5.34-.58A21.92,21.92,0,0,1,1342,346.8a19.66,19.66,0,0,1,6.4,15.09,21,21,0,0,1-1.57,8.22,23.26,23.26,0,0,1-5.11,7.36q-5.85,6.31-15.93,6.33-11.07,0-17.55-6.39a24,24,0,0,1-6.34-16.9v-44.2c0-6.68,2.21-12.06,6.72-16.27a26.83,26.83,0,0,1,13.74-8.11c1.54-.29,3.75-.6,6.63-.9s4.67-.54,5.34-.66a44.51,44.51,0,0,1,8.92.81,25.31,25.31,0,0,1,7.62,2.78q6.54,3,10,10.82l19.62,42.81V291.07c0-7.16-3.2-13.31-9.54-18.53s-14-7.81-23.07-7.81q-27.56,0-36.53,21.66H1294q4.71-16.09,19.64-25.67a67.63,67.63,0,0,1,16.22-6.71,72.4,72.4,0,0,1,19-2.36c2.61,0,5.17.13,7.61.33a47.81,47.81,0,0,1,8,1.41c1.51.31,3,.68,4.59,1,1.74.53,3.55,1.08,5.41,1.58a9.3,9.3,0,0,0,2.79.34,15.83,15.83,0,0,0,9.33-3.48,37.33,37.33,0,0,0,10.31-13Zm-76.55,112.23c0-2.2-1-4.3-3.14-6.27a8.64,8.64,0,0,0-6.71-2.74,10.91,10.91,0,0,0-7.07,2.74c-1.42,1.33-2.29,3.43-2.61,6.27a10.69,10.69,0,0,0,.55,3.72,8.06,8.06,0,0,0,2.06,2.91,11.55,11.55,0,0,0,3.12,1.6,19.78,19.78,0,0,0,4,.84,12.21,12.21,0,0,0,3.74-.5,9.68,9.68,0,0,0,3-1.94A8.78,8.78,0,0,0,1336.32,361.68Z"/><path class="cls-6" d="M1541.55,364.42q0,17.56-15.46,17.58h-5.75q-3.93-11.43-16.1-23a67.42,67.42,0,0,0-13.16-10.11,62.74,62.74,0,0,0-14.16-6v19.49a20.09,20.09,0,0,1-5.64,14.62c-3.72,3.9-9,5.87-15.75,5.87a25.57,25.57,0,0,1-17.84-7.06,27.23,27.23,0,0,1-7.27-19.27c0-7.3,3.08-13.72,9.18-19.24a32.44,32.44,0,0,1,10-6.18,31.46,31.46,0,0,1,11.48-2.13V294.47a9.5,9.5,0,0,1-2.65.71c-1,.15-2.82.36-5.49.56a23.53,23.53,0,0,1-16.07-6.07,21.1,21.1,0,0,1-4.74-6.52,19.45,19.45,0,0,1-1.74-8.39,21.51,21.51,0,0,1,6.4-15.35,21.91,21.91,0,0,1,16.3-6.6q10.86,0,17.17,6.69c4.42,4.07,6.63,9.54,6.63,16.47v53.84a41.29,41.29,0,0,1,11.94,3,98.47,98.47,0,0,1,36,27.32V254.29h16.74ZM1462,275a8.66,8.66,0,0,0-2.79-6.3,9,9,0,0,0-6.65-2.83,9.69,9.69,0,0,0-6.89,2.92c-1.52,1.3-2.39,3.36-2.74,6.21a9.39,9.39,0,0,0,.59,3.58,7.84,7.84,0,0,0,2.15,3,12.14,12.14,0,0,0,3,1.58,23.33,23.33,0,0,0,3.93.84,9.48,9.48,0,0,0,6.65-2.61A8.33,8.33,0,0,0,1462,275Zm-.93,85.59V342.89a16.47,16.47,0,0,0-11.1,3.91,12.84,12.84,0,0,0-4.24,9.54,15,15,0,0,0,2.2,8.45,8.65,8.65,0,0,0,6.81,3.75C1459,368.54,1461.11,365.9,1461.11,360.58Z"/><path class="cls-6" d="M1651.67,382h-16.74V291c0-7.7-2.35-14.06-7-19.13-4.91-4.88-11.39-7.27-19.44-7.27-7.18,0-13.17,1.86-17.87,5.54s-8.49,9.09-11.19,16.13H1562a46.77,46.77,0,0,1,16.41-25.11q12.17-9.63,30.49-9.61c12.5,0,22.78,3.21,30.8,9.75s12,15.33,12,26.42Z"/><path class="cls-6" d="M1784.83,382h-16.74V298.9a34.84,34.84,0,0,0-8.34-23.42c-6.34-7.23-15.14-10.85-26.48-10.85q-16.17,0-26.47,9.67T1696.48,297c0,2.88.09,5.82.32,8.84a78.82,78.82,0,0,0,1.28,9.29l4,20.32v15.35c-.23,1.56-.38,2.7-.46,3.42l2.61-19.21a195.64,195.64,0,0,1,4.73-19.46,108.7,108.7,0,0,1,6.37-16.25q6.86-14.52,22.06-14.53A22.51,22.51,0,0,1,1753,291a20,20,0,0,1,6.77,15.4,20.48,20.48,0,0,1-6.37,15.14,22,22,0,0,1-16,6.22,23.47,23.47,0,0,1-14.7-5q-3.15,8.08-8.37,28c-1.4,5.53-2.74,10.84-3.9,16s-2.35,10.23-3.42,15.32h-17.85V361.92c0-8.7-2-22.29-6-40.92-.87-4.69-1.63-9.27-2.3-13.8a78.41,78.41,0,0,1-1-10.52q0-18.17,14.38-31.4,15.87-13.71,40.06-13.7,22.83,0,36.76,12.74t13.89,31.08Zm-37.66-75.65a8.64,8.64,0,0,0-2.94-6.39,8.37,8.37,0,0,0-6.75-2.94,9.65,9.65,0,0,0-7,2.94c-1.31,1.24-2.24,3.4-2.8,6.39a9.22,9.22,0,0,0,2.8,6.69,9.07,9.07,0,0,0,3.77,1.79c1.54.36,2.65.58,3.28.7a12.76,12.76,0,0,0,3.7-.46,9.24,9.24,0,0,0,3-2A9.69,9.69,0,0,0,1747.17,306.35Z"/><path class="cls-6" d="M1922.78,364.42q0,17.56-15.46,17.58h-5.75q-4-11.43-16.13-23a66.88,66.88,0,0,0-13.17-10.11,61.7,61.7,0,0,0-14.12-6v19.49a20.34,20.34,0,0,1-5.64,14.62c-3.78,3.9-9,5.87-15.78,5.87a25.7,25.7,0,0,1-17.87-7.06c-4.83-5.2-7.21-11.6-7.21-19.27,0-7.3,3-13.72,9.18-19.24a32.31,32.31,0,0,1,10-6.18,31.54,31.54,0,0,1,11.51-2.13V294.47a10.35,10.35,0,0,1-2.67.71c-1,.15-2.82.36-5.47.56a23.61,23.61,0,0,1-16.1-6.07,21.4,21.4,0,0,1-4.73-6.52,19.31,19.31,0,0,1-1.72-8.39,21.3,21.3,0,0,1,6.39-15.35,21.79,21.79,0,0,1,16.28-6.6q10.86,0,17.17,6.69c4.42,4.07,6.66,9.54,6.66,16.47v53.84a41.48,41.48,0,0,1,11.92,3,98.24,98.24,0,0,1,36,27.32V254.29h16.74ZM1843.27,275a8.7,8.7,0,0,0-2.82-6.3,9.09,9.09,0,0,0-6.66-2.83,9.69,9.69,0,0,0-6.88,2.92c-1.48,1.3-2.41,3.36-2.71,6.21a10.81,10.81,0,0,0,.53,3.58,8.82,8.82,0,0,0,2.18,3,12.32,12.32,0,0,0,3,1.58,23.41,23.41,0,0,0,3.92.84,9.54,9.54,0,0,0,6.66-2.61A8.35,8.35,0,0,0,1843.27,275Zm-.93,85.59V342.89a16.42,16.42,0,0,0-11.1,3.91,12.74,12.74,0,0,0-4.24,9.54,14.64,14.64,0,0,0,2.18,8.45,8.7,8.7,0,0,0,6.77,3.75C1840.19,368.54,1842.34,365.9,1842.34,360.58Z"/><path class="cls-6" d="M2055.19,362.22q0,10.62-4.39,15.27c-2.62,3-6.66,4.51-12.09,4.51H2033l-27.14-59.31-27,59.31h-22.26V276c0-6.86,2.13-12.44,6.33-16.73s10.18-6.5,17.91-6.5a21.25,21.25,0,0,1,16,6.69,20.51,20.51,0,0,1,.29,30,21.7,21.7,0,0,1-15.75,6.22,41.42,41.42,0,0,1-4.86-.18,8.8,8.8,0,0,1-3.22-1.09v64.25l26.77-56.62,11.88-.05,26.45,56.73V254.29h16.74ZM1991,275a8.15,8.15,0,0,0-2.91-6.21,8.4,8.4,0,0,0-6.62-2.92,9.76,9.76,0,0,0-6.92,2.92c-1.4,1.3-2.27,3.36-2.61,6.21a10.79,10.79,0,0,0,.58,3.67,7.15,7.15,0,0,0,2,2.81,8.26,8.26,0,0,0,3.72,1.8c1.51.36,2.56.58,3.2.7a11.57,11.57,0,0,0,3.66-.46,9.14,9.14,0,0,0,3-2A8.72,8.72,0,0,0,1991,275Z"/><path class="cls-6" d="M2055.13,437.62c0,8.08-1.92,14.21-5.81,18.25s-10.17,6.11-19,6.11h-40.46V450.61c4.48,0,7.65-.64,9.51-1.89,1.54-1.48,2.29-4.21,2.29-8.1v-6.86l-6.74,1.31a21.19,21.19,0,0,1-15.17-5.74,20.51,20.51,0,0,1,0-29,21.1,21.1,0,0,1,15.17-5.73c6.8,0,12.38,2.07,16.74,6.14,4.51,3.75,6.74,8.87,6.74,15.37v34h6c6,0,9.85-1.05,11.71-3.08a18.88,18.88,0,0,0,1.63-4.49,31.45,31.45,0,0,0,.64-6.78V395.91l16.74-.16ZM2004,414.84a8.08,8.08,0,0,0-2.38-6,11,11,0,0,0-6.69-2.81,8.55,8.55,0,0,0-6.19,2.31,10.61,10.61,0,0,0-2.87,6.52,8.47,8.47,0,0,0,2.61,6.27,10.75,10.75,0,0,0,6.45,2.56,8.46,8.46,0,0,0,6.17-2.32A10.52,10.52,0,0,0,2004,414.84Z"/><path class="cls-6" d="M2079.77,188q-2,20.1-18.25,31.45a60.28,60.28,0,0,1-15.72,7.25,67.08,67.08,0,0,1-19,2.58,73.24,73.24,0,0,1-16.51-1.84,25.33,25.33,0,0,0,7.43-5.9,22.66,22.66,0,0,0,4.37-8.25l-3.46.4a17.68,17.68,0,0,1-17-10.86,17.51,17.51,0,0,1,3.84-19.32,22.21,22.21,0,0,1,6-3.73,18.11,18.11,0,0,1,7.15-1.43,20.15,20.15,0,0,1,14.44,5.5,17.94,17.94,0,0,1,5.76,13.49,40.78,40.78,0,0,1-1.11,10.29,45.73,45.73,0,0,1-1.86,5.8,29.67,29.67,0,0,1-2.62,4.52,27.43,27.43,0,0,0,12-2.62,38.14,38.14,0,0,0,10.73-7.55q8.94-8.59,8.92-19.78Zm-53,8q0-7.94-8.32-7.94c-5.6,0-8.42,2.65-8.42,7.94,0,5.1,2.82,7.65,8.42,7.65S2026.77,201.05,2026.77,196Z"/><path class="cls-6" d="M2188.11,382h-16.73V298.9c0-9.61-2.79-17.54-8.32-23.73-6.07-7.06-14.64-10.54-25.68-10.54-10.35,0-18.9,2.89-25.75,8.73s-10.58,11.37-11.22,16.67l-.64,11.79a92.4,92.4,0,0,0,1,12.41q1,7,3.37,17,4.49,19.85,4.5,26.37c.76-1.34,1.57-2.68,2.42-4a51.39,51.39,0,0,1,3.22-4.54,38.88,38.88,0,0,1,2.73-3.75c1.4-1.76,3-3.66,4.83-5.77l11-12.45a23.27,23.27,0,0,1-12.44-7.35,21.51,21.51,0,0,1-4.76-13.4c0-5.52,2.12-10.58,6.39-15.12a23.44,23.44,0,0,1,16.22-6.41,22.46,22.46,0,0,1,15.75,6.41,19.51,19.51,0,0,1,6.74,15.15c0,4.36-.82,7.84-2.43,10.44a36,36,0,0,1-3,4.85c-1.28,1.65-2.5,3.16-3.69,4.51l-19.3,23.24c-4.27,5.55-8.51,11.39-12.76,17.58a108.36,108.36,0,0,0-9,15h-18.13V363.45a111.17,111.17,0,0,0-1-14.06q-1-7.5-3.49-19c-1.69-7.65-2.93-14.07-3.69-19.33a102.46,102.46,0,0,1-1.13-14.41c0-12.63,4.88-23.26,14.7-32s23.05-13.1,39.7-13.1c15.06,0,27.26,4.17,36.62,12.63s14.06,18.82,14.06,31.19Zm-40-75.65a8.53,8.53,0,0,0-3-6.39,8.92,8.92,0,0,0-6.88-2.94A10,10,0,0,0,2131,300c-1.57,1.36-2.5,3.46-2.85,6.39a9.94,9.94,0,0,0,.58,3.57A9.09,9.09,0,0,0,2131,313a10.29,10.29,0,0,0,3.11,1.62,17.7,17.7,0,0,0,4.13.87,10.31,10.31,0,0,0,6.88-2.49A9.55,9.55,0,0,0,2148.13,306.35Z"/><path class="cls-6" d="M2188.4,437.62c0,8.08-1.92,14.21-5.81,18.25s-10.17,6.11-19,6.11h-40.46V450.61c4.48,0,7.65-.64,9.5-1.89,1.55-1.48,2.3-4.21,2.3-8.1v-6.86l-6.74,1.31a21.17,21.17,0,0,1-15.17-5.74,20.51,20.51,0,0,1,0-29,21.08,21.08,0,0,1,15.17-5.73c6.8,0,12.38,2.07,16.74,6.14q6.75,5.63,6.74,15.37v34h6c6,0,9.86-1.05,11.72-3.08a17.67,17.67,0,0,0,1.62-4.49,29.65,29.65,0,0,0,.64-6.78V395.91l16.74-.16Zm-51.14-22.78a8,8,0,0,0-2.39-6,11,11,0,0,0-6.68-2.81,8.43,8.43,0,0,0-6.16,2.31,10.47,10.47,0,0,0-2.91,6.52,8.36,8.36,0,0,0,2.65,6.27,10.6,10.6,0,0,0,6.42,2.56,8.56,8.56,0,0,0,6.19-2.32A10.45,10.45,0,0,0,2137.26,414.84Z"/><path class="cls-6" d="M2274,361.74a21.12,21.12,0,0,1-1.57,8.29,22.87,22.87,0,0,1-5.11,7.29,21.61,21.61,0,0,1-16,6.4c-7.44,0-13.37-2.16-17.85-6.44a23.64,23.64,0,0,1-6.4-16.82v-106h16.75V342c1.3-.52,4-.95,8.05-1.25a22.77,22.77,0,0,1,15.52,5.9A19.26,19.26,0,0,1,2274,361.74Zm-12.55-.14a8.5,8.5,0,0,0-2.88-6.28,9.53,9.53,0,0,0-6.8-2.76,10,10,0,0,0-7.05,2.76q-2.28,2-2.8,6.28a9.12,9.12,0,0,0,.58,3.59,8.15,8.15,0,0,0,2.22,3,12.88,12.88,0,0,0,3,1.56,18.64,18.64,0,0,0,4,.88,9.79,9.79,0,0,0,6.8-2.62A8.33,8.33,0,0,0,2261.41,361.6Zm76.25.14a21.12,21.12,0,0,1-1.56,8.29,23.07,23.07,0,0,1-5.12,7.29,21.61,21.61,0,0,1-16,6.4c-7.44,0-13.37-2.16-17.84-6.44a24.16,24.16,0,0,1-4.68-7.52,25.13,25.13,0,0,1-1.71-9.3v-106h16.73V342a32.9,32.9,0,0,1,8-1.25,22.75,22.75,0,0,1,15.52,5.9A19.23,19.23,0,0,1,2337.66,361.74Zm-12.55-.14a8.41,8.41,0,0,0-3-6.28,8.55,8.55,0,0,0-6.72-2.76,9.52,9.52,0,0,0-9.85,9,9.31,9.31,0,0,0,.58,3.59,8.38,8.38,0,0,0,2.22,3,12.75,12.75,0,0,0,3,1.56,18.27,18.27,0,0,0,4,.88,9.81,9.81,0,0,0,6.81-2.62A8.32,8.32,0,0,0,2325.11,361.6Z"/><path class="cls-6" d="M2458.08,382h-17.21L2408,312a18.11,18.11,0,0,0-6.37-6.69,12.32,12.32,0,0,0-7.2-2,19.23,19.23,0,0,0-2.79.15c-8.09,1.28-12.12,6-12.12,14.41V342a12,12,0,0,1,2.58-.72c1-.14,2.76-.31,5.35-.53a22,22,0,0,1,15.43,5.9,19.58,19.58,0,0,1,6.4,15.06,21.29,21.29,0,0,1-1.54,8.29,23.74,23.74,0,0,1-5.12,7.29c-3.89,4.24-9.25,6.4-15.93,6.4-7.37,0-13.25-2.16-17.55-6.46a23.76,23.76,0,0,1-6.36-16.86V316.23c0-6.72,2.24-12.11,6.71-16.27a26.88,26.88,0,0,1,13.77-8.12c1.51-.31,3.72-.61,6.63-.95s4.68-.52,5.34-.61a46.61,46.61,0,0,1,8.9.79,24.67,24.67,0,0,1,7.61,2.81q6.6,3,10,10.78l19.61,42.84V290.92c0-7.09-3.15-13.28-9.49-18.48s-14-7.81-23.08-7.81q-27.55,0-36.56,21.67h-17.34c3.16-10.76,9.73-19.29,19.67-25.67a66.77,66.77,0,0,1,16.21-6.7,70.77,70.77,0,0,1,19-2.35q20.67,0,34.47,9.81t13.87,26.36Zm-60.93-20.4a8.46,8.46,0,0,0-3.1-6.28,8.63,8.63,0,0,0-6.75-2.76,10.71,10.71,0,0,0-7,2.76c-1.45,1.34-2.32,3.43-2.64,6.28a10.64,10.64,0,0,0,.58,3.7,8,8,0,0,0,2.06,2.93,13.13,13.13,0,0,0,3.08,1.56,20.57,20.57,0,0,0,4,.88,10.65,10.65,0,0,0,3.78-.56,8.7,8.7,0,0,0,3-1.88A8.93,8.93,0,0,0,2397.15,361.6Z"/><path class="cls-6" d="M2543.65,361.74a21.3,21.3,0,0,1-1.56,8.29,23.33,23.33,0,0,1-5.18,7.29c-4.13,4.24-9.47,6.4-16,6.4-7.38,0-13.34-2.16-17.81-6.44a23.58,23.58,0,0,1-6.37-16.82v-106h16.74V342c1.28-.52,4-.95,8-1.25a22.65,22.65,0,0,1,15.52,5.9A19.29,19.29,0,0,1,2543.65,361.74Zm-12.55-.14a8.52,8.52,0,0,0-2.9-6.28,9.55,9.55,0,0,0-6.81-2.76,9.89,9.89,0,0,0-7,2.76q-2.37,2-2.8,6.28a10.21,10.21,0,0,0,.54,3.59,8.55,8.55,0,0,0,2.26,3,12.21,12.21,0,0,0,3,1.56,18.5,18.5,0,0,0,4,.88,9.81,9.81,0,0,0,6.81-2.62A8.35,8.35,0,0,0,2531.1,361.6Z"/><path class="cls-6" d="M2653.45,360.4q0,10.34-6.33,16.83c-4.19,4.31-10.18,6.49-17.91,6.49a22.94,22.94,0,0,1-16.37-6.4,22.18,22.18,0,0,1-6.35-15.58,19.53,19.53,0,0,1,6.57-14.82,21.94,21.94,0,0,1,15.57-6.14,46.34,46.34,0,0,1,4.86.15,9.94,9.94,0,0,1,3.21,1.1v-51c0-7.5-3-13.75-8.95-18.84s-13.25-7.6-21.84-7.6a44.63,44.63,0,0,0-21.8,5.63,32.08,32.08,0,0,0-13.14,16h-17.49q5.52-16.79,19.77-25.67a67.19,67.19,0,0,1,15.57-6.7,63.27,63.27,0,0,1,18-2.35c13.19,0,24.27,3.27,33.23,9.9s13.42,15.4,13.42,26.33Zm-14.88,1.2a8.47,8.47,0,0,0-3.14-6.28,8.61,8.61,0,0,0-6.74-2.76,10.82,10.82,0,0,0-7,2.76c-1.45,1.34-2.31,3.43-2.61,6.28a10.69,10.69,0,0,0,.55,3.7,8.12,8.12,0,0,0,2.06,2.93,13.39,13.39,0,0,0,3.12,1.56,19.41,19.41,0,0,0,3.92.88,10.69,10.69,0,0,0,3.78-.56,8.67,8.67,0,0,0,3-1.88A8.94,8.94,0,0,0,2638.57,361.6Z"/><path class="cls-6" d="M2655.19,169.93c0,7.56-3.65,13.76-11,18.68a43.33,43.33,0,0,1-24.86,7.39h-11.78c-1.54,0-3,0-4.59.09a32.87,32.87,0,0,0-5.08.65c-2.85,0-6.11,1.62-9.83,4.89-3.31,2.53-4.94,6.2-4.94,11.05a13.35,13.35,0,0,0,4.3,9.94,8.76,8.76,0,0,0,6,2.85l12.14-16.42c.53.52,1.12,1.11,1.7,1.77a7,7,0,0,1,1.21,1.74l6.74,6.18a19,19,0,0,1,6-10.71,19.42,19.42,0,0,1,25.43.64,17.37,17.37,0,0,1,3.83,5.41,16.06,16.06,0,0,1,1.39,6.68,16.25,16.25,0,0,1-5.55,12.39,19.84,19.84,0,0,1-6.54,3.63,22.88,22.88,0,0,1-7.81,1.31,33.72,33.72,0,0,1-7.18-.82,31.38,31.38,0,0,1-6.85-2.56,35.64,35.64,0,0,1-11.75-8.84l-7.38,10.93h-9.47a21.65,21.65,0,0,1-15.37-6.33c-4.48-4.24-6.72-10-6.72-17.11,0-6.87,2.78-13,8.4-18.55,5.13-4.85,10.73-7.61,16.64-8.19a73.15,73.15,0,0,1,9.72-1.12h17.28c5.5,0,10.1-1.12,13.84-3.42,3.51-2.73,5.27-6.77,5.27-12.15Zm-14.41,50.69c0-4.62-2.38-7-7.21-7s-7.2,2.34-7.2,7,2.4,7,7.2,7S2640.78,225.27,2640.78,220.62Z"/><path class="cls-6" d="M2794.22,351.93c0,10.07-2.34,17.78-7,23.06q-6.89,7-24.59,7h-75.85V369.79c6.43,0,10.85-1,13.25-2.9s3.58-5.91,3.58-11.75V294.47a9.87,9.87,0,0,1-2.62.71c-1,.15-2.76.36-5.37.56a23.07,23.07,0,0,1-15.88-6.07,20.89,20.89,0,0,1-4.67-6.52,19.9,19.9,0,0,1-1.71-8.39,21.32,21.32,0,0,1,6.45-15.35,22.22,22.22,0,0,1,16.45-6.6q11,0,17.37,6.69c4.45,4.07,6.68,9.54,6.68,16.47v93h33.06c10.2,0,16.71-1.09,19.55-3.38,3.08-2.74,4.59-8.35,4.59-17V254.29h16.74ZM2705.41,275a8.54,8.54,0,0,0-2.88-6.3,9.35,9.35,0,0,0-6.79-2.83,10,10,0,0,0-7.07,2.92c-1.5,1.3-2.44,3.36-2.78,6.21a9.21,9.21,0,0,0,.58,3.58,8.15,8.15,0,0,0,2.2,3,12.68,12.68,0,0,0,3,1.58,24.4,24.4,0,0,0,4,.84,9.82,9.82,0,0,0,6.79-2.61A8.21,8.21,0,0,0,2705.41,275Z"/><path class="cls-6" d="M2889.31,361.74a21.3,21.3,0,0,1-1.56,8.29,23.07,23.07,0,0,1-5.12,7.29c-3.89,4.24-9.22,6.4-15.93,6.4q-11.05,0-17.73-6.44a23.93,23.93,0,0,1-4.64-7.49,26.34,26.34,0,0,1-1.52-9.35V191.29l-22.28,21.51a171.19,171.19,0,0,0-10.32-20.1q-12.95-21.16-27.84-28.75l14.38-9.18q10.68,6.22,20.78,20.66c1,1.33,2.09,3,3.28,5s2.68,4.56,4.42,7.7l22.13-21.38a10.22,10.22,0,0,1,8.59,4.7,18,18,0,0,1,2.53,5.65,24.69,24.69,0,0,1,.9,6.79V342a12.23,12.23,0,0,1,2.62-.72c1-.14,2.76-.31,5.34-.53a22.16,22.16,0,0,1,15.52,5.9A19.52,19.52,0,0,1,2889.31,361.74Zm-12.08-.14c0-2.28-1.06-4.34-3.15-6.28a8.53,8.53,0,0,0-6.7-2.76,10,10,0,0,0-7.07,2.76c-1.42,1.34-2.3,3.43-2.62,6.28a10,10,0,0,0,.58,3.7,7.12,7.12,0,0,0,2,2.84,8.86,8.86,0,0,0,3.78,1.83c1.51.38,2.61.58,3.29.7a12,12,0,0,0,3.67-.48,10.07,10.07,0,0,0,6.18-8.59Z"/><path class="cls-6" d="M3019.31,382h-16.74V285.13q0-18.44-12.44-18.42c-2.62,0-4.57,2.27-5.9,6.77L2947.9,382h-18.34V294.47a9.1,9.1,0,0,1-2.62.71c-1,.15-2.76.36-5.38.56a23,23,0,0,1-15.85-6.07,21,21,0,0,1-4.66-6.52,19.6,19.6,0,0,1-1.71-8.39,21.36,21.36,0,0,1,6.45-15.35,22.25,22.25,0,0,1,16.45-6.6q11,0,17.35,6.69c4.48,4.07,6.71,9.56,6.71,16.52v43.75c0,2.15-.14,5.07-.46,8.69s-.79,7.74-1.4,12.32c0,1.84-.12,4-.35,6.35s-.59,5.08-1,7.95c.63-2.87,1.13-5.11,1.46-6.67a21.32,21.32,0,0,1,1.12-3.9,136.43,136.43,0,0,1,4.69-16.13l20-61.24c2.94-9.53,9.92-14.33,21-14.33q13,0,20.34,7a21.46,21.46,0,0,1,5.69,8.87,40.23,40.23,0,0,1,2,13.39Zm-87.89-107a8.53,8.53,0,0,0-2.87-6.3,9.38,9.38,0,0,0-6.81-2.83,10,10,0,0,0-7.06,2.92c-1.53,1.3-2.47,3.36-2.79,6.21a9.79,9.79,0,0,0,.59,3.58,8.27,8.27,0,0,0,2.2,3,13.13,13.13,0,0,0,3,1.58,24.11,24.11,0,0,0,4,.84,9.85,9.85,0,0,0,6.81-2.61A8.2,8.2,0,0,0,2931.42,275Z"/><path class="cls-6" d="M3146.28,351.93c0,10.29-2.33,17.86-7,22.78s-12.83,7.29-24.59,7.29h-60.51V336.91q0-9.71,4.71-15.63c1.57-1.67,4.5-3.77,8.77-6.39a26.82,26.82,0,0,1-11.91-6.36,17.14,17.14,0,0,1-4.83-12.47V276c0-7,2.09-12.66,6.28-16.84s10.17-6.32,17.92-6.32a21.58,21.58,0,0,1,16,6.69,19.72,19.72,0,0,1,6.72,15.26c0,5.7-2.27,10.67-6.74,14.91a22.68,22.68,0,0,1-6.91,4.59,21.53,21.53,0,0,1-8.52,1.48c-3.95,0-6.63-.43-8.06-1.27,0,3.59,1.87,6.85,5.65,9.76,4.09,2.76,9.7,4.15,16.79,4.15h10.11v13.05h-10.49c-12.52,0-18.8,5.43-18.8,16.42v31.09h34.52c10.16,0,16.63-1.09,19.47-3.38,3.06-2.74,4.59-8.35,4.59-17V254.29h16.75ZM3085.36,275a8.53,8.53,0,0,0-2.87-6.3,9.37,9.37,0,0,0-6.83-2.83,10,10,0,0,0-7,2.92c-1.54,1.3-2.46,3.36-2.79,6.21a9.2,9.2,0,0,0,.59,3.58,7.82,7.82,0,0,0,2.2,3,12.37,12.37,0,0,0,3,1.58,24.26,24.26,0,0,0,4,.84,9.85,9.85,0,0,0,6.83-2.61A8.2,8.2,0,0,0,3085.36,275Z"/></svg>